EncodeSans-ExtraLight.ufo
<glyph name="exclam" format="2">
  <advance width="457.8888888888889"/>
  <unicode hex="0021"/>
  <outline>
    <contour>
      <point x="199.27777777777777" y="328.00000000000006" type="line"/>
      <point x="258.8888888888889" y="328.00000000000006" type="line"/>
      <point x="275.50000000000006" y="895.8888888888889" type="line"/>
      <point x="275.50000000000006" y="1480.0" type="line"/>
      <point x="182.38888888888886" y="1480.0" type="line"/>
      <point x="182.38888888888886" y="895.8888888888889" type="line"/>
    </contour>
    <contour>
      <point x="228.94444444444446" y="-10.555555555555557" type="curve" smooth="yes"/>
      <point x="272.00000000000006" y="-10.555555555555557"/>
      <point x="302.38888888888897" y="17.3888888888889"/>
      <point x="302.38888888888897" y="61.11111111111114" type="curve" smooth="yes"/>
      <point x="302.38888888888897" y="104.83333333333339"/>
      <point x="272.2222222222223" y="134.66666666666674"/>
      <point x="228.94444444444446" y="134.66666666666674" type="curve" smooth="yes"/>
      <point x="185.66666666666666" y="134.66666666666674"/>
      <point x="155.49999999999997" y="105.0555555555556"/>
      <point x="155.49999999999997" y="61.11111111111114" type="curve" smooth="yes"/>
      <point x="155.49999999999997" y="17.16666666666668"/>
      <point x="185.88888888888889" y="-10.555555555555557"/>
    </contour>
  </outline>
</glyph>
<glyph name="numbersign" format="2">
  <advance width="1112.2222222222222"/>
  <unicode hex="0023"/>
  <outline>
    <contour>
      <point x="618.6666666666666" y="0.0" type="line"/>
      <point x="698.8333333333334" y="0.0" type="line"/>
      <point x="852.8333333333334" y="1480.0" type="line"/>
      <point x="772.6666666666666" y="1480.0" type="line"/>
    </contour>
    <contour>
      <point x="100.0" y="486.0" type="line"/>
      <point x="1012.2222222222223" y="486.0" type="line"/>
      <point x="1012.2222222222223" y="565.8888888888889" type="line"/>
      <point x="100.0" y="565.8888888888889" type="line"/>
    </contour>
    <contour>
      <point x="259.38888888888886" y="0.0" type="line"/>
      <point x="339.5555555555556" y="0.0" type="line"/>
      <point x="493.5555555555556" y="1480.0" type="line"/>
      <point x="413.38888888888886" y="1480.0" type="line"/>
    </contour>
    <contour>
      <point x="100.0" y="914.1111111111111" type="line"/>
      <point x="1012.2222222222223" y="914.1111111111111" type="line"/>
      <point x="1012.2222222222223" y="994.0" type="line"/>
      <point x="100.0" y="994.0" type="line"/>
    </contour>
  </outline>
</glyph>
<glyph name="dollar" format="2">
  <advance width="1021.3333333333334"/>
  <unicode hex="0024"/>
  <outline>
    <contour>
      <point x="442.55555555555554" y="-18.11111111111111" type="curve" smooth="yes"/>
      <point x="760.1111111111111" y="-18.11111111111111"/>
      <point x="938.7222222222223" y="125.3888888888889"/>
      <point x="938.7222222222223" y="384.5" type="curve" smooth="yes"/>
      <point x="938.7222222222223" y="593.1111111111111"/>
      <point x="817.7777777777778" y="713.2222222222223"/>
      <point x="550.1111111111112" y="781.4444444444445" type="curve" smooth="yes"/>
      <point x="484.22222222222223" y="798.4444444444445" type="line" smooth="yes"/>
      <point x="258.9444444444445" y="857.7222222222223"/>
      <point x="174.50000000000006" y="940.3333333333334"/>
      <point x="174.50000000000006" y="1112.0555555555557" type="curve" smooth="yes"/>
      <point x="174.50000000000006" y="1307.111111111111"/>
      <point x="303.16666666666674" y="1416.611111111111"/>
      <point x="568.4444444444445" y="1416.611111111111" type="curve" smooth="yes"/>
      <point x="672.4444444444445" y="1416.611111111111"/>
      <point x="775.1111111111112" y="1402.5"/>
      <point x="879.2777777777778" y="1370.0" type="curve"/>
      <point x="879.2777777777778" y="1453.5" type="line"/>
      <point x="788.0555555555557" y="1483.0555555555557"/>
      <point x="674.2777777777778" y="1498.111111111111"/>
      <point x="570.5" y="1498.111111111111" type="curve" smooth="yes"/>
      <point x="247.94444444444446" y="1498.111111111111"/>
      <point x="82.6111111111111" y="1348.5"/>
      <point x="82.6111111111111" y="1107.0" type="curve" smooth="yes"/>
      <point x="82.6111111111111" y="899.3333333333333"/>
      <point x="203.66666666666666" y="778.2222222222222"/>
      <point x="451.72222222222223" y="714.1666666666666" type="curve" smooth="yes"/>
      <point x="517.6111111111111" y="697.1666666666666" type="line" smooth="yes"/>
      <point x="751.7222222222222" y="635.7222222222222"/>
      <point x="846.8333333333333" y="556.7222222222222"/>
      <point x="846.8333333333333" y="380.0" type="curve" smooth="yes"/>
      <point x="846.8333333333333" y="171.5555555555556"/>
      <point x="712.8888888888889" y="63.38888888888894"/>
      <point x="445.8888888888889" y="63.38888888888894" type="curve" smooth="yes"/>
      <point x="341.8888888888889" y="63.38888888888894"/>
      <point x="224.22222222222223" y="80.83333333333339"/>
      <point x="100.16666666666666" y="122.61111111111117" type="curve"/>
      <point x="100.16666666666666" y="39.111111111111114" type="line"/>
      <point x="211.94444444444446" y="0.1666666666666674"/>
      <point x="336.94444444444446" y="-18.11111111111111"/>
    </contour>
    <contour>
      <point x="470.27777777777777" y="-240.0" type="line"/>
      <point x="552.9444444444445" y="-240.0" type="line"/>
      <point x="552.9444444444445" y="13.888888888888903" type="line"/>
      <point x="470.27777777777777" y="4.44444444444446" type="line"/>
    </contour>
    <contour>
      <point x="470.27777777777777" y="1476.6666666666667" type="line"/>
      <point x="552.9444444444445" y="1476.6666666666667" type="line"/>
      <point x="552.9444444444445" y="1720.0" type="line"/>
      <point x="470.27777777777777" y="1720.0" type="line"/>
    </contour>
  </outline>
</glyph>
<glyph name="percent" format="2">
  <advance width="1733.9444444444446"/>
  <unicode hex="0025"/>
  <note>
450
</note>
  <outline>
    <contour>
      <point x="502.11111111111114" y="0.0" type="line"/>
      <point x="588.1111111111112" y="0.0" type="line"/>
      <point x="1231.8333333333335" y="1480.0" type="line"/>
      <point x="1145.8333333333333" y="1480.0" type="line"/>
    </contour>
    <contour>
      <point x="426.0555555555556" y="577.3333333333334" type="curve" smooth="yes"/>
      <point x="608.7777777777778" y="577.3333333333334"/>
      <point x="738.6666666666667" y="701.5555555555555"/>
      <point x="738.6666666666667" y="1037.7222222222222" type="curve" smooth="yes"/>
      <point x="738.6666666666667" y="1373.888888888889"/>
      <point x="611.6111111111111" y="1498.111111111111"/>
      <point x="426.0555555555556" y="1498.111111111111" type="curve" smooth="yes"/>
      <point x="240.5" y="1498.111111111111"/>
      <point x="113.44444444444443" y="1373.888888888889"/>
      <point x="113.44444444444443" y="1037.7222222222222" type="curve" smooth="yes"/>
      <point x="113.44444444444443" y="701.5555555555555"/>
      <point x="243.33333333333334" y="577.3333333333334"/>
    </contour>
    <contour>
      <point x="426.0555555555556" y="651.1666666666667" type="curve" smooth="yes"/>
      <point x="288.33333333333337" y="651.1666666666667"/>
      <point x="195.00000000000006" y="748.4444444444445"/>
      <point x="195.00000000000006" y="1039.611111111111" type="curve" smooth="yes"/>
      <point x="195.00000000000006" y="1328.888888888889"/>
      <point x="288.33333333333337" y="1424.2777777777778"/>
      <point x="426.0555555555556" y="1424.2777777777778" type="curve" smooth="yes"/>
      <point x="562.8333333333334" y="1424.2777777777778"/>
      <point x="657.1111111111111" y="1328.888888888889"/>
      <point x="657.1111111111111" y="1035.8333333333333" type="curve" smooth="yes"/>
      <point x="657.1111111111111" y="744.6666666666667"/>
      <point x="562.8333333333334" y="651.1666666666667"/>
    </contour>
    <contour>
      <point x="1307.888888888889" y="-18.0" type="curve" smooth="yes"/>
      <point x="1491.5555555555557" y="-18.0"/>
      <point x="1620.5" y="106.22222222222223"/>
      <point x="1620.5" y="442.3888888888889" type="curve" smooth="yes"/>
      <point x="1620.5" y="778.5555555555555"/>
      <point x="1492.5" y="902.7777777777778"/>
      <point x="1307.888888888889" y="902.7777777777778" type="curve" smooth="yes"/>
      <point x="1123.2777777777778" y="902.7777777777778"/>
      <point x="995.2777777777778" y="778.5555555555555"/>
      <point x="995.2777777777778" y="442.3888888888889" type="curve" smooth="yes"/>
      <point x="995.2777777777778" y="106.22222222222223"/>
      <point x="1124.2222222222224" y="-18.0"/>
    </contour>
    <contour>
      <point x="1307.888888888889" y="55.83333333333337" type="curve" smooth="yes"/>
      <point x="1171.1111111111113" y="55.83333333333337"/>
      <point x="1076.8333333333335" y="153.11111111111114"/>
      <point x="1076.8333333333335" y="444.27777777777777" type="curve" smooth="yes"/>
      <point x="1076.8333333333335" y="733.5555555555555"/>
      <point x="1171.1111111111113" y="828.9444444444445"/>
      <point x="1307.888888888889" y="828.9444444444445" type="curve" smooth="yes"/>
      <point x="1444.6666666666667" y="828.9444444444445"/>
      <point x="1538.9444444444446" y="733.5555555555555"/>
      <point x="1538.9444444444446" y="440.5" type="curve" smooth="yes"/>
      <point x="1538.9444444444446" y="149.33333333333337"/>
      <point x="1444.6666666666667" y="55.83333333333337"/>
    </contour>
  </outline>
</glyph>
<glyph name="ampersand" format="2">
  <advance width="1447.3333333333335"/>
  <unicode hex="0026"/>
  <outline>
    <contour>
      <point x="1397.888888888889" y="-20.0" type="line"/>
      <point x="1447.3333333333335" y="46.61111111111116" type="line"/>
      <point x="687.4444444444445" y="657.6666666666667" type="line" smooth="yes"/>
      <point x="460.3888888888889" y="841.5555555555555"/>
      <point x="406.66666666666674" y="941.0555555555555"/>
      <point x="406.66666666666674" y="1090.5" type="curve" smooth="yes"/>
      <point x="406.66666666666674" y="1301.0555555555554"/>
      <point x="526.2777777777778" y="1416.611111111111"/>
      <point x="798.5" y="1416.611111111111" type="curve" smooth="yes"/>
      <point x="882.2222222222223" y="1416.611111111111"/>
      <point x="957.3333333333334" y="1407.5"/>
      <point x="1033.8333333333335" y="1386.0" type="curve"/>
      <point x="1033.8333333333335" y="1469.5" type="line"/>
      <point x="966.9444444444445" y="1487.2222222222222"/>
      <point x="887.4444444444445" y="1498.111111111111"/>
      <point x="799.3888888888889" y="1498.111111111111" type="curve" smooth="yes"/>
      <point x="474.27777777777777" y="1498.111111111111"/>
      <point x="314.77777777777777" y="1350.111111111111"/>
      <point x="314.77777777777777" y="1090.111111111111" type="curve" smooth="yes"/>
      <point x="314.77777777777777" y="913.6111111111111"/>
      <point x="391.16666666666663" y="789.3888888888889"/>
      <point x="638.0" y="591.0555555555555" type="curve" smooth="yes"/>
    </contour>
    <contour>
      <point x="671.0" y="-18.0" type="curve" smooth="yes"/>
      <point x="1013.3333333333334" y="-18.0"/>
      <point x="1212.7777777777778" y="158.16666666666669"/>
      <point x="1212.7777777777778" y="491.2777777777778" type="curve" smooth="yes"/>
      <point x="1212.7777777777778" y="581.2222222222223"/>
      <point x="1199.888888888889" y="678.6666666666667"/>
      <point x="1171.4444444444446" y="768.1111111111111" type="curve"/>
      <point x="1086.6666666666667" y="768.1111111111111" type="line"/>
      <point x="1116.0555555555557" y="678.6666666666667"/>
      <point x="1131.8333333333333" y="579.2222222222223"/>
      <point x="1131.8333333333333" y="491.0555555555556" type="curve" smooth="yes"/>
      <point x="1131.8333333333333" y="195.27777777777783"/>
      <point x="963.8888888888889" y="60.888888888888935"/>
      <point x="675.7222222222223" y="60.888888888888935" type="curve" smooth="yes"/>
      <point x="377.2777777777778" y="60.888888888888935"/>
      <point x="244.6666666666667" y="203.16666666666669"/>
      <point x="244.6666666666667" y="410.55555555555554" type="curve" smooth="yes"/>
      <point x="244.6666666666667" y="566.9444444444445"/>
      <point x="319.2777777777778" y="683.2777777777777"/>
      <point x="475.0" y="755.7222222222222" type="curve"/>
      <point x="426.8333333333333" y="818.1111111111111" type="line"/>
      <point x="250.0" y="735.2777777777778"/>
      <point x="152.88888888888889" y="590.6666666666666"/>
      <point x="152.88888888888889" y="402.22222222222223" type="curve" smooth="yes"/>
      <point x="152.88888888888889" y="153.66666666666666"/>
      <point x="327.0" y="-18.0"/>
    </contour>
  </outline>
</glyph>
<glyph name="quotesingle" format="2">
  <advance width="393.11111111111114"/>
  <unicode hex="0027"/>
  <outline>
    <contour>
      <point x="170.44444444444443" y="947.2222222222222" type="line"/>
      <point x="222.66666666666669" y="947.2222222222222" type="line"/>
      <point x="245.83333333333337" y="1616.0" type="line"/>
      <point x="147.27777777777777" y="1616.0" type="line"/>
    </contour>
  </outline>
</glyph>
<glyph name="parenleft" format="2">
  <advance width="633.1111111111111"/>
  <unicode hex="0028"/>
  <outline>
    <contour>
      <point x="476.38888888888886" y="-440.0" type="curve"/>
      <point x="575.5" y="-440.0" type="line"/>
      <point x="329.4444444444445" y="-128.61111111111111"/>
      <point x="227.4444444444445" y="216.16666666666666"/>
      <point x="227.4444444444445" y="588.0" type="curve" smooth="yes"/>
      <point x="227.4444444444445" y="959.8333333333334"/>
      <point x="329.4444444444445" y="1304.611111111111"/>
      <point x="575.5" y="1616.0" type="curve"/>
      <point x="476.38888888888886" y="1616.0" type="line"/>
      <point x="238.94444444444443" y="1315.9444444444443"/>
      <point x="135.27777777777777" y="965.7222222222222"/>
      <point x="135.27777777777777" y="588.0" type="curve" smooth="yes"/>
      <point x="135.27777777777777" y="210.27777777777777"/>
      <point x="238.94444444444443" y="-139.94444444444446"/>
    </contour>
  </outline>
</glyph>
<glyph name="parenright" format="2">
  <advance width="633.1111111111111"/>
  <unicode hex="0029"/>
  <outline>
    <contour>
      <point x="57.61111111111107" y="-440.0" type="curve"/>
      <point x="156.72222222222226" y="-440.0" type="line"/>
      <point x="394.1666666666667" y="-139.94444444444446"/>
      <point x="497.83333333333337" y="210.27777777777777"/>
      <point x="497.83333333333337" y="588.0" type="curve" smooth="yes"/>
      <point x="497.83333333333337" y="965.7222222222222"/>
      <point x="394.1666666666667" y="1315.9444444444443"/>
      <point x="156.72222222222226" y="1616.0" type="curve"/>
      <point x="57.61111111111107" y="1616.0" type="line"/>
      <point x="303.66666666666663" y="1304.611111111111"/>
      <point x="405.66666666666663" y="959.8333333333334"/>
      <point x="405.66666666666663" y="588.0" type="curve" smooth="yes"/>
      <point x="405.66666666666663" y="216.16666666666666"/>
      <point x="303.66666666666663" y="-128.61111111111111"/>
    </contour>
  </outline>
</glyph>
<glyph name="asterisk" format="2">
  <advance width="878.8888888888889"/>
  <unicode hex="002A"/>
  <outline>
    <contour>
      <point x="472.7777777777778" y="1202.5" type="line"/>
      <point x="669.9444444444445" y="1248.7222222222222" type="line"/>
      <point x="848.8888888888889" y="1306.388888888889" type="line"/>
      <point x="825.2777777777778" y="1377.5555555555557" type="line"/>
      <point x="648.2222222222223" y="1319.8333333333333" type="line"/>
      <point x="459.72222222222223" y="1240.611111111111" type="line"/>
      <point x="477.2777777777778" y="1443.6666666666667" type="line"/>
      <point x="477.2777777777778" y="1616.0" type="line"/>
      <point x="401.6111111111111" y="1616.0" type="line"/>
      <point x="401.6111111111111" y="1443.6666666666667" type="line"/>
      <point x="419.1666666666667" y="1240.611111111111" type="line"/>
      <point x="230.66666666666669" y="1319.8333333333333" type="line"/>
      <point x="53.61111111111112" y="1377.5555555555557" type="line"/>
      <point x="30.0" y="1306.388888888889" type="line"/>
      <point x="208.94444444444443" y="1248.7222222222222" type="line"/>
      <point x="406.1111111111111" y="1202.5" type="line"/>
      <point x="273.55555555555554" y="1048.388888888889" type="line"/>
      <point x="167.72222222222223" y="904.7777777777778" type="line"/>
      <point x="229.16666666666669" y="859.9444444444445" type="line"/>
      <point x="335.0" y="1003.5" type="line"/>
      <point x="439.44444444444446" y="1178.2777777777778" type="line"/>
      <point x="543.8888888888889" y="1003.5" type="line"/>
      <point x="649.7222222222223" y="859.9444444444445" type="line"/>
      <point x="711.1666666666667" y="904.7777777777778" type="line"/>
      <point x="605.3333333333334" y="1048.388888888889" type="line"/>
    </contour>
  </outline>
</glyph>
<glyph name="plus" format="2">
  <advance width="1065.0"/>
  <unicode hex="002B"/>
  <outline>
    <contour>
      <point x="491.1111111111111" y="373.3333333333333" type="line"/>
      <point x="573.8888888888889" y="373.3333333333333" type="line"/>
      <point x="573.8888888888889" y="720.8888888888889" type="line"/>
      <point x="901.9444444444445" y="720.8888888888889" type="line"/>
      <point x="901.9444444444445" y="799.1111111111111" type="line"/>
      <point x="573.8888888888889" y="799.1111111111111" type="line"/>
      <point x="573.8888888888889" y="1146.6666666666667" type="line"/>
      <point x="491.1111111111111" y="1146.6666666666667" type="line"/>
      <point x="491.1111111111111" y="799.1111111111111" type="line"/>
      <point x="163.05555555555554" y="799.1111111111111" type="line"/>
      <point x="163.05555555555554" y="720.8888888888889" type="line"/>
      <point x="491.1111111111111" y="720.8888888888889" type="line"/>
    </contour>
  </outline>
</glyph>
<glyph name="comma" format="2">
  <advance width="417.8888888888889"/>
  <unicode hex="002C"/>
  <outline>
    <contour>
      <point x="152.38888888888889" y="-303.33333333333337" type="curve"/>
      <point x="207.27777777777783" y="-303.33333333333337" type="line"/>
      <point x="249.72222222222229" y="-206.66666666666666"/>
      <point x="282.2777777777778" y="-88.22222222222221"/>
      <point x="282.2777777777778" y="38.83333333333336" type="curve" smooth="yes"/>
      <point x="282.2777777777778" y="107.38888888888894"/>
      <point x="252.50000000000006" y="136.11111111111117"/>
      <point x="206.72222222222223" y="136.11111111111117" type="curve" smooth="yes"/>
      <point x="163.77777777777777" y="136.11111111111117"/>
      <point x="135.49999999999997" y="106.4444444444445"/>
      <point x="135.49999999999997" y="63.72222222222226" type="curve" smooth="yes"/>
      <point x="135.49999999999997" y="19.27777777777779"/>
      <point x="166.0" y="-10.555555555555557"/>
      <point x="208.94444444444446" y="-10.555555555555557" type="curve" smooth="yes"/>
      <point x="223.16666666666669" y="-10.555555555555557" type="line"/>
      <point x="214.0" y="14.22222222222223" type="line"/>
      <point x="214.0" y="-89.55555555555556"/>
      <point x="190.72222222222223" y="-187.11111111111111"/>
    </contour>
  </outline>
</glyph>
<glyph name="period" format="2">
  <advance width="417.8888888888889"/>
  <unicode hex="002E"/>
  <outline>
    <contour>
      <point x="208.94444444444446" y="-10.555555555555557" type="curve" smooth="yes"/>
      <point x="252.00000000000006" y="-10.555555555555557"/>
      <point x="282.38888888888897" y="17.611111111111125"/>
      <point x="282.38888888888897" y="61.83333333333337" type="curve" smooth="yes"/>
      <point x="282.38888888888897" y="106.05555555555561"/>
      <point x="252.22222222222226" y="136.11111111111117"/>
      <point x="208.94444444444446" y="136.11111111111117" type="curve" smooth="yes"/>
      <point x="165.66666666666666" y="136.11111111111117"/>
      <point x="135.49999999999997" y="106.27777777777783"/>
      <point x="135.49999999999997" y="61.83333333333337" type="curve" smooth="yes"/>
      <point x="135.49999999999997" y="17.3888888888889"/>
      <point x="165.88888888888889" y="-10.555555555555557"/>
    </contour>
  </outline>
</glyph>
<glyph name="slash" format="2">
  <advance width="538.4444444444446"/>
  <unicode hex="002F"/>
  <outline>
    <contour>
      <point x="0.0" y="-240.0" type="line"/>
      <point x="88.38888888888896" y="-240.0" type="line"/>
      <point x="538.4444444444446" y="1616.0" type="line"/>
      <point x="450.05555555555554" y="1616.0" type="line"/>
    </contour>
  </outline>
</glyph>
<glyph name="zero" format="2">
  <advance width="1209.0555555555557"/>
  <unicode hex="0030"/>
  <note>
600
</note>
  <outline>
    <contour>
      <point x="604.5" y="-18.11111111111111" type="curve" smooth="yes"/>
      <point x="895.2222222222223" y="-18.11111111111111"/>
      <point x="1083.7777777777778" y="180.55555555555557"/>
      <point x="1083.7777777777778" y="740.0" type="curve" smooth="yes"/>
      <point x="1083.7777777777778" y="1299.4444444444443"/>
      <point x="899.0" y="1498.111111111111"/>
      <point x="604.5" y="1498.111111111111" type="curve" smooth="yes"/>
      <point x="310.0" y="1498.111111111111"/>
      <point x="125.27777777777777" y="1299.4444444444443"/>
      <point x="125.27777777777777" y="740.0" type="curve" smooth="yes"/>
      <point x="125.27777777777777" y="180.55555555555557"/>
      <point x="313.77777777777777" y="-18.11111111111111"/>
    </contour>
    <contour>
      <point x="604.5555555555555" y="63.72222222222228" type="curve" smooth="yes"/>
      <point x="370.6666666666667" y="63.72222222222228"/>
      <point x="216.8333333333334" y="218.33333333333337"/>
      <point x="216.8333333333334" y="743.7777777777778" type="curve" smooth="yes"/>
      <point x="216.8333333333334" y="1261.6666666666665"/>
      <point x="370.7777777777778" y="1416.2777777777778"/>
      <point x="604.5555555555555" y="1416.2777777777778" type="curve" smooth="yes"/>
      <point x="838.2777777777778" y="1416.2777777777778"/>
      <point x="992.2222222222222" y="1261.6666666666665"/>
      <point x="992.2222222222222" y="736.2222222222222" type="curve" smooth="yes"/>
      <point x="992.2222222222222" y="218.33333333333337"/>
      <point x="838.2777777777778" y="63.72222222222228"/>
    </contour>
  </outline>
</glyph>
<glyph name="one" format="2">
  <advance width="685.5"/>
  <unicode hex="0031"/>
  <outline>
    <contour>
      <point x="401.66666666666663" y="0.0" type="line"/>
      <point x="490.00000000000006" y="0.0" type="line"/>
      <point x="490.00000000000006" y="1484.111111111111" type="line"/>
      <point x="434.7777777777778" y="1484.111111111111" type="line"/>
      <point x="23.333333333333336" y="1182.1666666666667" type="line"/>
      <point x="23.333333333333336" y="1087.2222222222222" type="line"/>
      <point x="434.7777777777778" y="1387.2777777777778" type="line"/>
      <point x="401.66666666666663" y="1393.2222222222222" type="line"/>
    </contour>
  </outline>
</glyph>
<glyph name="two" format="2">
  <advance width="946.8888888888889"/>
  <unicode hex="0032"/>
  <outline>
    <contour>
      <point x="65.5" y="0.0" type="line"/>
      <point x="878.2222222222223" y="0.0" type="line"/>
      <point x="878.2222222222223" y="80.16666666666671" type="line"/>
      <point x="151.3333333333334" y="80.16666666666671" type="line"/>
      <point x="166.72222222222229" y="51.5555555555556" type="line"/>
      <point x="563.9444444444445" y="590.7777777777778" type="line" smooth="yes"/>
      <point x="735.7777777777778" y="821.4444444444445"/>
      <point x="793.3888888888889" y="956.9444444444445"/>
      <point x="794.3333333333334" y="1118.888888888889" type="curve" smooth="yes"/>
      <point x="796.2222222222223" y="1382.7777777777778"/>
      <point x="638.3333333333334" y="1498.111111111111"/>
      <point x="369.94444444444446" y="1498.111111111111" type="curve" smooth="yes"/>
      <point x="250.61111111111111" y="1498.111111111111"/>
      <point x="132.83333333333331" y="1476.888888888889"/>
      <point x="48.388888888888886" y="1441.2222222222222" type="curve"/>
      <point x="48.388888888888886" y="1357.7222222222222" type="line"/>
      <point x="147.72222222222223" y="1397.3333333333333"/>
      <point x="251.11111111111111" y="1416.611111111111"/>
      <point x="367.22222222222223" y="1416.611111111111" type="curve" smooth="yes"/>
      <point x="587.7222222222222" y="1416.611111111111"/>
      <point x="704.5" y="1330.611111111111"/>
      <point x="704.5" y="1114.5555555555554" type="curve" smooth="yes"/>
      <point x="704.5" y="976.1111111111111"/>
      <point x="648.3888888888889" y="844.8333333333334"/>
      <point x="495.66666666666663" y="638.8888888888889" type="curve" smooth="yes"/>
      <point x="65.5" y="50.61111111111114" type="line"/>
    </contour>
  </outline>
</glyph>
<glyph name="three" format="2">
  <advance width="978.3333333333334"/>
  <unicode hex="0033"/>
  <outline>
    <contour>
      <point x="400.3888888888889" y="-18.11111111111111" type="curve" smooth="yes"/>
      <point x="729.6111111111111" y="-18.11111111111111"/>
      <point x="901.7222222222223" y="133.72222222222223"/>
      <point x="901.7222222222223" y="394.44444444444446" type="curve" smooth="yes"/>
      <point x="901.7222222222223" y="612.3333333333334"/>
      <point x="766.0" y="750.1111111111111"/>
      <point x="512.3333333333334" y="781.2222222222222" type="curve"/>
      <point x="511.3888888888889" y="756.0" type="line"/>
      <point x="723.5" y="798.6666666666666"/>
      <point x="852.7777777777778" y="935.9444444444445"/>
      <point x="852.7777777777778" y="1132.4444444444443" type="curve" smooth="yes"/>
      <point x="852.7777777777778" y="1364.2222222222222"/>
      <point x="697.5555555555555" y="1498.111111111111"/>
      <point x="417.72222222222223" y="1498.111111111111" type="curve" smooth="yes"/>
      <point x="303.72222222222223" y="1498.111111111111"/>
      <point x="187.1111111111111" y="1478.888888888889"/>
      <point x="94.77777777777777" y="1444.0555555555557" type="curve"/>
      <point x="94.77777777777777" y="1362.2222222222222" type="line"/>
      <point x="200.33333333333331" y="1400.9444444444443"/>
      <point x="304.8888888888889" y="1418.1666666666665"/>
      <point x="414.94444444444446" y="1418.1666666666665" type="curve" smooth="yes"/>
      <point x="642.1666666666666" y="1418.1666666666665"/>
      <point x="763.7222222222222" y="1317.3333333333333"/>
      <point x="763.7222222222222" y="1130.1666666666667" type="curve" smooth="yes"/>
      <point x="763.7222222222222" y="917.8888888888889"/>
      <point x="607.6666666666666" y="800.7777777777778"/>
      <point x="318.27777777777777" y="800.7777777777778" type="curve" smooth="yes"/>
      <point x="254.33333333333331" y="800.7777777777778" type="line"/>
      <point x="254.33333333333331" y="720.5555555555555" type="line"/>
      <point x="413.27777777777777" y="720.5555555555555" type="line" smooth="yes"/>
      <point x="685.7777777777777" y="720.5555555555555"/>
      <point x="813.0555555555555" y="598.7777777777777"/>
      <point x="813.0555555555555" y="396.0" type="curve" smooth="yes"/>
      <point x="813.0555555555555" y="178.0555555555556"/>
      <point x="672.2222222222222" y="61.83333333333338"/>
      <point x="400.27777777777777" y="61.83333333333338" type="curve" smooth="yes"/>
      <point x="291.3888888888889" y="61.83333333333338"/>
      <point x="170.77777777777777" y="81.83333333333339"/>
      <point x="55.888888888888886" y="122.11111111111116" type="curve"/>
      <point x="55.888888888888886" y="40.27777777777777" type="line"/>
      <point x="161.77777777777777" y="1.7777777777777772"/>
      <point x="282.6666666666667" y="-18.11111111111111"/>
    </contour>
  </outline>
</glyph>
<glyph name="four" format="2">
  <advance width="1139.4444444444446"/>
  <unicode hex="0034"/>
  <outline>
    <contour>
      <point x="52.666666666666664" y="377.7222222222222" type="line"/>
      <point x="1094.5" y="377.7222222222222" type="line"/>
      <point x="1094.5" y="456.5" type="line"/>
      <point x="128.38888888888894" y="456.5" type="line"/>
      <point x="145.9444444444445" y="426.6666666666667" type="line"/>
      <point x="748.0555555555555" y="1480.0" type="line"/>
      <point x="653.3888888888889" y="1480.0" type="line"/>
      <point x="52.666666666666664" y="428.55555555555554" type="line"/>
    </contour>
    <contour>
      <point x="791.1111111111111" y="0.0" type="line"/>
      <point x="876.7777777777778" y="0.0" type="line"/>
      <point x="876.7777777777778" y="980.0" type="line"/>
      <point x="806.5555555555555" y="980.0" type="line"/>
      <point x="791.1111111111111" y="456.5" type="line"/>
    </contour>
  </outline>
</glyph>
<glyph name="five" format="2">
  <advance width="987.6111111111111"/>
  <unicode hex="0035"/>
  <outline>
    <contour>
      <point x="427.3888888888889" y="-18.11111111111111" type="curve" smooth="yes"/>
      <point x="754.1111111111111" y="-18.11111111111111"/>
      <point x="927.6111111111112" y="130.88888888888889"/>
      <point x="927.6666666666667" y="407.8888888888889" type="curve" smooth="yes"/>
      <point x="927.7222222222223" y="673.3888888888889"/>
      <point x="756.0555555555555" y="808.4444444444445"/>
      <point x="351.2777777777778" y="832.5555555555555" type="curve" smooth="yes"/>
      <point x="166.05555555555557" y="843.5" type="line"/>
      <point x="229.00000000000006" y="792.1111111111111" type="line"/>
      <point x="273.50000000000006" y="1434.4444444444443" type="line"/>
      <point x="230.11111111111114" y="1401.2777777777778" type="line"/>
      <point x="865.8333333333334" y="1401.2777777777778" type="line"/>
      <point x="865.8333333333334" y="1480.0" type="line"/>
      <point x="190.05555555555554" y="1480.0" type="line"/>
      <point x="140.88888888888889" y="763.8333333333333" type="line"/>
      <point x="326.1111111111111" y="752.8888888888889" type="line" smooth="yes"/>
      <point x="700.2222222222222" y="731.0"/>
      <point x="838.9444444444445" y="627.1666666666666"/>
      <point x="838.9444444444445" y="406.3888888888889" type="curve" smooth="yes"/>
      <point x="838.9444444444445" y="177.33333333333337"/>
      <point x="700.9444444444445" y="62.0555555555556"/>
      <point x="428.22222222222223" y="62.0555555555556" type="curve" smooth="yes"/>
      <point x="314.6111111111111" y="62.0555555555556"/>
      <point x="194.0" y="83.0555555555556"/>
      <point x="81.94444444444444" y="122.44444444444449" type="curve"/>
      <point x="81.94444444444444" y="40.61111111111111" type="line"/>
      <point x="185.0" y="2.8888888888888884"/>
      <point x="307.77777777777777" y="-18.11111111111111"/>
    </contour>
  </outline>
</glyph>
<glyph name="six" format="2">
  <advance width="1105.4444444444446"/>
  <unicode hex="0036"/>
  <outline>
    <contour>
      <point x="623.0" y="-18.11111111111111" type="curve" smooth="yes"/>
      <point x="862.5" y="-18.11111111111111"/>
      <point x="1042.2777777777778" y="121.72222222222223"/>
      <point x="1042.2777777777778" y="408.11111111111114" type="curve" smooth="yes"/>
      <point x="1042.2777777777778" y="694.0555555555555"/>
      <point x="860.5" y="832.8888888888889"/>
      <point x="593.2222222222223" y="832.8888888888889" type="curve" smooth="yes"/>
      <point x="441.33333333333337" y="832.8888888888889"/>
      <point x="288.33333333333337" y="777.6111111111111"/>
      <point x="201.22222222222229" y="686.6111111111111" type="curve"/>
      <point x="201.22222222222229" y="592.2777777777777" type="line"/>
      <point x="292.9444444444445" y="707.5555555555555"/>
      <point x="454.7222222222223" y="753.6666666666666"/>
      <point x="584.5" y="753.6666666666666" type="curve" smooth="yes"/>
      <point x="808.8888888888889" y="753.6666666666666"/>
      <point x="954.5555555555555" y="647.9444444444445"/>
      <point x="954.5555555555555" y="404.61111111111114" type="curve" smooth="yes"/>
      <point x="954.5555555555555" y="163.33333333333337"/>
      <point x="811.9444444444445" y="61.22222222222227"/>
      <point x="624.0555555555555" y="61.22222222222227" type="curve" smooth="yes"/>
      <point x="383.83333333333337" y="61.22222222222227"/>
      <point x="225.61111111111117" y="210.50000000000003"/>
      <point x="225.61111111111117" y="688.1111111111111" type="curve" smooth="yes"/>
      <point x="225.61111111111117" y="709.7777777777778" type="line" smooth="yes"/>
      <point x="225.61111111111117" y="1213.388888888889"/>
      <point x="397.4444444444445" y="1417.7222222222222"/>
      <point x="722.6111111111112" y="1417.7222222222222" type="curve" smooth="yes"/>
      <point x="806.0" y="1417.7222222222222"/>
      <point x="901.2777777777778" y="1404.611111111111"/>
      <point x="977.3333333333334" y="1372.6666666666665" type="curve"/>
      <point x="977.3333333333334" y="1454.9444444444443" type="line"/>
      <point x="902.2777777777778" y="1486.111111111111"/>
      <point x="809.3333333333334" y="1498.111111111111"/>
      <point x="722.2777777777778" y="1498.111111111111" type="curve" smooth="yes"/>
      <point x="343.55555555555554" y="1498.111111111111"/>
      <point x="136.16666666666666" y="1256.3333333333333"/>
      <point x="136.16666666666666" y="692.0" type="curve" smooth="yes"/>
      <point x="136.16666666666666" y="165.88888888888889"/>
      <point x="332.3888888888889" y="-18.11111111111111"/>
    </contour>
  </outline>
</glyph>
<glyph name="seven" format="2">
  <advance width="902.3333333333334"/>
  <unicode hex="0037"/>
  <outline>
    <contour>
      <point x="177.94444444444443" y="0.0" type="line"/>
      <point x="271.5555555555556" y="0.0" type="line"/>
      <point x="843.4444444444445" y="1429.388888888889" type="line"/>
      <point x="843.4444444444445" y="1480.0" type="line"/>
      <point x="11.944444444444445" y="1480.0" type="line"/>
      <point x="11.944444444444445" y="1399.8333333333333" type="line"/>
      <point x="774.0" y="1399.8333333333333" type="line"/>
      <point x="753.5555555555555" y="1431.2777777777778" type="line"/>
    </contour>
  </outline>
</glyph>
<glyph name="eight" format="2">
  <advance width="1209.0555555555557"/>
  <unicode hex="0038"/>
  <outline>
    <contour>
      <point x="615.0" y="-18.11111111111111" type="curve" smooth="yes"/>
      <point x="923.7222222222223" y="-18.11111111111111"/>
      <point x="1101.1666666666667" y="134.33333333333334"/>
      <point x="1101.1666666666667" y="370.05555555555554" type="curve" smooth="yes"/>
      <point x="1101.1666666666667" y="581.3888888888889"/>
      <point x="975.0555555555557" y="701.5555555555555"/>
      <point x="641.8888888888889" y="780.3888888888889" type="curve" smooth="yes"/>
      <point x="343.3888888888889" y="849.8333333333334"/>
      <point x="248.4444444444445" y="946.5555555555555"/>
      <point x="248.4444444444445" y="1126.7222222222222" type="curve" smooth="yes"/>
      <point x="248.4444444444445" y="1307.9444444444443"/>
      <point x="369.83333333333337" y="1419.611111111111"/>
      <point x="600.1111111111111" y="1419.611111111111" type="curve" smooth="yes"/>
      <point x="829.4444444444445" y="1419.611111111111"/>
      <point x="965.2222222222222" y="1315.9444444444443"/>
      <point x="965.2222222222222" y="1122.5" type="curve" smooth="yes"/>
      <point x="965.2222222222222" y="948.9444444444445"/>
      <point x="878.6111111111111" y="846.0"/>
      <point x="677.3333333333334" y="764.0" type="curve"/>
      <point x="755.3333333333334" y="728.9444444444445" type="line"/>
      <point x="945.1111111111112" y="804.5"/>
      <point x="1050.0" y="939.5"/>
      <point x="1050.0" y="1125.888888888889" type="curve" smooth="yes"/>
      <point x="1050.0" y="1356.111111111111"/>
      <point x="880.8333333333334" y="1498.111111111111"/>
      <point x="601.3333333333334" y="1498.111111111111" type="curve" smooth="yes"/>
      <point x="325.0" y="1498.111111111111"/>
      <point x="157.88888888888889" y="1354.1666666666667"/>
      <point x="157.88888888888889" y="1123.9444444444443" type="curve" smooth="yes"/>
      <point x="157.88888888888889" y="907.2222222222222"/>
      <point x="285.5" y="779.0"/>
      <point x="619.5" y="700.7777777777777" type="curve" smooth="yes"/>
      <point x="909.5" y="632.0"/>
      <point x="1010.9444444444445" y="546.3333333333334"/>
      <point x="1010.9444444444445" y="364.0" type="curve" smooth="yes"/>
      <point x="1010.9444444444445" y="169.83333333333337"/>
      <point x="868.6111111111111" y="60.38888888888893"/>
      <point x="616.0" y="60.38888888888893" type="curve" smooth="yes"/>
      <point x="339.83333333333337" y="60.38888888888893"/>
      <point x="197.0555555555556" y="172.0555555555556"/>
      <point x="197.0555555555556" y="376.5" type="curve" smooth="yes"/>
      <point x="197.0555555555556" y="553.5555555555555"/>
      <point x="308.5555555555556" y="689.7222222222222"/>
      <point x="508.8888888888889" y="746.1666666666666" type="curve"/>
      <point x="426.77777777777777" y="782.9444444444445" type="line"/>
      <point x="229.0" y="716.8888888888889"/>
      <point x="107.66666666666666" y="569.7777777777777"/>
      <point x="107.66666666666666" y="371.77777777777777" type="curve" smooth="yes"/>
      <point x="107.66666666666666" y="122.5"/>
      <point x="288.0" y="-18.11111111111111"/>
    </contour>
  </outline>
</glyph>
<glyph name="nine" format="2">
  <advance width="1105.4444444444446"/>
  <unicode hex="0039"/>
  <outline>
    <contour>
      <point x="482.44444444444446" y="1498.111111111111" type="curve" smooth="yes"/>
      <point x="242.94444444444446" y="1498.111111111111"/>
      <point x="63.166666666666664" y="1358.2777777777778"/>
      <point x="63.166666666666664" y="1071.888888888889" type="curve" smooth="yes"/>
      <point x="63.166666666666664" y="785.9444444444445"/>
      <point x="244.94444444444446" y="647.1111111111111"/>
      <point x="512.2222222222222" y="647.1111111111111" type="curve" smooth="yes"/>
      <point x="664.1111111111111" y="647.1111111111111"/>
      <point x="817.1111111111111" y="702.3888888888889"/>
      <point x="904.2222222222222" y="793.3888888888889" type="curve"/>
      <point x="904.2222222222222" y="887.7222222222223" type="line"/>
      <point x="812.5" y="772.4444444444445"/>
      <point x="650.7222222222223" y="726.3333333333334"/>
      <point x="520.9444444444445" y="726.3333333333334" type="curve" smooth="yes"/>
      <point x="296.5555555555556" y="726.3333333333334"/>
      <point x="150.88888888888894" y="832.0555555555555"/>
      <point x="150.88888888888894" y="1075.388888888889" type="curve" smooth="yes"/>
      <point x="150.88888888888894" y="1316.6666666666667"/>
      <point x="293.50000000000006" y="1418.7777777777778"/>
      <point x="481.3888888888889" y="1418.7777777777778" type="curve" smooth="yes"/>
      <point x="721.6111111111111" y="1418.7777777777778"/>
      <point x="879.8333333333333" y="1269.5"/>
      <point x="879.8333333333333" y="791.8888888888889" type="curve" smooth="yes"/>
      <point x="879.8333333333333" y="770.2222222222222" type="line" smooth="yes"/>
      <point x="879.8333333333333" y="266.61111111111114"/>
      <point x="708.0" y="62.27777777777783"/>
      <point x="382.83333333333337" y="62.27777777777783" type="curve" smooth="yes"/>
      <point x="299.44444444444446" y="62.27777777777783"/>
      <point x="204.16666666666669" y="75.38888888888894"/>
      <point x="128.11111111111111" y="107.33333333333339" type="curve"/>
      <point x="128.11111111111111" y="25.055555555555557" type="line"/>
      <point x="203.16666666666669" y="-6.111111111111112"/>
      <point x="296.11111111111114" y="-18.11111111111111"/>
      <point x="383.1666666666667" y="-18.11111111111111" type="curve" smooth="yes"/>
      <point x="761.8888888888889" y="-18.11111111111111"/>
      <point x="969.2777777777778" y="223.66666666666669"/>
      <point x="969.2777777777778" y="788.0" type="curve" smooth="yes"/>
      <point x="969.2777777777778" y="1314.111111111111"/>
      <point x="773.0555555555555" y="1498.111111111111"/>
    </contour>
  </outline>
</glyph>
<glyph name="colon" format="2">
  <advance width="417.8888888888889"/>
  <unicode hex="003A"/>
  <outline>
    <contour>
      <point x="208.94444444444446" y="-10.555555555555557" type="curve" smooth="yes"/>
      <point x="252.00000000000006" y="-10.555555555555557"/>
      <point x="282.38888888888897" y="17.611111111111125"/>
      <point x="282.38888888888897" y="61.83333333333337" type="curve" smooth="yes"/>
      <point x="282.38888888888897" y="106.05555555555561"/>
      <point x="252.22222222222226" y="136.11111111111117"/>
      <point x="208.94444444444446" y="136.11111111111117" type="curve" smooth="yes"/>
      <point x="165.66666666666666" y="136.11111111111117"/>
      <point x="135.49999999999997" y="106.27777777777783"/>
      <point x="135.49999999999997" y="61.83333333333337" type="curve" smooth="yes"/>
      <point x="135.49999999999997" y="17.3888888888889"/>
      <point x="165.88888888888889" y="-10.555555555555557"/>
    </contour>
    <contour>
      <point x="208.94444444444446" y="944.9999999999999" type="curve" smooth="yes"/>
      <point x="252.00000000000006" y="944.9999999999999"/>
      <point x="282.38888888888897" y="973.1666666666666"/>
      <point x="282.38888888888897" y="1017.3888888888889" type="curve" smooth="yes"/>
      <point x="282.38888888888897" y="1061.611111111111"/>
      <point x="252.22222222222226" y="1091.6666666666667"/>
      <point x="208.94444444444446" y="1091.6666666666667" type="curve" smooth="yes"/>
      <point x="165.66666666666666" y="1091.6666666666667"/>
      <point x="135.49999999999997" y="1061.8333333333333"/>
      <point x="135.49999999999997" y="1017.3888888888889" type="curve" smooth="yes"/>
      <point x="135.49999999999997" y="972.9444444444443"/>
      <point x="165.88888888888889" y="944.9999999999999"/>
    </contour>
  </outline>
</glyph>
<glyph name="semicolon" format="2">
  <advance width="417.8888888888889"/>
  <unicode hex="003B"/>
  <outline>
    <contour>
      <point x="152.38888888888889" y="-303.33333333333337" type="curve"/>
      <point x="207.27777777777783" y="-303.33333333333337" type="line"/>
      <point x="249.72222222222229" y="-206.66666666666666"/>
      <point x="282.2777777777778" y="-88.22222222222221"/>
      <point x="282.2777777777778" y="38.83333333333336" type="curve" smooth="yes"/>
      <point x="282.2777777777778" y="107.38888888888894"/>
      <point x="252.50000000000006" y="136.11111111111117"/>
      <point x="206.72222222222223" y="136.11111111111117" type="curve" smooth="yes"/>
      <point x="163.77777777777777" y="136.11111111111117"/>
      <point x="135.49999999999997" y="106.4444444444445"/>
      <point x="135.49999999999997" y="63.72222222222226" type="curve" smooth="yes"/>
      <point x="135.49999999999997" y="19.27777777777779"/>
      <point x="166.0" y="-10.555555555555557"/>
      <point x="208.94444444444446" y="-10.555555555555557" type="curve" smooth="yes"/>
      <point x="223.16666666666669" y="-10.555555555555557" type="line"/>
      <point x="214.0" y="14.22222222222223" type="line"/>
      <point x="214.0" y="-89.55555555555556"/>
      <point x="190.72222222222223" y="-187.11111111111111"/>
    </contour>
    <contour>
      <point x="208.94444444444446" y="944.9999999999999" type="curve" smooth="yes"/>
      <point x="252.00000000000006" y="944.9999999999999"/>
      <point x="282.38888888888897" y="973.1666666666666"/>
      <point x="282.38888888888897" y="1017.3888888888889" type="curve" smooth="yes"/>
      <point x="282.38888888888897" y="1061.611111111111"/>
      <point x="252.22222222222226" y="1091.6666666666667"/>
      <point x="208.94444444444446" y="1091.6666666666667" type="curve" smooth="yes"/>
      <point x="165.66666666666666" y="1091.6666666666667"/>
      <point x="135.49999999999997" y="1061.8333333333333"/>
      <point x="135.49999999999997" y="1017.3888888888889" type="curve" smooth="yes"/>
      <point x="135.49999999999997" y="972.9444444444443"/>
      <point x="165.88888888888889" y="944.9999999999999"/>
    </contour>
  </outline>
</glyph>
<glyph name="less" format="2">
  <advance width="1065.0"/>
  <unicode hex="003C"/>
  <outline>
    <contour>
      <point x="901.9444444444445" y="395.99999999999994" type="line"/>
      <point x="901.9444444444445" y="481.77777777777777" type="line"/>
      <point x="236.11111111111114" y="772.6111111111111" type="line"/>
      <point x="236.11111111111114" y="747.6666666666666" type="line"/>
      <point x="901.9444444444445" y="1038.2222222222222" type="line"/>
      <point x="901.9444444444445" y="1124.0" type="line"/>
      <point x="163.05555555555554" y="795.8888888888889" type="line"/>
      <point x="163.05555555555554" y="724.1111111111111" type="line"/>
    </contour>
  </outline>
</glyph>
<glyph name="equal" format="2">
  <advance width="1065.0"/>
  <unicode hex="003D"/>
  <outline>
    <contour>
      <point x="163.05555555555554" y="906.1111111111111" type="line"/>
      <point x="901.9444444444445" y="906.1111111111111" type="line"/>
      <point x="901.9444444444445" y="984.3333333333334" type="line"/>
      <point x="163.05555555555554" y="984.3333333333334" type="line"/>
    </contour>
    <contour>
      <point x="163.05555555555554" y="535.6666666666666" type="line"/>
      <point x="901.9444444444445" y="535.6666666666666" type="line"/>
      <point x="901.9444444444445" y="613.8888888888889" type="line"/>
      <point x="163.05555555555554" y="613.8888888888889" type="line"/>
    </contour>
  </outline>
</glyph>
<glyph name="greater" format="2">
  <advance width="1065.0"/>
  <unicode hex="003E"/>
  <outline>
    <contour>
      <point x="163.05555555555554" y="395.99999999999994" type="line"/>
      <point x="901.9444444444445" y="724.1111111111111" type="line"/>
      <point x="901.9444444444445" y="795.8888888888889" type="line"/>
      <point x="163.05555555555554" y="1124.0" type="line"/>
      <point x="163.05555555555554" y="1038.2222222222222" type="line"/>
      <point x="828.8888888888889" y="747.6666666666666" type="line"/>
      <point x="828.8888888888889" y="772.6111111111111" type="line"/>
      <point x="163.05555555555554" y="481.77777777777777" type="line"/>
    </contour>
  </outline>
</glyph>
<glyph name="question" format="2">
  <advance width="863.9444444444445"/>
  <unicode hex="003F"/>
  <outline>
    <contour>
      <point x="358.8888888888889" y="312.8888888888889" type="line"/>
      <point x="418.50000000000006" y="312.8888888888889" type="line"/>
      <point x="429.5555555555556" y="684.4444444444445" type="line"/>
      <point x="707.6666666666667" y="796.3333333333334"/>
      <point x="801.0" y="921.8333333333334"/>
      <point x="801.0" y="1132.1666666666667" type="curve" smooth="yes"/>
      <point x="801.0" y="1364.2222222222222"/>
      <point x="645.7777777777778" y="1498.111111111111"/>
      <point x="365.94444444444446" y="1498.111111111111" type="curve" smooth="yes"/>
      <point x="251.94444444444446" y="1498.111111111111"/>
      <point x="135.33333333333334" y="1478.888888888889"/>
      <point x="43.0" y="1444.0555555555557" type="curve"/>
      <point x="43.0" y="1361.6666666666665" type="line"/>
      <point x="148.55555555555554" y="1400.388888888889"/>
      <point x="253.0" y="1417.611111111111"/>
      <point x="362.1111111111111" y="1417.611111111111" type="curve" smooth="yes"/>
      <point x="590.3888888888889" y="1417.611111111111"/>
      <point x="711.9444444444445" y="1316.9444444444443"/>
      <point x="711.9444444444445" y="1130.0555555555554" type="curve" smooth="yes"/>
      <point x="711.9444444444445" y="945.3333333333334"/>
      <point x="620.4444444444445" y="835.2777777777778"/>
      <point x="343.5" y="737.9444444444445" type="curve"/>
    </contour>
    <contour>
      <point x="388.72222222222223" y="-10.555555555555557" type="curve" smooth="yes"/>
      <point x="433.6666666666667" y="-10.555555555555557"/>
      <point x="462.16666666666674" y="19.27777777777779"/>
      <point x="462.16666666666674" y="61.11111111111114" type="curve" smooth="yes"/>
      <point x="462.16666666666674" y="104.83333333333339"/>
      <point x="432.00000000000006" y="134.66666666666674"/>
      <point x="388.72222222222223" y="134.66666666666674" type="curve" smooth="yes"/>
      <point x="345.44444444444446" y="134.66666666666674"/>
      <point x="315.27777777777777" y="105.0555555555556"/>
      <point x="315.27777777777777" y="61.11111111111114" type="curve" smooth="yes"/>
      <point x="315.27777777777777" y="19.055555555555564"/>
      <point x="345.66666666666663" y="-10.555555555555557"/>
    </contour>
  </outline>
</glyph>
<glyph name="at" format="2">
  <advance width="1836.8333333333335"/>
  <unicode hex="0040"/>
  <outline>
    <contour>
      <point x="965.8333333333334" y="-460.0" type="curve" smooth="yes"/>
      <point x="1097.9444444444446" y="-460.0"/>
      <point x="1227.888888888889" y="-438.22222222222223"/>
      <point x="1336.0" y="-404.1111111111111" type="curve"/>
      <point x="1336.0" y="-325.1111111111111" type="line"/>
      <point x="1207.9444444444446" y="-363.9444444444444"/>
      <point x="1093.2222222222222" y="-382.88888888888886"/>
      <point x="965.8333333333334" y="-382.88888888888886" type="curve" smooth="yes"/>
      <point x="463.3888888888889" y="-382.88888888888886"/>
      <point x="200.61111111111114" y="-129.49999999999997"/>
      <point x="200.61111111111114" y="523.7777777777778" type="curve" smooth="yes"/>
      <point x="200.61111111111114" y="1163.8333333333333"/>
      <point x="461.50000000000006" y="1420.888888888889"/>
      <point x="924.1111111111111" y="1420.888888888889" type="curve" smooth="yes"/>
      <point x="1385.8333333333335" y="1420.888888888889"/>
      <point x="1641.111111111111" y="1168.0555555555554"/>
      <point x="1641.3333333333335" y="555.4444444444445" type="curve" smooth="yes"/>
      <point x="1641.5" y="187.61111111111114"/>
      <point x="1532.7222222222222" y="59.000000000000036"/>
      <point x="1416.8333333333335" y="59.000000000000036" type="curve" smooth="yes"/>
      <point x="1326.2222222222224" y="59.000000000000036"/>
      <point x="1283.8333333333335" y="108.72222222222226"/>
      <point x="1283.8333333333335" y="232.55555555555557" type="curve" smooth="yes"/>
      <point x="1283.8333333333335" y="741.0" type="line" smooth="yes"/>
      <point x="1283.8333333333335" y="1009.6666666666666"/>
      <point x="1148.1666666666667" y="1096.111111111111"/>
      <point x="910.3333333333334" y="1096.111111111111" type="curve" smooth="yes"/>
      <point x="816.6666666666667" y="1096.111111111111"/>
      <point x="702.2222222222223" y="1078.9444444444443"/>
      <point x="617.5" y="1046.7222222222222" type="curve"/>
      <point x="617.3888888888889" y="965.1111111111111" type="line"/>
      <point x="720.7222222222222" y="1001.8888888888888"/>
      <point x="826.2777777777778" y="1016.1666666666666"/>
      <point x="905.8888888888889" y="1016.1666666666666" type="curve" smooth="yes"/>
      <point x="1091.7777777777778" y="1016.1666666666666"/>
      <point x="1196.611111111111" y="958.9444444444443"/>
      <point x="1196.611111111111" y="742.0555555555555" type="curve" smooth="yes"/>
      <point x="1196.611111111111" y="224.22222222222223" type="line"/>
      <point x="1109.111111111111" y="108.00000000000003"/>
      <point x="990.9444444444445" y="62.222222222222264"/>
      <point x="878.9444444444446" y="62.222222222222264" type="curve" smooth="yes"/>
      <point x="722.8888888888889" y="62.222222222222264"/>
      <point x="643.7222222222223" y="136.2777777777778"/>
      <point x="643.7222222222223" y="277.5" type="curve" smooth="yes"/>
      <point x="643.7222222222223" y="410.44444444444446"/>
      <point x="724.3333333333334" y="481.94444444444446"/>
      <point x="909.3333333333334" y="503.94444444444446" type="curve" smooth="yes"/>
      <point x="1239.2777777777778" y="543.2777777777777" type="line"/>
      <point x="1236.611111111111" y="617.6111111111111" type="line"/>
      <point x="907.8333333333334" y="578.2777777777778" type="line" smooth="yes"/>
      <point x="661.7222222222223" y="549.7222222222223"/>
      <point x="550.7222222222222" y="451.33333333333337"/>
      <point x="550.7222222222222" y="269.3333333333333" type="curve" smooth="yes"/>
      <point x="550.7222222222222" y="86.55555555555556"/>
      <point x="673.4444444444445" y="-16.333333333333336"/>
      <point x="867.9444444444445" y="-16.333333333333336" type="curve" smooth="yes"/>
      <point x="1000.1111111111111" y="-16.333333333333336"/>
      <point x="1121.5555555555557" y="36.666666666666664"/>
      <point x="1196.4444444444443" y="126.33333333333333" type="curve"/>
      <point x="1206.111111111111" y="126.33333333333333" type="line"/>
      <point x="1228.1666666666667" y="40.166666666666664"/>
      <point x="1294.388888888889" y="-16.333333333333336"/>
      <point x="1407.5555555555557" y="-16.333333333333336" type="curve" smooth="yes"/>
      <point x="1580.5555555555557" y="-16.333333333333336"/>
      <point x="1720.6111111111113" y="147.55555555555554"/>
      <point x="1721.5555555555557" y="561.5555555555555" type="curve" smooth="yes"/>
      <point x="1722.5" y="1200.611111111111"/>
      <point x="1436.7222222222222" y="1498.0"/>
      <point x="924.1111111111111" y="1498.0" type="curve" smooth="yes"/>
      <point x="411.55555555555554" y="1498.0"/>
      <point x="115.27777777777777" y="1200.611111111111"/>
      <point x="115.27777777777777" y="520.0" type="curve" smooth="yes"/>
      <point x="115.27777777777777" y="-166.27777777777777"/>
      <point x="414.3888888888889" y="-459.05555555555554"/>
    </contour>
  </outline>
</glyph>
<glyph name="B" format="2">
  <advance width="1225.2222222222222"/>
  <unicode hex="0042"/>
  <anchor x="628.5" y="0.0" name="bottom"/>
  <anchor x="628.5" y="1480.0" name="top"/>
  <outline>
    <contour>
      <point x="527.0" y="-10.555555555555557" type="curve" smooth="yes"/>
      <point x="970.7222222222223" y="-10.555555555555557"/>
      <point x="1143.6666666666667" y="129.77777777777777"/>
      <point x="1143.6666666666667" y="396.61111111111114" type="curve" smooth="yes"/>
      <point x="1143.6666666666667" y="599.0555555555555"/>
      <point x="1034.7222222222222" y="743.7777777777778"/>
      <point x="784.0555555555557" y="770.8333333333334" type="curve"/>
      <point x="781.2222222222223" y="756.0" type="line"/>
      <point x="1015.8333333333334" y="789.0555555555555"/>
      <point x="1100.8333333333335" y="933.8888888888889"/>
      <point x="1100.8333333333335" y="1108.111111111111" type="curve" smooth="yes"/>
      <point x="1100.8333333333335" y="1368.4444444444443"/>
      <point x="940.3333333333334" y="1494.3333333333333"/>
      <point x="561.0" y="1494.3333333333333" type="curve" smooth="yes"/>
      <point x="411.05555555555554" y="1494.3333333333333"/>
      <point x="300.38888888888886" y="1481.611111111111"/>
      <point x="185.5" y="1458.9444444444443" type="curve"/>
      <point x="185.5" y="10.166666666666668" type="line"/>
      <point x="309.8333333333333" y="-5.055555555555555"/>
      <point x="410.44444444444446" y="-10.555555555555557"/>
    </contour>
    <contour>
      <point x="535.6666666666667" y="69.00000000000004" type="curve" smooth="yes"/>
      <point x="437.6666666666667" y="69.00000000000004"/>
      <point x="355.8888888888889" y="72.83333333333337"/>
      <point x="273.2222222222223" y="84.44444444444449" type="curve"/>
      <point x="273.2222222222223" y="1392.2222222222222" type="line"/>
      <point x="354.3888888888889" y="1406.888888888889"/>
      <point x="439.50000000000006" y="1414.7777777777778"/>
      <point x="563.3888888888889" y="1414.7777777777778" type="curve" smooth="yes"/>
      <point x="887.4444444444445" y="1414.7777777777778"/>
      <point x="1013.1666666666666" y="1326.4444444444443"/>
      <point x="1013.1666666666666" y="1106.7777777777778" type="curve" smooth="yes"/>
      <point x="1013.1666666666666" y="902.3333333333334"/>
      <point x="896.0555555555555" y="800.6666666666667"/>
      <point x="598.5" y="800.6666666666667" type="curve" smooth="yes"/>
      <point x="255.77777777777783" y="800.6666666666667" type="line"/>
      <point x="255.77777777777783" y="720.6111111111111" type="line"/>
      <point x="625.8333333333334" y="720.6111111111111" type="line" smooth="yes"/>
      <point x="920.0" y="720.6111111111111"/>
      <point x="1055.4444444444443" y="617.0"/>
      <point x="1055.4444444444443" y="397.6666666666667" type="curve" smooth="yes"/>
      <point x="1055.4444444444443" y="176.5555555555556"/>
      <point x="926.5" y="69.00000000000004"/>
    </contour>
  </outline>
</glyph>
<glyph name="E" format="2">
  <advance width="1126.0"/>
  <unicode hex="0045"/>
  <anchor x="639.1111111111111" y="0.0" name="bottom"/>
  <anchor x="974.3888888888889" y="0.0" name="ogonek"/>
  <anchor x="637.2222222222222" y="1520.0" name="top"/>
  <anchor x="40.833333333333336" y="1480.0" name="topleft"/>
  <outline>
    <contour>
      <point x="185.5" y="0.0" type="line"/>
      <point x="1054.9444444444446" y="0.0" type="line"/>
      <point x="1054.9444444444446" y="81.33333333333339" type="line"/>
      <point x="273.50000000000006" y="81.33333333333339" type="line"/>
      <point x="273.50000000000006" y="1398.6666666666665" type="line"/>
      <point x="1044.9444444444446" y="1398.6666666666665" type="line"/>
      <point x="1044.9444444444446" y="1480.0" type="line"/>
      <point x="185.5" y="1480.0" type="line"/>
    </contour>
    <contour>
      <point x="246.7777777777778" y="720.0" type="line"/>
      <point x="949.3888888888889" y="720.0" type="line"/>
      <point x="949.3888888888889" y="801.3333333333334" type="line"/>
      <point x="246.7777777777778" y="801.3333333333334" type="line"/>
    </contour>
  </outline>
</glyph>
<glyph name="F" format="2">
  <advance width="1085.0"/>
  <unicode hex="0046"/>
  <outline>
    <contour>
      <point x="185.5" y="0.0" type="line"/>
      <point x="273.83333333333337" y="0.0" type="line"/>
      <point x="273.83333333333337" y="1398.2777777777778" type="line"/>
      <point x="1035.5" y="1398.2777777777778" type="line"/>
      <point x="1035.5" y="1480.0" type="line"/>
      <point x="185.5" y="1480.0" type="line"/>
    </contour>
    <contour>
      <point x="257.11111111111114" y="717.1111111111111" type="line"/>
      <point x="939.9444444444445" y="717.1111111111111" type="line"/>
      <point x="939.9444444444445" y="798.8333333333334" type="line"/>
      <point x="257.11111111111114" y="798.8333333333334" type="line"/>
    </contour>
  </outline>
</glyph>
<glyph name="H" format="2">
  <advance width="1408.111111111111"/>
  <unicode hex="0048"/>
  <anchor x="704.1111111111111" y="0.0" name="bottom"/>
  <anchor x="704.1111111111111" y="1143.9444444444446" name="center"/>
  <anchor x="704.1111111111111" y="1520.0" name="top"/>
  <anchor x="40.72222222222222" y="1480.0" name="topleft"/>
  <outline>
    <contour>
      <point x="185.5" y="0.0" type="line"/>
      <point x="273.83333333333337" y="0.0" type="line"/>
      <point x="273.83333333333337" y="718.9444444444445" type="line"/>
      <point x="1134.2777777777778" y="718.9444444444445" type="line"/>
      <point x="1134.2777777777778" y="0.0" type="line"/>
      <point x="1222.611111111111" y="0.0" type="line"/>
      <point x="1222.611111111111" y="1480.0" type="line"/>
      <point x="1134.2777777777778" y="1480.0" type="line"/>
      <point x="1134.2777777777778" y="802.3888888888889" type="line"/>
      <point x="273.83333333333337" y="802.3888888888889" type="line"/>
      <point x="273.83333333333337" y="1480.0" type="line"/>
      <point x="185.5" y="1480.0" type="line"/>
    </contour>
  </outline>
</glyph>
<glyph name="I" format="2">
  <advance width="459.33333333333337"/>
  <unicode hex="0049"/>
  <anchor x="229.61111111111114" y="0.0" name="bottom"/>
  <anchor x="273.83333333333337" y="0.0" name="ogonek"/>
  <anchor x="229.66666666666669" y="1520.0" name="top"/>
  <outline>
    <contour>
      <point x="185.5" y="0.0" type="line"/>
      <point x="273.83333333333337" y="0.0" type="line"/>
      <point x="273.83333333333337" y="1480.0" type="line"/>
      <point x="185.5" y="1480.0" type="line"/>
    </contour>
  </outline>
</glyph>
<glyph name="J" format="2">
  <advance width="459.33333333333337"/>
  <unicode hex="004A"/>
  <anchor x="322.9444444444445" y="0.0" name="bottom"/>
  <anchor x="229.72222222222223" y="1520.0" name="top"/>
  <outline>
    <contour>
      <point x="58.83333333333337" y="-340.77777777777777" type="line"/>
      <point x="208.22222222222229" y="-141.66666666666666"/>
      <point x="263.4444444444445" y="24.666666666666675"/>
      <point x="273.83333333333337" y="256.72222222222223" type="curve"/>
      <point x="273.83333333333337" y="1480.0" type="line"/>
      <point x="185.6111111111111" y="1480.0" type="line"/>
      <point x="185.6111111111111" y="287.0" type="line" smooth="yes"/>
      <point x="185.6111111111111" y="48.8888888888889"/>
      <point x="129.0" y="-116.77777777777776"/>
      <point x="-2.6666666666666723" y="-297.6111111111111" type="curve"/>
    </contour>
  </outline>
</glyph>
<glyph name="K" format="2">
  <advance width="1194.611111111111"/>
  <unicode hex="004B"/>
  <anchor x="622.3888888888889" y="0.0" name="bottom"/>
  <anchor x="621.8888888888889" y="1480.0" name="top"/>
  <outline>
    <contour>
      <point x="1101.2222222222222" y="0.0" type="line"/>
      <point x="1207.4444444444446" y="0.0" type="line"/>
      <point x="582.2222222222223" y="776.2222222222223" type="line"/>
      <point x="581.7777777777778" y="747.4444444444445" type="line"/>
      <point x="1165.388888888889" y="1480.0" type="line"/>
      <point x="1061.888888888889" y="1480.0" type="line"/>
      <point x="489.3888888888889" y="757.6666666666666" type="line"/>
    </contour>
    <contour>
      <point x="185.5" y="0.0" type="line"/>
      <point x="273.83333333333337" y="0.0" type="line"/>
      <point x="273.83333333333337" y="1480.0" type="line"/>
      <point x="185.5" y="1480.0" type="line"/>
    </contour>
    <contour>
      <point x="255.50000000000006" y="718.9444444444445" type="line"/>
      <point x="540.0555555555555" y="718.9444444444445" type="line"/>
      <point x="540.0555555555555" y="801.4444444444445" type="line"/>
      <point x="255.50000000000006" y="801.4444444444445" type="line"/>
    </contour>
  </outline>
</glyph>
<glyph name="M" format="2">
  <advance width="1706.6666666666667"/>
  <unicode hex="004D"/>
  <anchor x="854.9444444444445" y="0.0" name="bottom"/>
  <anchor x="854.9444444444445" y="1480.0" name="top"/>
  <outline>
    <contour>
      <point x="189.5" y="0.0" type="line"/>
      <point x="274.2777777777778" y="0.0" type="line"/>
      <point x="274.2777777777778" y="1404.111111111111" type="line"/>
      <point x="233.11111111111114" y="1404.111111111111" type="line"/>
      <point x="807.7777777777778" y="201.11111111111111" type="line"/>
      <point x="898.8888888888889" y="201.11111111111111" type="line"/>
      <point x="1470.611111111111" y="1404.111111111111" type="line"/>
      <point x="1432.388888888889" y="1404.111111111111" type="line"/>
      <point x="1432.388888888889" y="0.0" type="line"/>
      <point x="1517.1666666666667" y="0.0" type="line"/>
      <point x="1517.1666666666667" y="1480.0" type="line"/>
      <point x="1416.8333333333333" y="1480.0" type="line"/>
      <point x="839.3333333333334" y="253.3333333333334" type="line"/>
      <point x="871.8888888888889" y="253.3333333333334" type="line"/>
      <point x="289.8333333333334" y="1480.0" type="line"/>
      <point x="189.5" y="1480.0" type="line"/>
    </contour>
  </outline>
</glyph>
<glyph name="N" format="2">
  <advance width="1436.1666666666667"/>
  <unicode hex="004E"/>
  <anchor x="718.5555555555555" y="0.0" name="bottom"/>
  <anchor x="718.5555555555555" y="1520.0" name="top"/>
  <outline>
    <contour>
      <point x="185.5" y="0.0" type="line"/>
      <point x="270.4444444444445" y="0.0" type="line"/>
      <point x="270.4444444444445" y="1392.8888888888887" type="line"/>
      <point x="237.50000000000006" y="1392.8888888888887" type="line"/>
      <point x="1155.7777777777778" y="0.0" type="line"/>
      <point x="1250.6666666666667" y="0.0" type="line"/>
      <point x="1250.6666666666667" y="1480.0" type="line"/>
      <point x="1165.7222222222222" y="1480.0" type="line"/>
      <point x="1165.7222222222222" y="87.1111111111112" type="line"/>
      <point x="1198.6666666666667" y="87.1111111111112" type="line"/>
      <point x="280.3888888888889" y="1480.0" type="line"/>
      <point x="185.5" y="1480.0" type="line"/>
    </contour>
  </outline>
</glyph>
<glyph name="P" format="2">
  <advance width="1194.5"/>
  <unicode hex="0050"/>
  <outline>
    <contour>
      <point x="185.5" y="0.0" type="line"/>
      <point x="273.83333333333337" y="0.0" type="line"/>
      <point x="273.83333333333337" y="521.4444444444445" type="line"/>
      <point x="350.44444444444446" y="513.8888888888889"/>
      <point x="414.61111111111114" y="510.9444444444444"/>
      <point x="491.44444444444446" y="510.9444444444444" type="curve" smooth="yes"/>
      <point x="913.7222222222223" y="510.9444444444444"/>
      <point x="1097.5555555555557" y="684.7777777777777"/>
      <point x="1097.5555555555557" y="1003.5555555555555" type="curve" smooth="yes"/>
      <point x="1097.5555555555557" y="1342.2777777777778"/>
      <point x="902.2222222222223" y="1494.3333333333333"/>
      <point x="534.0555555555555" y="1494.3333333333333" type="curve" smooth="yes"/>
      <point x="408.72222222222223" y="1494.3333333333333"/>
      <point x="300.55555555555554" y="1481.888888888889"/>
      <point x="185.5" y="1460.388888888889" type="curve"/>
    </contour>
    <contour>
      <point x="494.5" y="591.0555555555555" type="curve" smooth="yes"/>
      <point x="413.6666666666667" y="591.0555555555555"/>
      <point x="344.8888888888889" y="594.9444444444445"/>
      <point x="273.83333333333337" y="604.6666666666667" type="curve"/>
      <point x="273.83333333333337" y="1393.0" type="line"/>
      <point x="354.00000000000006" y="1406.5555555555554"/>
      <point x="437.7222222222223" y="1414.2222222222222"/>
      <point x="536.3888888888889" y="1414.2222222222222" type="curve" smooth="yes"/>
      <point x="851.8333333333334" y="1414.2222222222222"/>
      <point x="1006.2777777777777" y="1289.4444444444443"/>
      <point x="1006.2777777777777" y="1000.6111111111111" type="curve" smooth="yes"/>
      <point x="1006.2777777777777" y="726.6111111111111"/>
      <point x="855.6111111111111" y="591.0555555555555"/>
    </contour>
  </outline>
</glyph>
<glyph name="Q" format="2">
  <advance width="1383.3333333333335"/>
  <unicode hex="0051"/>
  <outline>
    <contour>
      <point x="1228.2222222222222" y="-190.77777777777783" type="curve"/>
      <point x="1241.6666666666667" y="-109.88888888888887" type="line"/>
      <point x="1026.2777777777778" y="-92.1111111111111"/>
      <point x="778.7222222222223" y="-53.44444444444443"/>
      <point x="608.6666666666667" y="22.611111111111132" type="curve"/>
      <point x="605.3333333333334" y="-5.833333333333326" type="line"/>
      <point x="1039.3333333333335" y="-57.388888888888886"/>
      <point x="1268.0555555555557" y="201.7777777777778"/>
      <point x="1268.0555555555557" y="740.0" type="curve" smooth="yes"/>
      <point x="1268.0555555555557" y="1288.2222222222222"/>
      <point x="1034.4444444444446" y="1498.111111111111"/>
      <point x="691.6666666666667" y="1498.111111111111" type="curve" smooth="yes"/>
      <point x="348.8888888888889" y="1498.111111111111"/>
      <point x="115.27777777777777" y="1282.6666666666667"/>
      <point x="115.27777777777777" y="739.4444444444445" type="curve" smooth="yes"/>
      <point x="115.27777777777777" y="131.2777777777778"/>
      <point x="369.72222222222223" y="-99.44444444444446"/>
    </contour>
    <contour>
      <point x="691.6666666666667" y="64.38888888888894" type="curve" smooth="yes"/>
      <point x="402.7777777777778" y="64.38888888888894"/>
      <point x="207.9444444444445" y="236.27777777777783"/>
      <point x="207.9444444444445" y="744.2222222222222" type="curve" smooth="yes"/>
      <point x="207.9444444444445" y="1243.611111111111"/>
      <point x="403.0555555555556" y="1415.611111111111"/>
      <point x="691.6666666666667" y="1415.611111111111" type="curve" smooth="yes"/>
      <point x="980.2777777777778" y="1415.611111111111"/>
      <point x="1175.388888888889" y="1243.4444444444443"/>
      <point x="1175.388888888889" y="735.7777777777778" type="curve" smooth="yes"/>
      <point x="1175.388888888889" y="236.5555555555556"/>
      <point x="980.4444444444445" y="64.38888888888894"/>
    </contour>
  </outline>
</glyph>
<glyph name="V" format="2">
  <advance width="1260.6666666666667"/>
  <unicode hex="0056"/>
  <outline>
    <contour>
      <point x="568.0555555555555" y="0.0" type="line"/>
      <point x="692.6111111111112" y="0.0" type="line"/>
      <point x="1244.9444444444446" y="1480.0" type="line"/>
      <point x="1154.5" y="1480.0" type="line"/>
      <point x="622.6666666666667" y="47.388888888888914" type="line"/>
      <point x="643.0" y="47.388888888888914" type="line"/>
      <point x="111.66666666666674" y="1480.0" type="line"/>
      <point x="15.722222222222218" y="1480.0" type="line"/>
    </contour>
  </outline>
</glyph>
<glyph name="X" format="2">
  <advance width="1234.1666666666667"/>
  <unicode hex="0058"/>
  <outline>
    <contour>
      <point x="1095.6666666666667" y="0.0" type="line"/>
      <point x="1203.2777777777778" y="0.0" type="line"/>
      <point x="669.7777777777778" y="749.7777777777778" type="line"/>
      <point x="617.1111111111111" y="821.8333333333334" type="line"/>
      <point x="148.55555555555563" y="1480.0" type="line"/>
      <point x="41.722222222222214" y="1480.0" type="line"/>
      <point x="563.2222222222222" y="748.5555555555555" type="line"/>
      <point x="615.8888888888889" y="675.7222222222222" type="line"/>
    </contour>
    <contour>
      <point x="29.722222222222204" y="0.0" type="line"/>
      <point x="135.1666666666667" y="0.0" type="line"/>
      <point x="615.8888888888889" y="675.7222222222222" type="line"/>
      <point x="669.7777777777778" y="749.7777777777778" type="line"/>
      <point x="1190.7777777777778" y="1480.0" type="line"/>
      <point x="1086.5555555555554" y="1480.0" type="line"/>
      <point x="617.1111111111111" y="821.8333333333334" type="line"/>
      <point x="563.2222222222222" y="748.5555555555555" type="line"/>
    </contour>
  </outline>
</glyph>
<glyph name="Y" format="2">
  <advance width="1125.7222222222222"/>
  <unicode hex="0059"/>
  <anchor x="562.8333333333334" y="0.0" name="bottom"/>
  <anchor x="562.8888888888889" y="1520.0" name="top"/>
  <anchor x="12.277777777777771" y="1480.0" name="topleft"/>
  <outline>
    <contour>
      <point x="518.8333333333334" y="0.0" type="line"/>
      <point x="607.1666666666667" y="0.0" type="line"/>
      <point x="607.1666666666667" y="710.6666666666666" type="line"/>
      <point x="585.3888888888889" y="641.5" type="line"/>
      <point x="1139.0555555555557" y="1480.0" type="line"/>
      <point x="1040.0555555555557" y="1480.0" type="line"/>
      <point x="545.2222222222223" y="728.3888888888889" type="line"/>
      <point x="583.7777777777778" y="728.3888888888889" type="line"/>
      <point x="82.11111111111117" y="1480.0" type="line"/>
      <point x="-21.61111111111112" y="1480.0" type="line"/>
      <point x="540.6111111111111" y="641.5" type="line"/>
      <point x="518.8333333333334" y="711.0" type="line"/>
    </contour>
  </outline>
</glyph>
<glyph name="bracketleft" format="2">
  <advance width="633.1111111111111"/>
  <unicode hex="005B"/>
  <outline>
    <contour>
      <point x="205.5" y="-440.0" type="line"/>
      <point x="671.7777777777778" y="-440.0" type="line"/>
      <point x="671.7777777777778" y="-361.2222222222222" type="line"/>
      <point x="293.33333333333337" y="-361.2222222222222" type="line"/>
      <point x="293.33333333333337" y="1537.2222222222222" type="line"/>
      <point x="672.3333333333334" y="1537.2222222222222" type="line"/>
      <point x="672.3333333333334" y="1616.0" type="line"/>
      <point x="205.5" y="1616.0" type="line"/>
    </contour>
  </outline>
</glyph>
<glyph name="backslash" format="2">
  <advance width="542.2222222222223"/>
  <unicode hex="005C"/>
  <outline>
    <contour>
      <point x="451.94444444444446" y="-240.0" type="line"/>
      <point x="542.2222222222223" y="-240.0" type="line"/>
      <point x="90.27777777777784" y="1616.0" type="line"/>
      <point x="0.0" y="1616.0" type="line"/>
    </contour>
  </outline>
</glyph>
<glyph name="bracketright" format="2">
  <advance width="633.1111111111111"/>
  <unicode hex="005D"/>
  <outline>
    <contour>
      <point x="-38.666666666666664" y="-440.0" type="line"/>
      <point x="427.61111111111114" y="-440.0" type="line"/>
      <point x="427.61111111111114" y="1616.0" type="line"/>
      <point x="-39.22222222222222" y="1616.0" type="line"/>
      <point x="-39.22222222222222" y="1537.2222222222222" type="line"/>
      <point x="339.77777777777777" y="1537.2222222222222" type="line"/>
      <point x="339.77777777777777" y="-361.2222222222222" type="line"/>
      <point x="-38.666666666666664" y="-361.2222222222222" type="line"/>
    </contour>
  </outline>
</glyph>
<glyph name="asciicircum" format="2">
  <advance width="1112.2222222222222"/>
  <unicode hex="005E"/>
  <outline>
    <contour>
      <point x="110.1111111111111" y="740.0" type="line"/>
      <point x="207.38888888888894" y="740.0" type="line"/>
      <point x="564.9444444444445" y="1427.1666666666667" type="line"/>
      <point x="547.2777777777778" y="1427.1666666666667" type="line"/>
      <point x="904.8333333333334" y="740.0" type="line"/>
      <point x="1002.1111111111112" y="740.0" type="line"/>
      <point x="610.3888888888889" y="1480.0" type="line"/>
      <point x="499.94444444444446" y="1480.0" type="line"/>
    </contour>
  </outline>
</glyph>
<glyph name="underscore" format="2">
  <advance width="1082.888888888889"/>
  <unicode hex="005F"/>
  <outline>
    <contour>
      <point x="94.44444444444444" y="-78.83333333333339" type="line"/>
      <point x="988.4444444444445" y="-78.83333333333339" type="line"/>
      <point x="988.4444444444445" y="-0.05555555555555575" type="line"/>
      <point x="94.44444444444444" y="-0.05555555555555575" type="line"/>
    </contour>
  </outline>
</glyph>
<glyph name="grave" format="2">
  <advance width="1011.1111111111111"/>
  <unicode hex="0060"/>
  <anchor x="505.55555555555554" y="1200.0" name="_top"/>
  <anchor x="505.55555555555554" y="1561.5555555555557" name="top"/>
  <outline>
    <contour>
      <point x="464.55555555555554" y="1261.5555555555557" type="line"/>
      <point x="546.5555555555557" y="1261.5555555555557" type="line"/>
      <point x="337.1666666666667" y="1616.0" type="line"/>
      <point x="238.6111111111111" y="1616.0" type="line"/>
    </contour>
  </outline>
</glyph>
<glyph name="b" format="2">
  <advance width="1083.5555555555557"/>
  <unicode hex="0062"/>
  <anchor x="544.4444444444445" y="0.0" name="bottom"/>
  <anchor x="209.8888888888889" y="1616.0" name="top"/>
  <outline>
    <contour>
      <point x="460.83333333333337" y="-18.166666666666668" type="curve" smooth="yes"/>
      <point x="795.8333333333334" y="-18.22222222222222"/>
      <point x="978.6111111111111" y="164.61111111111111"/>
      <point x="978.6111111111111" y="560.7222222222222" type="curve" smooth="yes"/>
      <point x="978.6111111111111" y="961.0"/>
      <point x="793.7222222222223" y="1097.2222222222222"/>
      <point x="568.3888888888889" y="1097.2222222222222" type="curve" smooth="yes"/>
      <point x="433.3888888888889" y="1097.2222222222222"/>
      <point x="327.2222222222223" y="1041.0555555555557"/>
      <point x="260.50000000000006" y="966.7777777777778" type="curve"/>
      <point x="253.77777777777783" y="966.7777777777778" type="line"/>
      <point x="253.77777777777783" y="1616.0" type="line"/>
      <point x="165.94444444444443" y="1616.0" type="line"/>
      <point x="165.94444444444443" y="25.333333333333336" type="line"/>
      <point x="255.16666666666666" y="-2.833333333333333"/>
      <point x="360.3888888888889" y="-18.166666666666668"/>
    </contour>
    <contour>
      <point x="466.6666666666667" y="61.72222222222227" type="curve" smooth="yes"/>
      <point x="386.3888888888889" y="61.72222222222227"/>
      <point x="308.11111111111114" y="74.22222222222227"/>
      <point x="253.77777777777783" y="90.61111111111116" type="curve"/>
      <point x="253.77777777777783" y="862.3333333333333" type="line"/>
      <point x="325.61111111111114" y="967.1666666666666"/>
      <point x="440.44444444444446" y="1015.7777777777777"/>
      <point x="555.1111111111111" y="1015.7777777777777" type="curve" smooth="yes"/>
      <point x="742.6111111111111" y="1015.7777777777777"/>
      <point x="886.9444444444445" y="913.7222222222222"/>
      <point x="886.9444444444445" y="551.3333333333334" type="curve" smooth="yes"/>
      <point x="886.9444444444445" y="205.11111111111114"/>
      <point x="740.6111111111111" y="61.72222222222227"/>
    </contour>
  </outline>
</glyph>
<glyph name="f" format="2">
  <advance width="677.7222222222223"/>
  <unicode hex="0066"/>
  <outline>
    <contour>
      <point x="232.44444444444443" y="0.0" type="line"/>
      <point x="320.1111111111112" y="0.0" type="line"/>
      <point x="320.1111111111112" y="1287.388888888889" type="line" smooth="yes"/>
      <point x="320.1111111111112" y="1482.2777777777778"/>
      <point x="407.3888888888889" y="1555.2222222222222"/>
      <point x="582.7222222222223" y="1555.2222222222222" type="curve" smooth="yes"/>
      <point x="630.7777777777778" y="1555.2222222222222"/>
      <point x="676.7777777777778" y="1550.388888888889"/>
      <point x="724.1111111111112" y="1541.6666666666665" type="curve"/>
      <point x="724.1111111111112" y="1624.0" type="line"/>
      <point x="678.5555555555557" y="1632.0"/>
      <point x="626.6666666666667" y="1636.0"/>
      <point x="582.5555555555555" y="1636.0" type="curve" smooth="yes"/>
      <point x="350.11111111111114" y="1636.0"/>
      <point x="232.44444444444443" y="1519.2777777777778"/>
      <point x="232.44444444444443" y="1283.4444444444443" type="curve" smooth="yes"/>
    </contour>
    <contour>
      <point x="15.77777777777778" y="1002.3333333333333" type="line"/>
      <point x="684.5555555555555" y="1002.3333333333333" type="line"/>
      <point x="684.5555555555555" y="1081.111111111111" type="line"/>
      <point x="15.77777777777778" y="1081.111111111111" type="line"/>
    </contour>
  </outline>
</glyph>
<glyph name="i" format="2">
  <advance width="419.7777777777778"/>
  <unicode hex="0069"/>
  <anchor x="209.8888888888889" y="1200.0" name="_top"/>
  <anchor x="209.8888888888889" y="0.0" name="bottom"/>
  <anchor x="253.83333333333337" y="0.0" name="ogonek"/>
  <anchor x="209.8888888888889" y="1200.0" name="top"/>
  <outline>
    <contour>
      <point x="165.94444444444443" y="0.0" type="line"/>
      <point x="253.83333333333337" y="0.0" type="line"/>
      <point x="253.83333333333337" y="1081.111111111111" type="line"/>
      <point x="165.94444444444443" y="1081.111111111111" type="line"/>
    </contour>
    <contour>
      <point x="209.8888888888889" y="1351.5555555555554" type="curve" smooth="yes"/>
      <point x="253.6666666666667" y="1351.5555555555554"/>
      <point x="282.5555555555556" y="1378.4444444444443"/>
      <point x="282.5555555555556" y="1421.7777777777778" type="curve" smooth="yes"/>
      <point x="282.5555555555556" y="1465.111111111111"/>
      <point x="253.6666666666667" y="1493.888888888889"/>
      <point x="209.8888888888889" y="1493.888888888889" type="curve" smooth="yes"/>
      <point x="166.11111111111111" y="1493.888888888889"/>
      <point x="137.2222222222222" y="1465.111111111111"/>
      <point x="137.2222222222222" y="1421.7777777777778" type="curve" smooth="yes"/>
      <point x="137.2222222222222" y="1378.4444444444443"/>
      <point x="166.11111111111111" y="1351.5555555555554"/>
    </contour>
  </outline>
</glyph>
<glyph name="j" format="2">
  <advance width="419.7777777777778"/>
  <unicode hex="006A"/>
  <anchor x="209.61111111111114" y="1205.6666666666667" name="_top"/>
  <anchor x="209.61111111111114" y="1205.6666666666667" name="top"/>
  <outline>
    <contour>
      <point x="39.05555555555559" y="-460.8888888888889" type="line"/>
      <point x="188.27777777777783" y="-261.77777777777777"/>
      <point x="253.83333333333337" y="-86.1111111111111"/>
      <point x="253.83333333333337" y="174.27777777777777" type="curve" smooth="yes"/>
      <point x="253.83333333333337" y="1081.111111111111" type="line"/>
      <point x="165.94444444444443" y="1081.111111111111" type="line"/>
      <point x="165.94444444444443" y="166.77777777777777" type="line" smooth="yes"/>
      <point x="165.94444444444443" y="-71.33333333333333"/>
      <point x="109.33333333333333" y="-236.99999999999997"/>
      <point x="-22.33333333333334" y="-417.8333333333333" type="curve"/>
    </contour>
    <contour>
      <point x="209.61111111111114" y="1357.2222222222222" type="curve" smooth="yes"/>
      <point x="253.38888888888894" y="1357.2222222222222"/>
      <point x="282.2777777777778" y="1384.111111111111"/>
      <point x="282.2777777777778" y="1427.4444444444443" type="curve" smooth="yes"/>
      <point x="282.2777777777778" y="1470.7777777777778"/>
      <point x="253.38888888888894" y="1499.5555555555557"/>
      <point x="209.61111111111114" y="1499.5555555555557" type="curve" smooth="yes"/>
      <point x="165.83333333333331" y="1499.5555555555557"/>
      <point x="136.94444444444443" y="1470.7777777777778"/>
      <point x="136.94444444444443" y="1427.4444444444443" type="curve" smooth="yes"/>
      <point x="136.94444444444443" y="1384.111111111111"/>
      <point x="165.83333333333331" y="1357.2222222222222"/>
    </contour>
  </outline>
</glyph>
<glyph name="l" format="2">
  <advance width="419.7222222222223"/>
  <unicode hex="006C"/>
  <anchor x="209.83333333333334" y="0.0" name="bottom"/>
  <anchor x="372.11111111111114" y="1616.0" name="caronalt"/>
  <anchor x="419.5000000000001" y="794.0" name="periodcentered"/>
  <anchor x="209.8888888888889" y="714.0" name="slash"/>
  <anchor x="209.8888888888889" y="1616.0" name="top"/>
  <outline>
    <contour>
      <point x="165.94444444444443" y="0.0" type="line"/>
      <point x="253.77777777777783" y="0.0" type="line"/>
      <point x="253.77777777777783" y="1616.0" type="line"/>
      <point x="165.94444444444443" y="1616.0" type="line"/>
    </contour>
  </outline>
</glyph>
<glyph name="n" format="2">
  <advance width="1097.7222222222222"/>
  <unicode hex="006E"/>
  <anchor x="12.88888888888889" y="1200.0" name="apostrophe"/>
  <anchor x="556.1666666666667" y="0.0" name="bottom"/>
  <anchor x="556.1666666666667" y="1200.0" name="top"/>
  <outline>
    <contour>
      <point x="165.94444444444443" y="0.0" type="line"/>
      <point x="253.77777777777783" y="0.0" type="line"/>
      <point x="253.77777777777783" y="844.6666666666666" type="line"/>
      <point x="346.1666666666667" y="971.0555555555555"/>
      <point x="488.7777777777778" y="1014.7222222222222"/>
      <point x="597.5555555555555" y="1014.7222222222222" type="curve" smooth="yes"/>
      <point x="756.1666666666666" y="1014.7222222222222"/>
      <point x="857.5" y="942.2777777777777"/>
      <point x="857.5" y="732.0" type="curve" smooth="yes"/>
      <point x="857.5" y="0.0" type="line"/>
      <point x="945.3333333333334" y="0.0" type="line"/>
      <point x="945.3333333333334" y="733.5555555555555" type="line" smooth="yes"/>
      <point x="945.3333333333334" y="1002.1666666666666"/>
      <point x="805.8333333333334" y="1097.2222222222222"/>
      <point x="607.3333333333334" y="1097.2222222222222" type="curve" smooth="yes"/>
      <point x="473.7777777777778" y="1097.2222222222222"/>
      <point x="349.7777777777778" y="1045.7222222222222"/>
      <point x="257.7777777777778" y="953.5" type="curve"/>
      <point x="249.22222222222229" y="953.5" type="line"/>
      <point x="242.00000000000006" y="1081.111111111111" type="line"/>
      <point x="165.94444444444443" y="1081.111111111111" type="line"/>
    </contour>
  </outline>
</glyph>
<glyph name="p" format="2">
  <advance width="1083.5555555555557"/>
  <unicode hex="0070"/>
  <outline>
    <contour>
      <point x="165.94444444444443" y="-440.0" type="line"/>
      <point x="253.77777777777783" y="-440.0" type="line"/>
      <point x="253.77777777777783" y="-1.888888888888892" type="line"/>
      <point x="312.00000000000006" y="-10.500000000000002"/>
      <point x="384.61111111111114" y="-18.166666666666668"/>
      <point x="453.5" y="-18.166666666666668" type="curve" smooth="yes"/>
      <point x="796.6111111111112" y="-18.166666666666668"/>
      <point x="978.6111111111111" y="164.83333333333334"/>
      <point x="978.6111111111111" y="560.6111111111111" type="curve" smooth="yes"/>
      <point x="978.6111111111111" y="961.5555555555555"/>
      <point x="791.8888888888889" y="1097.2222222222222"/>
      <point x="560.9444444444445" y="1097.2222222222222" type="curve" smooth="yes"/>
      <point x="431.00000000000006" y="1097.2222222222222"/>
      <point x="323.7222222222223" y="1040.5"/>
      <point x="258.00000000000006" y="960.4444444444445" type="curve"/>
      <point x="250.38888888888894" y="960.4444444444445" type="line"/>
      <point x="242.3888888888889" y="1081.111111111111" type="line"/>
      <point x="165.94444444444443" y="1081.111111111111" type="line"/>
    </contour>
    <contour>
      <point x="456.2777777777778" y="61.77777777777783" type="curve" smooth="yes"/>
      <point x="386.5555555555556" y="61.77777777777783"/>
      <point x="308.11111111111114" y="70.50000000000004"/>
      <point x="253.77777777777783" y="83.94444444444449" type="curve"/>
      <point x="253.77777777777783" y="854.3333333333333" type="line"/>
      <point x="325.5555555555556" y="967.0555555555555"/>
      <point x="439.6666666666667" y="1015.8333333333333"/>
      <point x="550.7777777777778" y="1015.8333333333333" type="curve" smooth="yes"/>
      <point x="742.5555555555555" y="1015.8333333333333"/>
      <point x="886.9444444444445" y="913.7777777777777"/>
      <point x="886.9444444444445" y="551.2777777777778" type="curve" smooth="yes"/>
      <point x="886.9444444444445" y="205.16666666666669"/>
      <point x="740.6111111111111" y="61.77777777777783"/>
    </contour>
  </outline>
</glyph>
<glyph name="q" format="2">
  <advance width="1083.5555555555557"/>
  <unicode hex="0071"/>
  <outline>
    <contour>
      <point x="829.7777777777778" y="-440.0" type="line"/>
      <point x="917.6111111111112" y="-440.0" type="line"/>
      <point x="917.6111111111112" y="1053.7222222222222" type="line"/>
      <point x="830.7777777777778" y="1080.7777777777778"/>
      <point x="723.1666666666667" y="1097.2222222222222"/>
      <point x="622.7222222222223" y="1097.2222222222222" type="curve" smooth="yes"/>
      <point x="287.72222222222223" y="1097.2222222222222"/>
      <point x="104.94444444444443" y="914.4444444444445"/>
      <point x="104.94444444444443" y="518.3333333333334" type="curve" smooth="yes"/>
      <point x="104.94444444444443" y="118.05555555555556"/>
      <point x="289.8333333333333" y="-18.166666666666668"/>
      <point x="515.1666666666666" y="-18.166666666666668" type="curve" smooth="yes"/>
      <point x="650.1666666666666" y="-18.166666666666668"/>
      <point x="756.3333333333334" y="38.0"/>
      <point x="823.0555555555555" y="112.27777777777777" type="curve"/>
      <point x="829.7777777777778" y="112.27777777777777" type="line"/>
    </contour>
    <contour>
      <point x="528.4444444444445" y="63.27777777777783" type="curve" smooth="yes"/>
      <point x="340.94444444444446" y="63.27777777777783"/>
      <point x="196.61111111111117" y="165.33333333333337"/>
      <point x="196.61111111111117" y="527.7222222222222" type="curve" smooth="yes"/>
      <point x="196.61111111111117" y="873.9444444444445"/>
      <point x="343.2777777777778" y="1017.3333333333333"/>
      <point x="616.8333333333334" y="1017.3333333333333" type="curve" smooth="yes"/>
      <point x="697.1666666666666" y="1017.3333333333333"/>
      <point x="775.4444444444445" y="1005.7777777777777"/>
      <point x="829.7777777777778" y="991.3333333333333" type="curve"/>
      <point x="829.7777777777778" y="216.72222222222226" type="line"/>
      <point x="757.9444444444445" y="111.88888888888893"/>
      <point x="641.2222222222222" y="63.27777777777783"/>
    </contour>
  </outline>
</glyph>
<glyph name="v" format="2">
  <advance width="1008.5"/>
  <unicode hex="0076"/>
  <anchor x="505.6666666666667" y="0.0" name="bottom"/>
  <anchor x="505.6666666666667" y="1200.0" name="top"/>
  <outline>
    <contour>
      <point x="445.6111111111111" y="0.0" type="line"/>
      <point x="562.8333333333334" y="0.0" type="line"/>
      <point x="985.5555555555557" y="1081.111111111111" type="line"/>
      <point x="893.5" y="1081.111111111111" type="line"/>
      <point x="497.1666666666667" y="53.11111111111117" type="line"/>
      <point x="515.6111111111111" y="53.11111111111117" type="line"/>
      <point x="119.27777777777784" y="1081.111111111111" type="line"/>
      <point x="22.944444444444436" y="1081.111111111111" type="line"/>
    </contour>
  </outline>
</glyph>
<glyph name="w" format="2">
  <advance width="1638.7777777777778"/>
  <unicode hex="0077"/>
  <anchor x="820.3888888888889" y="0.0" name="bottom"/>
  <anchor x="821.3333333333334" y="1200.0" name="top"/>
  <outline>
    <contour>
      <point x="396.0" y="0.0" type="line"/>
      <point x="510.4444444444445" y="0.0" type="line"/>
      <point x="828.6666666666667" y="1017.4444444444443" type="line"/>
      <point x="811.5555555555555" y="1017.4444444444443" type="line"/>
      <point x="1129.388888888889" y="0.0" type="line"/>
      <point x="1243.8333333333335" y="0.0" type="line"/>
      <point x="1570.888888888889" y="1081.111111111111" type="line"/>
      <point x="1482.611111111111" y="1081.111111111111" type="line"/>
      <point x="1178.3333333333335" y="61.388888888888964" type="line"/>
      <point x="1194.7777777777778" y="61.388888888888964" type="line"/>
      <point x="878.1111111111112" y="1081.111111111111" type="line"/>
      <point x="763.6666666666666" y="1081.111111111111" type="line"/>
      <point x="447.6666666666667" y="61.38888888888896" type="line"/>
      <point x="463.61111111111114" y="61.38888888888896" type="line"/>
      <point x="159.00000000000006" y="1081.111111111111" type="line"/>
      <point x="67.88888888888889" y="1081.111111111111" type="line"/>
    </contour>
  </outline>
</glyph>
<glyph name="x" format="2">
  <advance width="955.6111111111112"/>
  <unicode hex="0078"/>
  <anchor x="479.22222222222223" y="0.0" name="bottom"/>
  <anchor x="479.2777777777778" y="1200.0" name="top"/>
  <outline>
    <contour>
      <point x="825.4444444444445" y="0.0" type="line"/>
      <point x="932.3888888888889" y="0.0" type="line"/>
      <point x="531.6666666666667" y="546.7222222222222" type="line"/>
      <point x="479.5" y="614.8333333333334" type="line"/>
      <point x="140.05555555555563" y="1081.111111111111" type="line"/>
      <point x="33.1111111111111" y="1081.111111111111" type="line"/>
      <point x="424.72222222222223" y="544.5555555555555" type="line"/>
      <point x="477.1666666666667" y="477.49999999999994" type="line"/>
    </contour>
    <contour>
      <point x="26.1111111111111" y="0.0" type="line"/>
      <point x="131.38888888888894" y="0.0" type="line"/>
      <point x="477.1666666666667" y="477.49999999999994" type="line"/>
      <point x="531.6666666666667" y="546.7222222222222" type="line"/>
      <point x="923.1111111111112" y="1081.111111111111" type="line"/>
      <point x="819.7222222222222" y="1081.111111111111" type="line"/>
      <point x="479.5" y="614.8333333333334" type="line"/>
      <point x="424.72222222222223" y="544.5555555555555" type="line"/>
    </contour>
  </outline>
</glyph>
<glyph name="z" format="2">
  <advance width="876.6666666666667"/>
  <unicode hex="007A"/>
  <anchor x="441.2777777777778" y="0.0" name="bottom"/>
  <anchor x="441.2777777777778" y="1200.0" name="top"/>
  <outline>
    <contour>
      <point x="61.333333333333336" y="0.0" type="line"/>
      <point x="820.2222222222223" y="0.0" type="line"/>
      <point x="820.2222222222223" y="78.77777777777783" type="line"/>
      <point x="159.77777777777786" y="78.77777777777783" type="line"/>
      <point x="159.77777777777786" y="51.16666666666671" type="line"/>
      <point x="808.3333333333334" y="1028.3333333333333" type="line"/>
      <point x="808.3333333333334" y="1081.111111111111" type="line"/>
      <point x="73.22222222222223" y="1081.111111111111" type="line"/>
      <point x="73.22222222222223" y="1002.3333333333333" type="line"/>
      <point x="709.8888888888889" y="1002.3333333333333" type="line"/>
      <point x="709.8888888888889" y="1029.9444444444443" type="line"/>
      <point x="61.333333333333336" y="52.77777777777782" type="line"/>
    </contour>
  </outline>
</glyph>
<glyph name="braceleft" format="2">
  <advance width="673.1111111111111"/>
  <unicode hex="007B"/>
  <outline>
    <contour>
      <point x="588.0555555555555" y="-460.0" type="curve" smooth="yes"/>
      <point x="633.8888888888889" y="-460.0"/>
      <point x="680.8333333333334" y="-455.8888888888889"/>
      <point x="712.3333333333334" y="-449.77777777777777" type="curve"/>
      <point x="712.3333333333334" y="-378.99999999999994" type="line"/>
      <point x="588.6111111111111" y="-378.99999999999994" type="line" smooth="yes"/>
      <point x="417.5555555555556" y="-378.99999999999994"/>
      <point x="333.33333333333337" y="-306.7222222222222"/>
      <point x="333.33333333333337" y="-134.83333333333331" type="curve" smooth="yes"/>
      <point x="333.33333333333337" y="391.66666666666663" type="line" smooth="yes"/>
      <point x="333.33333333333337" y="531.0"/>
      <point x="283.8888888888889" y="605.0"/>
      <point x="175.44444444444446" y="629.5555555555555" type="curve"/>
      <point x="175.44444444444446" y="615.5555555555555" type="line"/>
      <point x="283.8888888888889" y="640.1111111111111"/>
      <point x="333.33333333333337" y="714.1111111111111"/>
      <point x="333.33333333333337" y="853.4444444444445" type="curve" smooth="yes"/>
      <point x="333.33333333333337" y="1310.8333333333333" type="line" smooth="yes"/>
      <point x="333.33333333333337" y="1482.7222222222222"/>
      <point x="417.5555555555556" y="1555.0"/>
      <point x="588.6111111111111" y="1555.0" type="curve" smooth="yes"/>
      <point x="712.3333333333334" y="1555.0" type="line"/>
      <point x="712.3333333333334" y="1625.7777777777778" type="line"/>
      <point x="680.8333333333334" y="1631.888888888889"/>
      <point x="633.8888888888889" y="1636.0"/>
      <point x="588.0555555555555" y="1636.0" type="curve" smooth="yes"/>
      <point x="361.66666666666663" y="1636.0"/>
      <point x="245.5" y="1526.8333333333333"/>
      <point x="245.5" y="1305.111111111111" type="curve" smooth="yes"/>
      <point x="245.5" y="843.6666666666666" type="line" smooth="yes"/>
      <point x="245.5" y="715.3888888888889"/>
      <point x="184.5" y="661.9444444444445"/>
      <point x="65.66666666666667" y="661.9444444444445" type="curve" smooth="yes"/>
      <point x="47.722222222222214" y="661.9444444444445" type="line"/>
      <point x="47.722222222222214" y="583.1666666666666" type="line"/>
      <point x="65.66666666666667" y="583.1666666666666" type="line" smooth="yes"/>
      <point x="184.5" y="583.1666666666666"/>
      <point x="245.5" y="529.7222222222222"/>
      <point x="245.5" y="401.44444444444446" type="curve" smooth="yes"/>
      <point x="245.5" y="-129.1111111111111" type="line" smooth="yes"/>
      <point x="245.5" y="-350.8333333333333"/>
      <point x="361.66666666666663" y="-460.0"/>
    </contour>
  </outline>
</glyph>
<glyph name="bar" format="2">
  <advance width="456.33333333333337"/>
  <unicode hex="007C"/>
  <outline>
    <contour>
      <point x="185.5" y="-440.0" type="line"/>
      <point x="270.83333333333337" y="-440.0" type="line"/>
      <point x="270.83333333333337" y="1616.0" type="line"/>
      <point x="185.5" y="1616.0" type="line"/>
    </contour>
  </outline>
</glyph>
<glyph name="braceright" format="2">
  <advance width="673.1111111111111"/>
  <unicode hex="007D"/>
  <outline>
    <contour>
      <point x="85.05555555555557" y="-460.0" type="curve" smooth="yes"/>
      <point x="311.44444444444446" y="-460.0"/>
      <point x="427.61111111111114" y="-350.8333333333333"/>
      <point x="427.61111111111114" y="-129.1111111111111" type="curve" smooth="yes"/>
      <point x="427.61111111111114" y="401.44444444444446" type="line" smooth="yes"/>
      <point x="427.61111111111114" y="529.7222222222222"/>
      <point x="488.61111111111114" y="583.1666666666666"/>
      <point x="607.4444444444445" y="583.1666666666666" type="curve" smooth="yes"/>
      <point x="625.3888888888889" y="583.1666666666666" type="line"/>
      <point x="625.3888888888889" y="661.9444444444445" type="line"/>
      <point x="607.4444444444445" y="661.9444444444445" type="line" smooth="yes"/>
      <point x="488.61111111111114" y="661.9444444444445"/>
      <point x="427.61111111111114" y="715.3888888888889"/>
      <point x="427.61111111111114" y="843.6666666666666" type="curve" smooth="yes"/>
      <point x="427.61111111111114" y="1305.111111111111" type="line" smooth="yes"/>
      <point x="427.61111111111114" y="1526.8333333333333"/>
      <point x="311.44444444444446" y="1636.0"/>
      <point x="85.05555555555557" y="1636.0" type="curve" smooth="yes"/>
      <point x="39.222222222222236" y="1636.0"/>
      <point x="-7.722222222222214" y="1631.888888888889"/>
      <point x="-39.22222222222222" y="1625.7777777777778" type="curve"/>
      <point x="-39.22222222222222" y="1555.0" type="line"/>
      <point x="84.5" y="1555.0" type="line" smooth="yes"/>
      <point x="255.55555555555554" y="1555.0"/>
      <point x="339.77777777777777" y="1482.7222222222222"/>
      <point x="339.77777777777777" y="1310.8333333333333" type="curve" smooth="yes"/>
      <point x="339.77777777777777" y="853.4444444444445" type="line" smooth="yes"/>
      <point x="339.77777777777777" y="714.1111111111111"/>
      <point x="389.38888888888886" y="640.1111111111111"/>
      <point x="497.6666666666667" y="615.5555555555555" type="curve"/>
      <point x="497.6666666666667" y="629.5555555555555" type="line"/>
      <point x="389.38888888888886" y="605.0"/>
      <point x="339.77777777777777" y="531.0"/>
      <point x="339.77777777777777" y="391.66666666666663" type="curve" smooth="yes"/>
      <point x="339.77777777777777" y="-134.83333333333331" type="line" smooth="yes"/>
      <point x="339.77777777777777" y="-306.7222222222222"/>
      <point x="255.55555555555554" y="-378.99999999999994"/>
      <point x="84.5" y="-378.99999999999994" type="curve" smooth="yes"/>
      <point x="-39.22222222222222" y="-378.99999999999994" type="line"/>
      <point x="-39.22222222222222" y="-449.77777777777777" type="line"/>
      <point x="-7.722222222222214" y="-455.8888888888889"/>
      <point x="39.222222222222236" y="-460.0"/>
    </contour>
  </outline>
</glyph>
<glyph name="asciitilde" format="2">
  <advance width="1065.0"/>
  <unicode hex="007E"/>
  <outline>
    <contour>
      <point x="706.3888888888889" y="657.3333333333333" type="curve" smooth="yes"/>
      <point x="786.2222222222223" y="657.3333333333333"/>
      <point x="856.5555555555555" y="689.2222222222222"/>
      <point x="901.9444444444445" y="748.0" type="curve"/>
      <point x="901.9444444444445" y="843.3333333333334" type="line"/>
      <point x="846.3888888888889" y="771.0"/>
      <point x="781.8888888888889" y="735.2222222222223"/>
      <point x="704.7222222222223" y="735.2222222222223" type="curve" smooth="yes"/>
      <point x="599.1666666666666" y="735.2222222222223"/>
      <point x="492.3888888888889" y="851.3333333333334"/>
      <point x="358.6111111111111" y="851.3333333333334" type="curve" smooth="yes"/>
      <point x="278.77777777777777" y="851.3333333333334"/>
      <point x="208.44444444444443" y="819.4444444444445"/>
      <point x="163.05555555555554" y="760.6666666666667" type="curve"/>
      <point x="163.05555555555554" y="665.3333333333333" type="line"/>
      <point x="218.6111111111111" y="737.6666666666666"/>
      <point x="283.1111111111111" y="773.4444444444445"/>
      <point x="360.27777777777777" y="773.4444444444445" type="curve" smooth="yes"/>
      <point x="465.8333333333333" y="773.4444444444445"/>
      <point x="572.6111111111111" y="657.3333333333333"/>
    </contour>
  </outline>
</glyph>
<glyph name="exclamdown" format="2">
  <advance width="457.8888888888889"/>
  <unicode hex="00A1"/>
  <outline>
    <contour>
      <point x="199.27777777777777" y="751.6666666666666" type="line"/>
      <point x="182.38888888888886" y="184.49999999999997" type="line"/>
      <point x="182.38888888888886" y="-380.0" type="line"/>
      <point x="275.50000000000006" y="-380.0" type="line"/>
      <point x="275.50000000000006" y="184.49999999999997" type="line"/>
      <point x="258.8888888888889" y="751.6666666666666" type="line"/>
    </contour>
    <contour>
      <point x="228.94444444444446" y="1091.6666666666667" type="curve" smooth="yes"/>
      <point x="185.88888888888889" y="1091.6666666666667"/>
      <point x="155.49999999999997" y="1063.7222222222222"/>
      <point x="155.49999999999997" y="1019.2777777777777" type="curve" smooth="yes"/>
      <point x="155.49999999999997" y="974.8333333333333"/>
      <point x="185.66666666666666" y="944.9999999999999"/>
      <point x="228.94444444444446" y="944.9999999999999" type="curve" smooth="yes"/>
      <point x="272.2222222222223" y="944.9999999999999"/>
      <point x="302.38888888888897" y="975.0555555555555"/>
      <point x="302.38888888888897" y="1019.2777777777777" type="curve" smooth="yes"/>
      <point x="302.38888888888897" y="1063.5"/>
      <point x="272.00000000000006" y="1091.6666666666667"/>
    </contour>
  </outline>
</glyph>
<glyph name="cent" format="2">
  <advance width="841.7222222222223"/>
  <unicode hex="00A2"/>
  <outline>
    <contour>
      <point x="545.8333333333334" y="-18.22222222222222" type="curve" smooth="yes"/>
      <point x="630.1111111111111" y="-18.22222222222222"/>
      <point x="716.1111111111111" y="-3.222222222222223"/>
      <point x="802.6111111111111" y="28.33333333333333" type="curve"/>
      <point x="802.6111111111111" y="110.88888888888894" type="line"/>
      <point x="705.0555555555557" y="76.66666666666671"/>
      <point x="626.1111111111112" y="62.88888888888894"/>
      <point x="556.2222222222223" y="62.88888888888894" type="curve" smooth="yes"/>
      <point x="321.9444444444445" y="62.88888888888894"/>
      <point x="197.22222222222229" y="188.50000000000006"/>
      <point x="197.22222222222229" y="544.3333333333334" type="curve" smooth="yes"/>
      <point x="197.22222222222229" y="894.0"/>
      <point x="326.3888888888889" y="1016.1111111111111"/>
      <point x="591.4444444444445" y="1016.1111111111111" type="curve" smooth="yes"/>
      <point x="659.3888888888889" y="1016.1111111111111"/>
      <point x="728.8888888888889" y="1006.3333333333333"/>
      <point x="802.6111111111111" y="985.9444444444443" type="curve"/>
      <point x="802.6111111111111" y="1068.5" type="line"/>
      <point x="732.1666666666667" y="1088.2777777777778"/>
      <point x="661.3888888888889" y="1097.2222222222222"/>
      <point x="590.8333333333334" y="1097.2222222222222" type="curve" smooth="yes"/>
      <point x="275.05555555555554" y="1097.2222222222222"/>
      <point x="104.94444444444443" y="937.5"/>
      <point x="104.94444444444443" y="540.3888888888889" type="curve" smooth="yes"/>
      <point x="104.94444444444443" y="142.72222222222223"/>
      <point x="263.6111111111111" y="-18.22222222222222"/>
    </contour>
    <contour>
      <point x="503.16666666666663" y="-240.0" type="line"/>
      <point x="583.6111111111112" y="-240.0" type="line"/>
      <point x="583.6111111111112" y="3.3333333333333446" type="line"/>
      <point x="503.16666666666663" y="3.3333333333333446" type="line"/>
    </contour>
    <contour>
      <point x="503.16666666666663" y="1077.7777777777778" type="line"/>
      <point x="583.6111111111112" y="1077.7777777777778" type="line"/>
      <point x="583.6111111111112" y="1321.111111111111" type="line"/>
      <point x="503.16666666666663" y="1321.111111111111" type="line"/>
    </contour>
  </outline>
</glyph>
<glyph name="sterling" format="2">
  <advance width="1231.611111111111"/>
  <unicode hex="00A3"/>
  <outline>
    <contour>
      <point x="310.44444444444446" y="37.11111111111113" type="line"/>
      <point x="398.00000000000006" y="37.11111111111113" type="line"/>
      <point x="398.00000000000006" y="1062.0" type="line" smooth="yes"/>
      <point x="398.00000000000006" y="1318.611111111111"/>
      <point x="538.4444444444445" y="1416.611111111111"/>
      <point x="803.8333333333334" y="1416.611111111111" type="curve" smooth="yes"/>
      <point x="907.8333333333334" y="1416.611111111111"/>
      <point x="1010.5" y="1402.5"/>
      <point x="1114.6666666666667" y="1370.0" type="curve"/>
      <point x="1114.6666666666667" y="1453.5" type="line"/>
      <point x="1023.4444444444445" y="1483.0555555555557"/>
      <point x="909.6666666666667" y="1498.111111111111"/>
      <point x="804.9444444444445" y="1498.111111111111" type="curve" smooth="yes"/>
      <point x="483.3333333333333" y="1498.111111111111"/>
      <point x="310.44444444444446" y="1359.2777777777778"/>
      <point x="310.44444444444446" y="1061.0" type="curve" smooth="yes"/>
    </contour>
    <contour>
      <point x="79.44444444444444" y="0.0" type="line"/>
      <point x="1153.1666666666667" y="0.0" type="line"/>
      <point x="1153.1666666666667" y="79.4444444444445" type="line"/>
      <point x="79.44444444444444" y="79.4444444444445" type="line"/>
    </contour>
    <contour>
      <point x="79.44444444444444" y="711.1666666666666" type="line"/>
      <point x="943.0" y="711.1666666666666" type="line"/>
      <point x="943.0" y="788.8333333333334" type="line"/>
      <point x="79.44444444444444" y="788.8333333333334" type="line"/>
    </contour>
  </outline>
</glyph>
<glyph name="currency" format="2">
  <advance width="1112.2222222222222"/>
  <unicode hex="00A4"/>
  <outline>
    <contour>
      <point x="332.11111111111114" y="932.2222222222222" type="line"/>
      <point x="363.8888888888889" y="962.1111111111111" type="line"/>
      <point x="267.5555555555556" y="1086.6666666666667" type="line"/>
      <point x="170.33333333333334" y="1187.7777777777778" type="line"/>
      <point x="106.44444444444443" y="1123.888888888889" type="line"/>
      <point x="209.44444444444446" y="1026.6666666666667" type="line"/>
    </contour>
    <contour>
      <point x="780.1111111111111" y="932.2222222222222" type="line"/>
      <point x="902.7777777777778" y="1026.6666666666667" type="line"/>
      <point x="1005.7777777777778" y="1123.888888888889" type="line"/>
      <point x="941.8888888888889" y="1187.7777777777778" type="line"/>
      <point x="844.6666666666667" y="1086.6666666666667" type="line"/>
      <point x="748.3333333333334" y="962.1111111111111" type="line"/>
    </contour>
    <contour>
      <point x="940.0" y="292.2222222222222" type="line"/>
      <point x="1003.8888888888889" y="356.1111111111111" type="line"/>
      <point x="902.7777777777778" y="453.3333333333333" type="line"/>
      <point x="789.5555555555555" y="538.3333333333334" type="line"/>
      <point x="757.7777777777778" y="504.6666666666667" type="line"/>
      <point x="842.7777777777778" y="393.3333333333333" type="line"/>
    </contour>
    <contour>
      <point x="172.22222222222223" y="292.2222222222222" type="line"/>
      <point x="269.44444444444446" y="393.3333333333333" type="line"/>
      <point x="354.4444444444445" y="504.6666666666667" type="line"/>
      <point x="322.6666666666667" y="538.3333333333334" type="line"/>
      <point x="209.44444444444446" y="453.3333333333333" type="line"/>
      <point x="108.33333333333331" y="356.1111111111111" type="line"/>
    </contour>
    <contour>
      <point x="556.1111111111111" y="407.94444444444446" type="curve" smooth="yes"/>
      <point x="744.0" y="407.94444444444446"/>
      <point x="871.5" y="540.2222222222222"/>
      <point x="871.5" y="740.0" type="curve" smooth="yes"/>
      <point x="871.5" y="937.7777777777778"/>
      <point x="744.0" y="1070.0555555555557"/>
      <point x="556.1111111111111" y="1070.0555555555557" type="curve" smooth="yes"/>
      <point x="366.33333333333337" y="1070.0555555555557"/>
      <point x="240.72222222222223" y="937.7777777777778"/>
      <point x="240.72222222222223" y="740.0" type="curve" smooth="yes"/>
      <point x="240.72222222222223" y="540.2222222222222"/>
      <point x="366.33333333333337" y="407.94444444444446"/>
    </contour>
    <contour>
      <point x="556.1111111111111" y="478.94444444444446" type="curve" smooth="yes"/>
      <point x="411.6666666666667" y="478.94444444444446"/>
      <point x="312.7222222222223" y="575.7777777777778"/>
      <point x="312.7222222222223" y="740.0" type="curve" smooth="yes"/>
      <point x="312.7222222222223" y="904.2222222222222"/>
      <point x="411.6666666666667" y="1001.0555555555555"/>
      <point x="558.1111111111111" y="1001.0555555555555" type="curve" smooth="yes"/>
      <point x="714.0" y="1001.0555555555555"/>
      <point x="799.5" y="892.4444444444445"/>
      <point x="799.5" y="740.0" type="curve" smooth="yes"/>
      <point x="799.5" y="573.8888888888889"/>
      <point x="700.5555555555555" y="478.94444444444446"/>
    </contour>
  </outline>
</glyph>
<glyph name="yen" format="2">
  <advance width="1174.7222222222222"/>
  <unicode hex="00A5"/>
  <outline>
    <contour>
      <point x="543.3333333333334" y="0.0" type="line"/>
      <point x="631.6666666666667" y="0.0" type="line"/>
      <point x="631.6666666666667" y="710.6666666666666" type="line"/>
      <point x="609.8888888888889" y="641.5" type="line"/>
      <point x="1167.3333333333335" y="1480.0" type="line"/>
      <point x="1068.3333333333333" y="1480.0" type="line"/>
      <point x="569.7222222222223" y="728.3888888888889" type="line"/>
      <point x="608.2777777777778" y="728.3888888888889" type="line"/>
      <point x="110.38888888888894" y="1480.0" type="line"/>
      <point x="6.666666666666652" y="1480.0" type="line"/>
      <point x="565.1111111111111" y="641.5" type="line"/>
      <point x="543.3333333333334" y="711.0" type="line"/>
    </contour>
    <contour>
      <point x="223.88888888888889" y="315.38888888888886" type="line"/>
      <point x="951.1111111111112" y="315.38888888888886" type="line"/>
      <point x="951.1111111111112" y="389.27777777777777" type="line"/>
      <point x="223.88888888888889" y="389.27777777777777" type="line"/>
    </contour>
    <contour>
      <point x="223.88888888888889" y="658.7222222222222" type="line"/>
      <point x="951.1111111111112" y="658.7222222222222" type="line"/>
      <point x="951.1111111111112" y="732.6111111111111" type="line"/>
      <point x="223.88888888888889" y="732.6111111111111" type="line"/>
    </contour>
  </outline>
</glyph>
<glyph name="brokenbar" format="2">
  <advance width="456.33333333333337"/>
  <unicode hex="00A6"/>
  <outline>
    <contour>
      <point x="185.5" y="836.0" type="line"/>
      <point x="270.83333333333337" y="836.0" type="line"/>
      <point x="270.83333333333337" y="1616.0" type="line"/>
      <point x="185.5" y="1616.0" type="line"/>
    </contour>
    <contour>
      <point x="185.5" y="-440.0" type="line"/>
      <point x="270.83333333333337" y="-440.0" type="line"/>
      <point x="270.83333333333337" y="340.0" type="line"/>
      <point x="185.5" y="340.0" type="line"/>
    </contour>
  </outline>
</glyph>
<glyph name="section" format="2">
  <advance width="971.7777777777778"/>
  <unicode hex="00A7"/>
  <outline>
    <contour>
      <point x="425.83333333333337" y="-18.22222222222222" type="curve" smooth="yes"/>
      <point x="687.7222222222223" y="-18.22222222222222"/>
      <point x="819.0555555555557" y="97.33333333333334"/>
      <point x="819.0555555555557" y="283.61111111111114" type="curve" smooth="yes"/>
      <point x="819.0555555555557" y="430.6666666666667"/>
      <point x="746.7777777777778" y="520.2777777777778"/>
      <point x="545.2777777777778" y="565.6666666666666" type="curve" smooth="yes"/>
      <point x="409.44444444444446" y="594.7777777777778" type="line" smooth="yes"/>
      <point x="266.0555555555556" y="626.6666666666666"/>
      <point x="213.0555555555556" y="698.0555555555555"/>
      <point x="213.0555555555556" y="803.1666666666666" type="curve" smooth="yes"/>
      <point x="213.0555555555556" y="875.0"/>
      <point x="246.00000000000003" y="937.1111111111111"/>
      <point x="314.2777777777778" y="978.5" type="curve"/>
      <point x="254.11111111111111" y="1026.888888888889" type="line"/>
      <point x="175.22222222222223" y="973.3888888888889"/>
      <point x="130.66666666666666" y="892.9444444444445"/>
      <point x="130.66666666666666" y="799.0555555555555" type="curve" smooth="yes"/>
      <point x="130.66666666666666" y="652.5"/>
      <point x="204.27777777777777" y="557.5555555555555"/>
      <point x="396.55555555555554" y="514.2222222222222" type="curve" smooth="yes"/>
      <point x="532.3333333333334" y="485.1111111111111" type="line" smooth="yes"/>
      <point x="674.2222222222222" y="453.55555555555554"/>
      <point x="730.8333333333333" y="396.16666666666663"/>
      <point x="730.8333333333333" y="276.6666666666667" type="curve" smooth="yes"/>
      <point x="730.8333333333333" y="138.8888888888889"/>
      <point x="637.5555555555555" y="60.00000000000004"/>
      <point x="428.33333333333337" y="60.00000000000004" type="curve" smooth="yes"/>
      <point x="337.72222222222223" y="60.00000000000004"/>
      <point x="255.33333333333331" y="71.16666666666671"/>
      <point x="149.16666666666666" y="102.94444444444449" type="curve"/>
      <point x="149.16666666666666" y="22.833333333333332" type="line"/>
      <point x="236.55555555555554" y="-5.166666666666667"/>
      <point x="326.22222222222223" y="-18.22222222222222"/>
    </contour>
    <contour>
      <point x="722.2777777777778" y="453.3888888888889" type="line"/>
      <point x="797.0" y="506.05555555555554"/>
      <point x="841.1111111111112" y="583.8888888888889"/>
      <point x="841.1111111111112" y="683.8888888888889" type="curve" smooth="yes"/>
      <point x="841.1111111111112" y="832.4444444444445"/>
      <point x="768.8333333333334" y="924.2777777777778"/>
      <point x="567.8333333333334" y="969.4444444444445" type="curve" smooth="yes"/>
      <point x="431.5" y="998.4444444444445" type="line" smooth="yes"/>
      <point x="289.61111111111114" y="1030.0"/>
      <point x="240.38888888888894" y="1098.611111111111"/>
      <point x="240.38888888888894" y="1202.888888888889" type="curve" smooth="yes"/>
      <point x="240.38888888888894" y="1324.388888888889"/>
      <point x="325.44444444444446" y="1417.888888888889"/>
      <point x="546.3888888888889" y="1417.888888888889" type="curve" smooth="yes"/>
      <point x="627.7222222222223" y="1417.888888888889"/>
      <point x="693.9444444444445" y="1409.888888888889"/>
      <point x="782.7222222222223" y="1386.2222222222222" type="curve"/>
      <point x="782.7222222222223" y="1466.3333333333333" type="line"/>
      <point x="706.3333333333334" y="1486.111111111111"/>
      <point x="630.4444444444445" y="1496.111111111111"/>
      <point x="544.5555555555557" y="1496.111111111111" type="curve" smooth="yes"/>
      <point x="276.8888888888889" y="1496.111111111111"/>
      <point x="152.16666666666666" y="1369.0"/>
      <point x="152.16666666666666" y="1198.7777777777778" type="curve" smooth="yes"/>
      <point x="152.16666666666666" y="1054.2777777777778"/>
      <point x="225.66666666666666" y="961.3888888888889"/>
      <point x="419.1111111111111" y="917.8888888888889" type="curve" smooth="yes"/>
      <point x="554.8888888888889" y="888.7777777777777" type="line" smooth="yes"/>
      <point x="698.2777777777778" y="856.8888888888889"/>
      <point x="758.7222222222222" y="796.7222222222222"/>
      <point x="758.7222222222222" y="676.6666666666666" type="curve" smooth="yes"/>
      <point x="758.7222222222222" y="598.1111111111111"/>
      <point x="725.5555555555555" y="539.0555555555555"/>
      <point x="659.7222222222222" y="500.27777777777777" type="curve"/>
    </contour>
  </outline>
</glyph>
<glyph name="dieresis" format="2">
  <advance width="1011.1111111111111"/>
  <unicode hex="00A8"/>
  <anchor x="505.55555555555554" y="1200.0" name="_top"/>
  <anchor x="505.55555555555554" y="1559.3333333333333" name="top"/>
  <outline>
    <contour>
      <point x="709.1111111111111" y="1351.9444444444443" type="curve" smooth="yes"/>
      <point x="751.0555555555557" y="1351.9444444444443"/>
      <point x="779.8333333333334" y="1378.8333333333333"/>
      <point x="779.8333333333334" y="1421.7777777777778" type="curve" smooth="yes"/>
      <point x="779.8333333333334" y="1464.7222222222222"/>
      <point x="751.0555555555557" y="1493.5"/>
      <point x="709.1111111111111" y="1493.5" type="curve" smooth="yes"/>
      <point x="667.1666666666667" y="1493.5"/>
      <point x="638.3888888888889" y="1464.7222222222222"/>
      <point x="638.3888888888889" y="1421.7777777777778" type="curve" smooth="yes"/>
      <point x="638.3888888888889" y="1378.8333333333333"/>
      <point x="667.1666666666667" y="1351.9444444444443"/>
    </contour>
    <contour>
      <point x="302.0" y="1351.9444444444443" type="curve" smooth="yes"/>
      <point x="343.94444444444446" y="1351.9444444444443"/>
      <point x="372.7222222222223" y="1378.8333333333333"/>
      <point x="372.7222222222223" y="1421.7777777777778" type="curve" smooth="yes"/>
      <point x="372.7222222222223" y="1464.7222222222222"/>
      <point x="343.94444444444446" y="1493.5"/>
      <point x="302.0" y="1493.5" type="curve" smooth="yes"/>
      <point x="260.05555555555554" y="1493.5"/>
      <point x="231.27777777777777" y="1464.7222222222222"/>
      <point x="231.27777777777777" y="1421.7777777777778" type="curve" smooth="yes"/>
      <point x="231.27777777777777" y="1378.8333333333333"/>
      <point x="260.05555555555554" y="1351.9444444444443"/>
    </contour>
  </outline>
</glyph>
<glyph name="copyright" format="2">
  <advance width="1719.2222222222222"/>
  <unicode hex="00A9"/>
  <outline>
    <contour>
      <point x="859.6111111111111" y="-22.0" type="curve" smooth="yes"/>
      <point x="1305.9444444444443" y="-22.0"/>
      <point x="1603.9444444444443" y="282.0"/>
      <point x="1603.9444444444443" y="740.0" type="curve" smooth="yes"/>
      <point x="1603.9444444444443" y="1198.0"/>
      <point x="1305.9444444444443" y="1502.0"/>
      <point x="859.6111111111111" y="1502.0" type="curve" smooth="yes"/>
      <point x="413.27777777777777" y="1502.0"/>
      <point x="115.27777777777777" y="1198.0"/>
      <point x="115.27777777777777" y="740.0" type="curve" smooth="yes"/>
      <point x="115.27777777777777" y="282.0"/>
      <point x="413.27777777777777" y="-22.0"/>
    </contour>
    <contour>
      <point x="895.6111111111111" y="324.0" type="curve" smooth="yes"/>
      <point x="973.8333333333334" y="324.0"/>
      <point x="1045.8333333333333" y="336.0"/>
      <point x="1112.8333333333333" y="365.3333333333333" type="curve"/>
      <point x="1112.8333333333333" y="441.5555555555556" type="line"/>
      <point x="1031.0555555555557" y="410.33333333333337"/>
      <point x="960.7222222222222" y="400.5555555555556"/>
      <point x="902.8333333333334" y="400.5555555555556" type="curve" smooth="yes"/>
      <point x="711.5" y="400.5555555555556"/>
      <point x="592.8333333333334" y="507.44444444444446"/>
      <point x="592.8333333333334" y="737.6666666666666" type="curve" smooth="yes"/>
      <point x="592.8333333333334" y="962.3333333333333"/>
      <point x="711.1666666666667" y="1067.4444444444443"/>
      <point x="924.2777777777778" y="1067.4444444444443" type="curve" smooth="yes"/>
      <point x="993.5" y="1067.4444444444443"/>
      <point x="1050.9444444444443" y="1057.6666666666667"/>
      <point x="1112.8333333333333" y="1040.111111111111" type="curve"/>
      <point x="1112.8333333333333" y="1116.3333333333333" type="line"/>
      <point x="1049.2777777777778" y="1136.0"/>
      <point x="989.1666666666666" y="1144.0"/>
      <point x="920.8333333333334" y="1144.0" type="curve" smooth="yes"/>
      <point x="655.9444444444445" y="1144.0"/>
      <point x="508.16666666666663" y="995.7777777777778"/>
      <point x="508.16666666666663" y="733.8888888888889" type="curve" smooth="yes"/>
      <point x="508.16666666666663" y="462.6666666666667"/>
      <point x="663.2777777777777" y="324.0"/>
    </contour>
    <contour>
      <point x="859.6111111111111" y="54.00000000000003" type="curve" smooth="yes"/>
      <point x="457.3888888888889" y="54.00000000000003"/>
      <point x="191.83333333333334" y="326.33333333333337"/>
      <point x="191.83333333333334" y="740.0" type="curve" smooth="yes"/>
      <point x="191.83333333333334" y="1153.6666666666667"/>
      <point x="457.3888888888889" y="1426.0"/>
      <point x="859.6111111111111" y="1426.0" type="curve" smooth="yes"/>
      <point x="1261.8333333333333" y="1426.0"/>
      <point x="1527.388888888889" y="1153.6666666666667"/>
      <point x="1527.388888888889" y="740.0" type="curve" smooth="yes"/>
      <point x="1527.388888888889" y="326.33333333333337"/>
      <point x="1261.8333333333333" y="54.00000000000003"/>
    </contour>
  </outline>
</glyph>
<glyph name="ordfeminine" format="2">
  <advance width="836.5555555555555"/>
  <unicode hex="00AA"/>
  <outline>
    <contour>
      <point x="350.72222222222223" y="595.7777777777778" type="curve" smooth="yes"/>
      <point x="460.6111111111111" y="595.7777777777778"/>
      <point x="562.5555555555555" y="638.8333333333334"/>
      <point x="625.6666666666666" y="710.8333333333334" type="curve"/>
      <point x="632.2777777777777" y="710.8333333333334" type="line"/>
      <point x="639.5" y="610.0" type="line"/>
      <point x="710.4444444444445" y="610.0" type="line"/>
      <point x="710.4444444444445" y="1196.111111111111" type="line" smooth="yes"/>
      <point x="710.4444444444445" y="1420.3333333333333"/>
      <point x="596.6666666666667" y="1492.5555555555557"/>
      <point x="385.6666666666667" y="1492.5555555555557" type="curve" smooth="yes"/>
      <point x="303.5" y="1492.5555555555557"/>
      <point x="208.88888888888889" y="1478.6666666666667"/>
      <point x="135.11111111111111" y="1451.7777777777778" type="curve"/>
      <point x="135.11111111111111" y="1375.8333333333333" type="line"/>
      <point x="222.5" y="1405.2777777777778"/>
      <point x="308.88888888888886" y="1418.2222222222222"/>
      <point x="378.44444444444446" y="1418.2222222222222" type="curve" smooth="yes"/>
      <point x="540.8888888888889" y="1418.2222222222222"/>
      <point x="628.2777777777777" y="1371.111111111111"/>
      <point x="628.2777777777777" y="1200.888888888889" type="curve" smooth="yes"/>
      <point x="628.2777777777777" y="793.3333333333334" type="line"/>
      <point x="555.5555555555555" y="705.2777777777778"/>
      <point x="458.05555555555554" y="668.3888888888889"/>
      <point x="365.6666666666667" y="668.3888888888889" type="curve" smooth="yes"/>
      <point x="233.5555555555556" y="668.3888888888889"/>
      <point x="167.83333333333337" y="728.1111111111111"/>
      <point x="167.83333333333337" y="837.1111111111111" type="curve" smooth="yes"/>
      <point x="167.83333333333337" y="940.2777777777778"/>
      <point x="234.33333333333337" y="997.1666666666666"/>
      <point x="397.22222222222223" y="1014.2777777777777" type="curve" smooth="yes"/>
      <point x="668.8333333333334" y="1042.8333333333333" type="line"/>
      <point x="663.2777777777778" y="1108.5555555555557" type="line"/>
      <point x="392.8888888888889" y="1079.888888888889" type="line" smooth="yes"/>
      <point x="174.72222222222223" y="1057.5555555555557"/>
      <point x="82.27777777777777" y="974.8888888888889"/>
      <point x="82.27777777777777" y="828.7777777777778" type="curve" smooth="yes"/>
      <point x="82.27777777777777" y="684.2777777777778"/>
      <point x="185.38888888888889" y="595.7777777777778"/>
    </contour>
  </outline>
</glyph>
<glyph name="guillemetleft" format="2">
  <advance width="908.1666666666667"/>
  <unicode hex="00AB"/>
  <outline>
    <contour>
      <point x="380.1111111111111" y="139.44444444444443" type="line"/>
      <point x="473.88888888888897" y="139.44444444444443" type="line"/>
      <point x="218.3333333333334" y="560.5555555555555" type="line"/>
      <point x="473.88888888888897" y="981.6666666666666" type="line"/>
      <point x="380.1111111111111" y="981.6666666666666" type="line"/>
      <point x="124.55555555555554" y="560.5555555555555" type="line"/>
    </contour>
    <contour>
      <point x="729.8333333333334" y="139.44444444444443" type="line"/>
      <point x="823.6111111111112" y="139.44444444444443" type="line"/>
      <point x="568.0555555555557" y="560.5555555555555" type="line"/>
      <point x="823.6111111111112" y="981.6666666666666" type="line"/>
      <point x="729.8333333333334" y="981.6666666666666" type="line"/>
      <point x="474.2777777777778" y="560.5555555555555" type="line"/>
    </contour>
  </outline>
</glyph>
<glyph name="logicalnot" format="2">
  <advance width="1333.888888888889"/>
  <unicode hex="00AC"/>
  <outline>
    <contour>
      <point x="1098.7222222222222" y="192.44444444444446" type="line"/>
      <point x="1181.5" y="192.44444444444446" type="line"/>
      <point x="1181.5" y="799.1111111111111" type="line"/>
      <point x="163.05555555555554" y="799.1111111111111" type="line"/>
      <point x="163.05555555555554" y="720.8888888888889" type="line"/>
      <point x="1098.7222222222222" y="720.8888888888889" type="line"/>
    </contour>
  </outline>
</glyph>
<glyph name="softhyphen" format="2">
  <advance width="806.7777777777778"/>
  <unicode hex="00AD"/>
  <outline>
    <contour>
      <point x="163.05555555555554" y="520.8333333333333" type="line"/>
      <point x="643.7222222222223" y="520.8333333333333" type="line"/>
      <point x="643.7222222222223" y="600.2777777777778" type="line"/>
      <point x="163.05555555555554" y="600.2777777777778" type="line"/>
    </contour>
  </outline>
</glyph>
<glyph name="registered" format="2">
  <advance width="1531.888888888889"/>
  <unicode hex="00AE"/>
  <outline>
    <contour>
      <point x="765.9444444444445" y="268.0" type="curve" smooth="yes"/>
      <point x="1127.9444444444443" y="268.0"/>
      <point x="1375.9444444444443" y="518.0"/>
      <point x="1375.9444444444443" y="882.0" type="curve" smooth="yes"/>
      <point x="1375.9444444444443" y="1246.0"/>
      <point x="1127.9444444444443" y="1498.0"/>
      <point x="765.9444444444445" y="1498.0" type="curve" smooth="yes"/>
      <point x="403.94444444444446" y="1498.0"/>
      <point x="155.94444444444443" y="1246.0"/>
      <point x="155.94444444444443" y="882.0" type="curve" smooth="yes"/>
      <point x="155.94444444444443" y="518.0"/>
      <point x="403.94444444444446" y="268.0"/>
    </contour>
    <contour>
      <point x="939.9444444444445" y="600.0" type="line"/>
      <point x="1021.8333333333334" y="600.0" type="line"/>
      <point x="847.1666666666666" y="857.7777777777777" type="line"/>
      <point x="781.3888888888889" y="831.7777777777777" type="line"/>
    </contour>
    <contour>
      <point x="765.9444444444445" y="339.0" type="curve" smooth="yes"/>
      <point x="441.27777777777777" y="339.0"/>
      <point x="229.5" y="553.0"/>
      <point x="229.5" y="882.0" type="curve" smooth="yes"/>
      <point x="229.5" y="1211.111111111111"/>
      <point x="441.27777777777777" y="1427.0"/>
      <point x="765.9444444444445" y="1427.0" type="curve" smooth="yes"/>
      <point x="1090.611111111111" y="1427.0"/>
      <point x="1302.388888888889" y="1211.111111111111"/>
      <point x="1302.388888888889" y="882.0" type="curve" smooth="yes"/>
      <point x="1302.388888888889" y="553.0"/>
      <point x="1090.611111111111" y="339.0"/>
    </contour>
    <contour>
      <point x="557.1666666666666" y="600.0" type="line"/>
      <point x="628.7222222222222" y="600.0" type="line"/>
      <point x="629.0555555555555" y="823.7777777777777" type="line"/>
      <point x="752.2777777777777" y="823.7777777777777" type="line" smooth="yes"/>
      <point x="915.2777777777777" y="823.7777777777777"/>
      <point x="997.3888888888889" y="889.6666666666666"/>
      <point x="997.3888888888889" y="1006.8888888888889" type="curve" smooth="yes"/>
      <point x="997.3888888888889" y="1124.111111111111"/>
      <point x="913.2777777777777" y="1192.0"/>
      <point x="752.2777777777777" y="1192.0" type="curve" smooth="yes"/>
      <point x="557.1666666666666" y="1192.0" type="line"/>
    </contour>
    <contour>
      <point x="629.0555555555555" y="889.6666666666666" type="line"/>
      <point x="629.0555555555555" y="1126.111111111111" type="line"/>
      <point x="765.0555555555555" y="1126.111111111111" type="line" smooth="yes"/>
      <point x="873.5" y="1126.111111111111"/>
      <point x="926.0555555555555" y="1087.0"/>
      <point x="926.0555555555555" y="1006.8888888888889" type="curve" smooth="yes"/>
      <point x="926.0555555555555" y="926.7777777777778"/>
      <point x="875.5" y="889.6666666666666"/>
      <point x="765.0555555555555" y="889.6666666666666" type="curve" smooth="yes"/>
    </contour>
  </outline>
</glyph>
<glyph name="macron" format="2">
  <advance width="1011.1111111111111"/>
  <unicode hex="00AF"/>
  <anchor x="505.55555555555554" y="1200.0" name="_top"/>
  <anchor x="505.55555555555554" y="1559.3333333333333" name="top"/>
  <outline>
    <contour>
      <point x="216.83333333333334" y="1388.5" type="line"/>
      <point x="794.2777777777778" y="1388.5" type="line"/>
      <point x="794.2777777777778" y="1458.0" type="line"/>
      <point x="216.83333333333334" y="1458.0" type="line"/>
    </contour>
  </outline>
</glyph>
<glyph name="degree" format="2">
  <advance width="983.0"/>
  <unicode hex="00B0"/>
  <outline>
    <contour>
      <point x="491.5" y="825.8888888888889" type="curve" smooth="yes"/>
      <point x="687.3888888888889" y="825.8888888888889"/>
      <point x="827.0555555555555" y="967.2222222222222"/>
      <point x="827.0555555555555" y="1161.111111111111" type="curve" smooth="yes"/>
      <point x="827.0555555555555" y="1355.0"/>
      <point x="687.3888888888889" y="1496.2222222222222"/>
      <point x="491.5" y="1496.2222222222222" type="curve" smooth="yes"/>
      <point x="295.6111111111111" y="1496.2222222222222"/>
      <point x="155.94444444444443" y="1355.0"/>
      <point x="155.94444444444443" y="1161.111111111111" type="curve" smooth="yes"/>
      <point x="155.94444444444443" y="967.2222222222222"/>
      <point x="295.6111111111111" y="825.8888888888889"/>
    </contour>
    <contour>
      <point x="491.5" y="899.5" type="curve" smooth="yes"/>
      <point x="340.61111111111114" y="899.5"/>
      <point x="233.2777777777778" y="1000.9444444444445"/>
      <point x="233.2777777777778" y="1161.111111111111" type="curve" smooth="yes"/>
      <point x="233.2777777777778" y="1321.3333333333333"/>
      <point x="340.72222222222223" y="1422.611111111111"/>
      <point x="491.5" y="1422.611111111111" type="curve" smooth="yes"/>
      <point x="642.2777777777777" y="1422.611111111111"/>
      <point x="749.7222222222222" y="1321.3333333333333"/>
      <point x="749.7222222222222" y="1161.111111111111" type="curve" smooth="yes"/>
      <point x="749.7222222222222" y="1000.9444444444445"/>
      <point x="642.3888888888889" y="899.5"/>
    </contour>
  </outline>
</glyph>
<glyph name="plusminus" format="2">
  <advance width="1065.0"/>
  <unicode hex="00B1"/>
  <outline>
    <contour>
      <point x="491.1111111111111" y="320.55555555555554" type="line"/>
      <point x="573.8888888888889" y="320.55555555555554" type="line"/>
      <point x="573.8888888888889" y="666.4444444444445" type="line"/>
      <point x="901.9444444444445" y="666.4444444444445" type="line"/>
      <point x="901.9444444444445" y="744.6666666666667" type="line"/>
      <point x="573.8888888888889" y="744.6666666666667" type="line"/>
      <point x="573.8888888888889" y="1090.5555555555557" type="line"/>
      <point x="491.1111111111111" y="1090.5555555555557" type="line"/>
      <point x="491.1111111111111" y="744.6666666666667" type="line"/>
      <point x="163.05555555555554" y="744.6666666666667" type="line"/>
      <point x="163.05555555555554" y="666.4444444444445" type="line"/>
      <point x="491.1111111111111" y="666.4444444444445" type="line"/>
    </contour>
    <contour>
      <point x="163.05555555555554" y="0.05555555555555575" type="line"/>
      <point x="901.9444444444445" y="0.05555555555555575" type="line"/>
      <point x="901.9444444444445" y="78.27777777777783" type="line"/>
      <point x="163.05555555555554" y="78.27777777777783" type="line"/>
    </contour>
  </outline>
</glyph>
<glyph name="twosuperior" format="2">
  <advance width="757.3888888888889"/>
  <unicode hex="00B2"/>
  <outline>
    <contour>
      <point x="93.0" y="-136.0" type="line"/>
      <point x="666.5555555555555" y="-136.0" type="line"/>
      <point x="666.5555555555555" y="-62.722222222222186" type="line"/>
      <point x="175.3333333333334" y="-62.722222222222186" type="line"/>
      <point x="184.61111111111117" y="-86.99999999999997" type="line"/>
      <point x="455.0555555555556" y="262.8333333333333" type="line" smooth="yes"/>
      <point x="573.0555555555555" y="414.5"/>
      <point x="617.8888888888889" y="506.6666666666667"/>
      <point x="618.8333333333334" y="615.1666666666666" type="curve" smooth="yes"/>
      <point x="619.7777777777778" y="797.1666666666666"/>
      <point x="505.6666666666667" y="876.1111111111111"/>
      <point x="311.8888888888889" y="876.1111111111111" type="curve" smooth="yes"/>
      <point x="224.27777777777777" y="876.1111111111111"/>
      <point x="141.66666666666666" y="863.0555555555555"/>
      <point x="80.94444444444444" y="838.1666666666666" type="curve"/>
      <point x="80.94444444444444" y="763.3888888888888" type="line"/>
      <point x="149.38888888888889" y="790.0555555555555"/>
      <point x="222.5" y="803.3333333333333"/>
      <point x="306.22222222222223" y="803.3333333333333" type="curve" smooth="yes"/>
      <point x="457.72222222222223" y="803.3333333333333"/>
      <point x="538.1666666666666" y="746.7777777777777"/>
      <point x="538.1666666666666" y="609.5" type="curve" smooth="yes"/>
      <point x="538.1666666666666" y="520.0"/>
      <point x="495.88888888888886" y="435.77777777777777"/>
      <point x="391.6111111111111" y="301.61111111111114" type="curve" smooth="yes"/>
      <point x="93.0" y="-89.61111111111109" type="line"/>
    </contour>
  </outline>
</glyph>
<glyph name="acute" format="2">
  <advance width="1011.1111111111111"/>
  <unicode hex="00B4"/>
  <anchor x="505.55555555555554" y="1200.0" name="_top"/>
  <anchor x="505.55555555555554" y="1561.5555555555557" name="top"/>
  <outline>
    <contour>
      <point x="464.55555555555554" y="1261.5555555555557" type="line"/>
      <point x="546.5555555555557" y="1261.5555555555557" type="line"/>
      <point x="772.5000000000001" y="1616.0" type="line"/>
      <point x="673.9444444444445" y="1616.0" type="line"/>
    </contour>
  </outline>
</glyph>
<glyph name="paragraph" format="2">
  <advance width="1194.5"/>
  <unicode hex="00B6"/>
  <outline>
    <contour>
      <point x="718.0" y="0.0" type="line"/>
      <point x="798.5" y="0.0" type="line"/>
      <point x="798.5" y="1480.0" type="line"/>
      <point x="719.0555555555555" y="1488.2777777777778"/>
      <point x="627.3888888888889" y="1494.3333333333333"/>
      <point x="531.2777777777778" y="1494.3333333333333" type="curve" smooth="yes"/>
      <point x="247.83333333333331" y="1494.3333333333333"/>
      <point x="96.94444444444444" y="1342.2777777777778"/>
      <point x="96.94444444444444" y="1003.5555555555555" type="curve" smooth="yes"/>
      <point x="96.94444444444444" y="684.7777777777777"/>
      <point x="238.27777777777777" y="510.9444444444444"/>
      <point x="563.2777777777777" y="510.9444444444444" type="curve" smooth="yes"/>
      <point x="620.3333333333333" y="510.9444444444444"/>
      <point x="665.7777777777777" y="513.8333333333333"/>
      <point x="718.0" y="520.4444444444445" type="curve"/>
    </contour>
    <contour>
      <point x="928.5" y="0.0" type="line"/>
      <point x="1009.0" y="0.0" type="line"/>
      <point x="1009.0" y="1480.0" type="line"/>
      <point x="928.5" y="1480.0" type="line"/>
    </contour>
  </outline>
</glyph>
<glyph name="cedilla" format="2">
  <advance width="1011.1111111111111"/>
  <unicode hex="00B8"/>
  <anchor x="505.55555555555554" y="0.0" name="_bottom"/>
  <outline>
    <contour>
      <point x="509.77777777777777" y="-403.33333333333337" type="curve" smooth="yes"/>
      <point x="625.5" y="-403.33333333333337"/>
      <point x="691.9444444444445" y="-348.11111111111114"/>
      <point x="691.9444444444445" y="-257.3888888888889" type="curve" smooth="yes"/>
      <point x="691.9444444444445" y="-164.66666666666666"/>
      <point x="628.4444444444445" y="-110.55555555555554"/>
      <point x="513.1666666666667" y="-110.55555555555554" type="curve"/>
      <point x="540.0" y="-140.88888888888889" type="line"/>
      <point x="540.0" y="20.0" type="line"/>
      <point x="476.33333333333337" y="20.0" type="line"/>
      <point x="476.33333333333337" y="-164.94444444444446" type="line"/>
      <point x="509.44444444444446" y="-164.94444444444446" type="line" smooth="yes"/>
      <point x="587.4444444444445" y="-164.94444444444446"/>
      <point x="628.0555555555555" y="-193.38888888888889"/>
      <point x="628.0555555555555" y="-256.3333333333333" type="curve" smooth="yes"/>
      <point x="628.0555555555555" y="-316.5"/>
      <point x="589.4444444444445" y="-345.72222222222223"/>
      <point x="511.3888888888889" y="-345.72222222222223" type="curve" smooth="yes"/>
      <point x="459.77777777777777" y="-345.72222222222223"/>
      <point x="403.94444444444446" y="-335.77777777777777"/>
      <point x="345.33333333333337" y="-305.44444444444446" type="curve"/>
      <point x="345.33333333333337" y="-366.77777777777777" type="line"/>
      <point x="388.05555555555554" y="-390.44444444444446"/>
      <point x="453.83333333333337" y="-403.33333333333337"/>
    </contour>
  </outline>
</glyph>
<glyph name="onesuperior" format="2">
  <advance width="757.3888888888889"/>
  <unicode hex="00B9"/>
  <outline>
    <contour>
      <point x="381.6111111111111" y="-115.44444444444444" type="line"/>
      <point x="460.6666666666667" y="-115.44444444444444" type="line"/>
      <point x="460.6666666666667" y="868.0" type="line"/>
      <point x="409.8888888888889" y="868.0" type="line"/>
      <point x="139.55555555555554" y="669.6111111111111" type="line"/>
      <point x="139.55555555555554" y="585.7777777777777" type="line"/>
      <point x="409.8888888888889" y="784.1666666666666" type="line"/>
      <point x="381.6111111111111" y="800.5555555555555" type="line"/>
    </contour>
    <contour>
      <point x="143.88888888888889" y="-136.0" type="line"/>
      <point x="686.4444444444445" y="-136.0" type="line"/>
      <point x="686.4444444444445" y="-62.722222222222186" type="line"/>
      <point x="143.88888888888889" y="-62.722222222222186" type="line"/>
    </contour>
  </outline>
</glyph>
<glyph name="ordmasculine" format="2">
  <advance width="912.3333333333334"/>
  <unicode hex="00BA"/>
  <outline>
    <contour>
      <point x="456.1666666666667" y="595.7777777777778" type="curve" smooth="yes"/>
      <point x="675.2777777777778" y="595.7777777777778"/>
      <point x="824.0" y="730.2777777777778"/>
      <point x="824.0" y="1046.0555555555557" type="curve" smooth="yes"/>
      <point x="824.0" y="1361.8333333333333"/>
      <point x="675.2777777777778" y="1492.5555555555557"/>
      <point x="456.1666666666667" y="1492.5555555555557" type="curve" smooth="yes"/>
      <point x="237.05555555555554" y="1492.5555555555557"/>
      <point x="88.33333333333331" y="1362.111111111111"/>
      <point x="88.33333333333331" y="1046.0555555555557" type="curve" smooth="yes"/>
      <point x="88.33333333333331" y="730.0"/>
      <point x="237.05555555555554" y="595.7777777777778"/>
    </contour>
    <contour>
      <point x="456.1666666666667" y="671.0555555555555" type="curve" smooth="yes"/>
      <point x="285.3888888888889" y="671.0555555555555"/>
      <point x="174.33333333333337" y="766.6111111111111"/>
      <point x="174.33333333333337" y="1046.0555555555557" type="curve" smooth="yes"/>
      <point x="174.33333333333337" y="1325.5555555555554"/>
      <point x="285.3888888888889" y="1417.2777777777778"/>
      <point x="456.1666666666667" y="1417.2777777777778" type="curve" smooth="yes"/>
      <point x="627.0555555555555" y="1417.2777777777778"/>
      <point x="738.0" y="1325.5555555555554"/>
      <point x="738.0" y="1046.0555555555557" type="curve" smooth="yes"/>
      <point x="738.0" y="766.6111111111111"/>
      <point x="627.0555555555555" y="671.0555555555555"/>
    </contour>
  </outline>
</glyph>
<glyph name="guillemetright" format="2">
  <advance width="908.1666666666667"/>
  <unicode hex="00BB"/>
  <outline>
    <contour>
      <point x="84.55555555555554" y="139.44444444444443" type="line"/>
      <point x="178.3333333333334" y="139.44444444444443" type="line"/>
      <point x="433.88888888888897" y="560.5555555555555" type="line"/>
      <point x="178.3333333333334" y="981.6666666666666" type="line"/>
      <point x="84.55555555555554" y="981.6666666666666" type="line"/>
      <point x="340.1111111111111" y="560.5555555555555" type="line"/>
    </contour>
    <contour>
      <point x="434.2777777777778" y="139.44444444444443" type="line"/>
      <point x="528.0555555555557" y="139.44444444444443" type="line"/>
      <point x="783.6111111111112" y="560.5555555555555" type="line"/>
      <point x="528.0555555555557" y="981.6666666666666" type="line"/>
      <point x="434.2777777777778" y="981.6666666666666" type="line"/>
      <point x="689.8333333333334" y="560.5555555555555" type="line"/>
    </contour>
  </outline>
</glyph>
<glyph name="onequarter" format="2">
  <advance width="1749.3333333333335"/>
  <unicode hex="00BC"/>
  <outline>
    <contour>
      <point x="381.6111111111111" y="636.5555555555555" type="line"/>
      <point x="460.6666666666667" y="636.5555555555555" type="line"/>
      <point x="460.6666666666667" y="1620.0" type="line"/>
      <point x="409.8888888888889" y="1620.0" type="line"/>
      <point x="139.55555555555554" y="1421.611111111111" type="line"/>
      <point x="139.55555555555554" y="1337.7777777777778" type="line"/>
      <point x="409.8888888888889" y="1536.1666666666665" type="line"/>
      <point x="381.6111111111111" y="1552.5555555555554" type="line"/>
    </contour>
    <contour>
      <point x="143.88888888888889" y="616.0" type="line"/>
      <point x="686.4444444444445" y="616.0" type="line"/>
      <point x="686.4444444444445" y="689.2777777777778" type="line"/>
      <point x="143.88888888888889" y="689.2777777777778" type="line"/>
    </contour>
    <contour>
      <point x="439.61111111111114" y="-136.0" type="line"/>
      <point x="521.3333333333334" y="-136.0" type="line"/>
      <point x="1309.7222222222224" y="1616.0" type="line"/>
      <point x="1228.0" y="1616.0" type="line"/>
    </contour>
    <contour>
      <point x="1024.3333333333335" y="111.6111111111111" type="line"/>
      <point x="1722.6666666666667" y="111.6111111111111" type="line"/>
      <point x="1722.6666666666667" y="181.94444444444446" type="line"/>
      <point x="1091.1111111111113" y="181.94444444444446" type="line"/>
      <point x="1105.7777777777778" y="158.22222222222223" type="line"/>
      <point x="1487.5555555555557" y="864.0" type="line"/>
      <point x="1406.3333333333335" y="864.0" type="line"/>
      <point x="1024.3333333333335" y="159.16666666666669" type="line"/>
    </contour>
    <contour>
      <point x="1503.8333333333335" y="-136.0" type="line"/>
      <point x="1578.5" y="-136.0" type="line"/>
      <point x="1578.5" y="526.0" type="line"/>
      <point x="1518.4444444444446" y="526.0" type="line"/>
      <point x="1503.8333333333335" y="181.94444444444446" type="line"/>
    </contour>
  </outline>
</glyph>
<glyph name="onehalf" format="2">
  <advance width="1749.3333333333335"/>
  <unicode hex="00BD"/>
  <outline>
    <contour>
      <point x="381.6111111111111" y="636.5555555555555" type="line"/>
      <point x="460.6666666666667" y="636.5555555555555" type="line"/>
      <point x="460.6666666666667" y="1620.0" type="line"/>
      <point x="409.8888888888889" y="1620.0" type="line"/>
      <point x="139.55555555555554" y="1421.611111111111" type="line"/>
      <point x="139.55555555555554" y="1337.7777777777778" type="line"/>
      <point x="409.8888888888889" y="1536.1666666666665" type="line"/>
      <point x="381.6111111111111" y="1552.5555555555554" type="line"/>
    </contour>
    <contour>
      <point x="143.88888888888889" y="616.0" type="line"/>
      <point x="686.4444444444445" y="616.0" type="line"/>
      <point x="686.4444444444445" y="689.2777777777778" type="line"/>
      <point x="143.88888888888889" y="689.2777777777778" type="line"/>
    </contour>
    <contour>
      <point x="439.61111111111114" y="-136.0" type="line"/>
      <point x="521.3333333333334" y="-136.0" type="line"/>
      <point x="1309.7222222222224" y="1616.0" type="line"/>
      <point x="1228.0" y="1616.0" type="line"/>
    </contour>
    <contour>
      <point x="1084.9444444444446" y="-136.0" type="line"/>
      <point x="1658.5" y="-136.0" type="line"/>
      <point x="1658.5" y="-62.722222222222186" type="line"/>
      <point x="1167.2777777777778" y="-62.722222222222186" type="line"/>
      <point x="1176.5555555555557" y="-86.99999999999997" type="line"/>
      <point x="1447.0" y="262.8333333333333" type="line" smooth="yes"/>
      <point x="1565.0" y="414.5"/>
      <point x="1609.8333333333335" y="506.6666666666667"/>
      <point x="1610.7777777777778" y="615.1666666666666" type="curve" smooth="yes"/>
      <point x="1611.7222222222224" y="797.1666666666666"/>
      <point x="1497.6111111111113" y="876.1111111111111"/>
      <point x="1303.8333333333335" y="876.1111111111111" type="curve" smooth="yes"/>
      <point x="1216.2222222222222" y="876.1111111111111"/>
      <point x="1133.611111111111" y="863.0555555555555"/>
      <point x="1072.888888888889" y="838.1666666666666" type="curve"/>
      <point x="1072.888888888889" y="763.3888888888888" type="line"/>
      <point x="1141.3333333333335" y="790.0555555555555"/>
      <point x="1214.4444444444446" y="803.3333333333333"/>
      <point x="1298.1666666666667" y="803.3333333333333" type="curve" smooth="yes"/>
      <point x="1449.6666666666667" y="803.3333333333333"/>
      <point x="1530.111111111111" y="746.7777777777777"/>
      <point x="1530.111111111111" y="609.5" type="curve" smooth="yes"/>
      <point x="1530.111111111111" y="520.0"/>
      <point x="1487.8333333333335" y="435.77777777777777"/>
      <point x="1383.5555555555557" y="301.61111111111114" type="curve" smooth="yes"/>
      <point x="1084.9444444444446" y="-89.61111111111109" type="line"/>
    </contour>
  </outline>
</glyph>
<glyph name="threequarters" format="2">
  <advance width="1749.3333333333335"/>
  <unicode hex="00BE"/>
  <outline>
    <contour>
      <point x="316.27777777777777" y="603.8888888888889" type="curve" smooth="yes"/>
      <point x="551.7777777777778" y="603.8888888888889"/>
      <point x="675.2222222222223" y="706.5"/>
      <point x="675.2222222222223" y="884.0" type="curve" smooth="yes"/>
      <point x="675.2222222222223" y="1030.2222222222222"/>
      <point x="581.3888888888889" y="1123.3333333333333"/>
      <point x="409.94444444444446" y="1144.388888888889" type="curve"/>
      <point x="409.94444444444446" y="1127.9444444444443" type="line"/>
      <point x="551.7777777777778" y="1157.611111111111"/>
      <point x="641.2777777777778" y="1247.2777777777778"/>
      <point x="641.2777777777778" y="1378.2222222222222" type="curve" smooth="yes"/>
      <point x="641.2777777777778" y="1537.4444444444443"/>
      <point x="529.7222222222223" y="1628.111111111111"/>
      <point x="327.6666666666667" y="1628.111111111111" type="curve" smooth="yes"/>
      <point x="246.88888888888889" y="1628.111111111111"/>
      <point x="161.11111111111111" y="1615.888888888889"/>
      <point x="97.83333333333333" y="1592.0555555555557" type="curve"/>
      <point x="97.83333333333333" y="1518.4444444444443" type="line"/>
      <point x="171.38888888888889" y="1546.2222222222222"/>
      <point x="246.66666666666666" y="1557.4444444444443"/>
      <point x="322.55555555555554" y="1557.4444444444443" type="curve" smooth="yes"/>
      <point x="479.77777777777777" y="1557.4444444444443"/>
      <point x="563.1666666666666" y="1493.5555555555554"/>
      <point x="563.1666666666666" y="1373.6666666666667" type="curve" smooth="yes"/>
      <point x="563.1666666666666" y="1240.0"/>
      <point x="458.6666666666667" y="1165.6666666666667"/>
      <point x="262.61111111111114" y="1165.6666666666667" type="curve" smooth="yes"/>
      <point x="206.88888888888889" y="1165.6666666666667" type="line"/>
      <point x="206.88888888888889" y="1093.8333333333333" type="line"/>
      <point x="324.6666666666667" y="1093.8333333333333" type="line" smooth="yes"/>
      <point x="511.27777777777777" y="1093.8333333333333"/>
      <point x="597.3888888888889" y="1016.7777777777777"/>
      <point x="597.3888888888889" y="888.0555555555555" type="curve" smooth="yes"/>
      <point x="597.3888888888889" y="748.9444444444445"/>
      <point x="501.55555555555554" y="674.6111111111112"/>
      <point x="315.3333333333333" y="674.6111111111112" type="curve" smooth="yes"/>
      <point x="238.11111111111111" y="674.6111111111112"/>
      <point x="152.05555555555554" y="687.5555555555555"/>
      <point x="71.72222222222221" y="716.1111111111111" type="curve"/>
      <point x="71.72222222222221" y="642.5" type="line"/>
      <point x="146.61111111111111" y="616.7777777777778"/>
      <point x="232.33333333333334" y="603.8888888888889"/>
    </contour>
    <contour>
      <point x="439.61111111111114" y="-136.0" type="line"/>
      <point x="521.3333333333334" y="-136.0" type="line"/>
      <point x="1309.7222222222224" y="1616.0" type="line"/>
      <point x="1228.0" y="1616.0" type="line"/>
    </contour>
    <contour>
      <point x="1024.3333333333335" y="111.6111111111111" type="line"/>
      <point x="1722.6666666666667" y="111.6111111111111" type="line"/>
      <point x="1722.6666666666667" y="181.94444444444446" type="line"/>
      <point x="1091.1111111111113" y="181.94444444444446" type="line"/>
      <point x="1105.7777777777778" y="158.22222222222223" type="line"/>
      <point x="1487.5555555555557" y="864.0" type="line"/>
      <point x="1406.3333333333335" y="864.0" type="line"/>
      <point x="1024.3333333333335" y="159.16666666666669" type="line"/>
    </contour>
    <contour>
      <point x="1503.8333333333335" y="-136.0" type="line"/>
      <point x="1578.5" y="-136.0" type="line"/>
      <point x="1578.5" y="526.0" type="line"/>
      <point x="1518.4444444444446" y="526.0" type="line"/>
      <point x="1503.8333333333335" y="181.94444444444446" type="line"/>
    </contour>
  </outline>
</glyph>
<glyph name="questiondown" format="2">
  <advance width="863.9444444444445"/>
  <unicode hex="00BF"/>
  <outline>
    <contour>
      <point x="505.0555555555556" y="768.2222222222222" type="line"/>
      <point x="445.44444444444446" y="768.2222222222222" type="line"/>
      <point x="434.3888888888889" y="396.6666666666667" type="line"/>
      <point x="156.27777777777777" y="284.77777777777777"/>
      <point x="62.94444444444444" y="159.2777777777778"/>
      <point x="62.94444444444444" y="-43.499999999999986" type="curve" smooth="yes"/>
      <point x="62.94444444444444" y="-266.1111111111111"/>
      <point x="218.16666666666669" y="-400.0"/>
      <point x="498.0" y="-400.0" type="curve" smooth="yes"/>
      <point x="612.0" y="-400.0"/>
      <point x="728.6111111111111" y="-380.77777777777777"/>
      <point x="820.9444444444445" y="-345.94444444444446" type="curve"/>
      <point x="820.9444444444445" y="-263.5555555555555" type="line"/>
      <point x="715.3888888888889" y="-302.2777777777777"/>
      <point x="610.9444444444445" y="-319.49999999999994"/>
      <point x="501.83333333333337" y="-319.49999999999994" type="curve" smooth="yes"/>
      <point x="273.5555555555556" y="-319.49999999999994"/>
      <point x="152.00000000000006" y="-218.8333333333333"/>
      <point x="152.00000000000006" y="-41.38888888888887" type="curve" smooth="yes"/>
      <point x="152.00000000000006" y="135.77777777777777"/>
      <point x="243.50000000000006" y="245.83333333333331"/>
      <point x="520.4444444444445" y="343.16666666666663" type="curve"/>
    </contour>
    <contour>
      <point x="475.22222222222223" y="1091.6666666666667" type="curve" smooth="yes"/>
      <point x="430.27777777777777" y="1091.6666666666667"/>
      <point x="401.77777777777777" y="1061.8333333333333"/>
      <point x="401.77777777777777" y="1020.0" type="curve" smooth="yes"/>
      <point x="401.77777777777777" y="976.2777777777777"/>
      <point x="431.94444444444446" y="946.4444444444443"/>
      <point x="475.22222222222223" y="946.4444444444443" type="curve" smooth="yes"/>
      <point x="518.5" y="946.4444444444443"/>
      <point x="548.6666666666667" y="976.0555555555555"/>
      <point x="548.6666666666667" y="1020.0" type="curve" smooth="yes"/>
      <point x="548.6666666666667" y="1062.0555555555557"/>
      <point x="518.2777777777778" y="1091.6666666666667"/>
    </contour>
  </outline>
</glyph>
<glyph name="Agrave" format="2">
  <advance width="1299.5555555555557"/>
  <unicode hex="00C0"/>
  <anchor x="650.6666666666667" y="1520.0" name="_top"/>
  <anchor x="650.7222222222223" y="0.0" name="bottom"/>
  <anchor x="1264.388888888889" y="0.0" name="ogonek"/>
  <anchor x="650.6666666666667" y="1520.0" name="top"/>
  <outline>
    <contour>
      <point x="35.16666666666666" y="0.0" type="line"/>
      <point x="127.4444444444445" y="0.0" type="line"/>
      <point x="661.0555555555555" y="1431.9444444444443" type="line"/>
      <point x="636.2777777777778" y="1431.9444444444443" type="line"/>
      <point x="1170.0" y="0.0" type="line"/>
      <point x="1264.388888888889" y="0.0" type="line"/>
      <point x="708.1111111111112" y="1480.0" type="line"/>
      <point x="591.4444444444445" y="1480.0" type="line"/>
    </contour>
    <contour>
      <point x="288.94444444444446" y="517.5" type="line"/>
      <point x="1010.4444444444445" y="517.5" type="line"/>
      <point x="986.5555555555555" y="598.7222222222223" type="line"/>
      <point x="312.8888888888889" y="598.7222222222223" type="line"/>
    </contour>
    <contour>
      <point x="609.8333333333334" y="1614.3333333333333" type="line"/>
      <point x="691.5" y="1614.3333333333333" type="line"/>
      <point x="516.0555555555557" y="1888.7777777777778" type="line"/>
      <point x="416.77777777777777" y="1888.7777777777778" type="line"/>
    </contour>
  </outline>
</glyph>
<glyph name="Acircumflex" format="2">
  <advance width="1299.5555555555557"/>
  <unicode hex="00C2"/>
  <anchor x="650.6666666666667" y="1520.0" name="_top"/>
  <anchor x="650.7222222222223" y="0.0" name="bottom"/>
  <anchor x="1264.388888888889" y="0.0" name="ogonek"/>
  <anchor x="650.6666666666667" y="1520.0" name="top"/>
  <outline>
    <contour>
      <point x="35.16666666666666" y="0.0" type="line"/>
      <point x="127.4444444444445" y="0.0" type="line"/>
      <point x="661.0555555555555" y="1431.9444444444443" type="line"/>
      <point x="636.2777777777778" y="1431.9444444444443" type="line"/>
      <point x="1170.0" y="0.0" type="line"/>
      <point x="1264.388888888889" y="0.0" type="line"/>
      <point x="708.1111111111112" y="1480.0" type="line"/>
      <point x="591.4444444444445" y="1480.0" type="line"/>
    </contour>
    <contour>
      <point x="288.94444444444446" y="517.5" type="line"/>
      <point x="1010.4444444444445" y="517.5" type="line"/>
      <point x="986.5555555555555" y="598.7222222222223" type="line"/>
      <point x="312.8888888888889" y="598.7222222222223" type="line"/>
    </contour>
    <contour>
      <point x="363.72222222222223" y="1614.3333333333333" type="line"/>
      <point x="457.44444444444446" y="1614.3333333333333" type="line"/>
      <point x="664.6111111111111" y="1855.2222222222222" type="line"/>
      <point x="636.7222222222223" y="1855.2222222222222" type="line"/>
      <point x="843.8888888888889" y="1614.3333333333333" type="line"/>
      <point x="937.6111111111112" y="1614.3333333333333" type="line"/>
      <point x="696.3888888888889" y="1888.7777777777778" type="line"/>
      <point x="604.9444444444445" y="1888.7777777777778" type="line"/>
    </contour>
  </outline>
</glyph>
<glyph name="Atilde" format="2">
  <advance width="1299.5555555555557"/>
  <unicode hex="00C3"/>
  <anchor x="650.6666666666667" y="1520.0" name="_top"/>
  <anchor x="650.7222222222223" y="0.0" name="bottom"/>
  <anchor x="1264.388888888889" y="0.0" name="ogonek"/>
  <anchor x="650.6666666666667" y="1520.0" name="top"/>
  <outline>
    <contour>
      <point x="35.16666666666666" y="0.0" type="line"/>
      <point x="127.4444444444445" y="0.0" type="line"/>
      <point x="661.0555555555555" y="1431.9444444444443" type="line"/>
      <point x="636.2777777777778" y="1431.9444444444443" type="line"/>
      <point x="1170.0" y="0.0" type="line"/>
      <point x="1264.388888888889" y="0.0" type="line"/>
      <point x="708.1111111111112" y="1480.0" type="line"/>
      <point x="591.4444444444445" y="1480.0" type="line"/>
    </contour>
    <contour>
      <point x="288.94444444444446" y="517.5" type="line"/>
      <point x="1010.4444444444445" y="517.5" type="line"/>
      <point x="986.5555555555555" y="598.7222222222223" type="line"/>
      <point x="312.8888888888889" y="598.7222222222223" type="line"/>
    </contour>
    <contour>
      <point x="796.8888888888889" y="1690.8333333333333" type="curve" smooth="yes"/>
      <point x="867.6111111111111" y="1690.8333333333333"/>
      <point x="919.4444444444445" y="1712.8333333333333"/>
      <point x="955.8333333333334" y="1752.611111111111" type="curve"/>
      <point x="955.8333333333334" y="1828.8333333333333" type="line"/>
      <point x="911.3888888888889" y="1780.888888888889"/>
      <point x="864.6111111111112" y="1757.888888888889"/>
      <point x="797.3333333333334" y="1757.888888888889" type="curve" smooth="yes"/>
      <point x="703.2777777777778" y="1757.888888888889"/>
      <point x="618.5" y="1834.0"/>
      <point x="504.44444444444446" y="1834.0" type="curve" smooth="yes"/>
      <point x="433.72222222222223" y="1834.0"/>
      <point x="381.8888888888889" y="1811.888888888889"/>
      <point x="345.5" y="1772.111111111111" type="curve"/>
      <point x="345.5" y="1695.888888888889" type="line"/>
      <point x="389.94444444444446" y="1743.8333333333333"/>
      <point x="436.72222222222223" y="1766.8333333333333"/>
      <point x="504.0" y="1766.8333333333333" type="curve" smooth="yes"/>
      <point x="598.0555555555555" y="1766.8333333333333"/>
      <point x="682.8333333333334" y="1690.8333333333333"/>
    </contour>
  </outline>
</glyph>
<glyph name="Adieresis" format="2">
  <advance width="1299.5555555555557"/>
  <unicode hex="00C4"/>
  <anchor x="650.6666666666667" y="1520.0" name="_top"/>
  <anchor x="650.7222222222223" y="0.0" name="bottom"/>
  <anchor x="1264.388888888889" y="0.0" name="ogonek"/>
  <anchor x="650.6666666666667" y="1520.0" name="top"/>
  <outline>
    <contour>
      <point x="35.16666666666666" y="0.0" type="line"/>
      <point x="127.4444444444445" y="0.0" type="line"/>
      <point x="661.0555555555555" y="1431.9444444444443" type="line"/>
      <point x="636.2777777777778" y="1431.9444444444443" type="line"/>
      <point x="1170.0" y="0.0" type="line"/>
      <point x="1264.388888888889" y="0.0" type="line"/>
      <point x="708.1111111111112" y="1480.0" type="line"/>
      <point x="591.4444444444445" y="1480.0" type="line"/>
    </contour>
    <contour>
      <point x="288.94444444444446" y="517.5" type="line"/>
      <point x="1010.4444444444445" y="517.5" type="line"/>
      <point x="986.5555555555555" y="598.7222222222223" type="line"/>
      <point x="312.8888888888889" y="598.7222222222223" type="line"/>
    </contour>
    <contour>
      <point x="873.6111111111111" y="1683.3333333333333" type="curve" smooth="yes"/>
      <point x="915.7222222222223" y="1683.3333333333333"/>
      <point x="944.2777777777778" y="1709.6666666666667"/>
      <point x="944.2777777777778" y="1751.888888888889" type="curve" smooth="yes"/>
      <point x="944.2777777777778" y="1794.111111111111"/>
      <point x="915.7222222222223" y="1822.3333333333333"/>
      <point x="873.6111111111111" y="1822.3333333333333" type="curve" smooth="yes"/>
      <point x="831.5" y="1822.3333333333333"/>
      <point x="802.9444444444445" y="1794.111111111111"/>
      <point x="802.9444444444445" y="1751.888888888889" type="curve" smooth="yes"/>
      <point x="802.9444444444445" y="1709.6666666666667"/>
      <point x="831.5" y="1683.3333333333333"/>
    </contour>
    <contour>
      <point x="427.72222222222223" y="1683.3333333333333" type="curve" smooth="yes"/>
      <point x="469.83333333333337" y="1683.3333333333333"/>
      <point x="498.3888888888889" y="1709.6666666666667"/>
      <point x="498.3888888888889" y="1751.888888888889" type="curve" smooth="yes"/>
      <point x="498.3888888888889" y="1794.111111111111"/>
      <point x="469.83333333333337" y="1822.3333333333333"/>
      <point x="427.72222222222223" y="1822.3333333333333" type="curve" smooth="yes"/>
      <point x="385.6111111111111" y="1822.3333333333333"/>
      <point x="357.05555555555554" y="1794.111111111111"/>
      <point x="357.05555555555554" y="1751.888888888889" type="curve" smooth="yes"/>
      <point x="357.05555555555554" y="1709.6666666666667"/>
      <point x="385.6111111111111" y="1683.3333333333333"/>
    </contour>
  </outline>
</glyph>
<glyph name="Aring" format="2">
  <advance width="1299.5555555555557"/>
  <unicode hex="00C5"/>
  <anchor x="653.5" y="1350.0" name="_top"/>
  <anchor x="650.7222222222223" y="0.0" name="bottom"/>
  <anchor x="1264.388888888889" y="0.0" name="ogonek"/>
  <anchor x="650.6666666666667" y="1520.0" name="top"/>
  <outline>
    <contour>
      <point x="35.16666666666666" y="0.0" type="line"/>
      <point x="127.4444444444445" y="0.0" type="line"/>
      <point x="661.0555555555555" y="1431.9444444444443" type="line"/>
      <point x="636.2777777777778" y="1431.9444444444443" type="line"/>
      <point x="1170.0" y="0.0" type="line"/>
      <point x="1264.388888888889" y="0.0" type="line"/>
      <point x="708.1111111111112" y="1480.0" type="line"/>
      <point x="591.4444444444445" y="1480.0" type="line"/>
    </contour>
    <contour>
      <point x="288.94444444444446" y="517.5" type="line"/>
      <point x="1010.4444444444445" y="517.5" type="line"/>
      <point x="986.5555555555555" y="598.7222222222223" type="line"/>
      <point x="312.8888888888889" y="598.7222222222223" type="line"/>
    </contour>
    <contour>
      <point x="653.5" y="1438.7222222222222" type="curve" smooth="yes"/>
      <point x="760.9444444444445" y="1438.7222222222222"/>
      <point x="839.9444444444445" y="1517.5"/>
      <point x="839.9444444444445" y="1624.7222222222222" type="curve" smooth="yes"/>
      <point x="839.9444444444445" y="1731.9444444444446"/>
      <point x="760.9444444444445" y="1810.7222222222222"/>
      <point x="653.5" y="1810.7222222222222" type="curve" smooth="yes"/>
      <point x="546.0555555555555" y="1810.7222222222222"/>
      <point x="467.05555555555554" y="1731.9444444444446"/>
      <point x="467.05555555555554" y="1624.7222222222222" type="curve" smooth="yes"/>
      <point x="467.05555555555554" y="1517.5"/>
      <point x="546.0555555555555" y="1438.7222222222222"/>
    </contour>
    <contour>
      <point x="653.5" y="1495.5" type="curve" smooth="yes"/>
      <point x="579.1666666666667" y="1495.5"/>
      <point x="526.3888888888889" y="1544.5"/>
      <point x="526.3888888888889" y="1624.7222222222222" type="curve" smooth="yes"/>
      <point x="526.3888888888889" y="1704.9444444444446"/>
      <point x="579.1666666666667" y="1753.9444444444446"/>
      <point x="653.5" y="1753.9444444444446" type="curve" smooth="yes"/>
      <point x="727.8333333333334" y="1753.9444444444446"/>
      <point x="780.6111111111111" y="1704.9444444444446"/>
      <point x="780.6111111111111" y="1624.7222222222222" type="curve" smooth="yes"/>
      <point x="780.6111111111111" y="1544.5"/>
      <point x="727.8333333333334" y="1495.5"/>
    </contour>
  </outline>
</glyph>
<glyph name="Ccedilla" format="2">
  <advance width="1111.7777777777778"/>
  <unicode hex="00C7"/>
  <anchor x="694.2777777777778" y="0.0" name="_bottom"/>
  <anchor x="694.2777777777778" y="0.0" name="bottom"/>
  <anchor x="680.1111111111111" y="1520.0" name="top"/>
  <outline>
    <contour>
      <point x="739.0" y="-18.11111111111111" type="curve" smooth="yes"/>
      <point x="864.4444444444445" y="-18.11111111111111"/>
      <point x="974.3333333333334" y="2.6666666666666656"/>
      <point x="1074.8333333333333" y="39.11111111111111" type="curve"/>
      <point x="1074.8333333333333" y="122.88888888888894" type="line"/>
      <point x="951.5555555555557" y="80.00000000000006"/>
      <point x="854.3888888888889" y="63.9444444444445"/>
      <point x="741.4444444444445" y="63.9444444444445" type="curve" smooth="yes"/>
      <point x="416.8888888888889" y="63.9444444444445"/>
      <point x="208.50000000000006" y="222.5555555555556"/>
      <point x="208.50000000000006" y="741.8888888888889" type="curve" smooth="yes"/>
      <point x="208.50000000000006" y="1241.111111111111"/>
      <point x="407.66666666666674" y="1416.0555555555554"/>
      <point x="752.3888888888889" y="1416.0555555555554" type="curve" smooth="yes"/>
      <point x="861.8333333333334" y="1416.0555555555554"/>
      <point x="966.1111111111111" y="1402.2222222222222"/>
      <point x="1074.8333333333333" y="1368.2222222222222" type="curve"/>
      <point x="1074.8333333333333" y="1452.0" type="line"/>
      <point x="971.1111111111111" y="1482.4444444444443"/>
      <point x="868.8333333333334" y="1498.111111111111"/>
      <point x="755.0" y="1498.111111111111" type="curve" smooth="yes"/>
      <point x="358.77777777777777" y="1498.111111111111"/>
      <point x="115.27777777777777" y="1284.6666666666667"/>
      <point x="115.27777777777777" y="737.8888888888889" type="curve" smooth="yes"/>
      <point x="115.27777777777777" y="172.7777777777778"/>
      <point x="367.72222222222223" y="-18.11111111111111"/>
    </contour>
    <contour>
      <point x="702.8888888888889" y="-403.33333333333337" type="curve" smooth="yes"/>
      <point x="822.4444444444445" y="-403.33333333333337"/>
      <point x="900.3333333333334" y="-353.6666666666667"/>
      <point x="900.3333333333334" y="-256.27777777777777" type="curve" smooth="yes"/>
      <point x="900.3333333333334" y="-158.88888888888889"/>
      <point x="822.5555555555555" y="-109.6111111111111"/>
      <point x="707.2222222222223" y="-109.6111111111111" type="curve"/>
      <point x="724.6111111111111" y="-140.88888888888889" type="line"/>
      <point x="724.6111111111111" y="20.0" type="line"/>
      <point x="660.9444444444445" y="20.0" type="line"/>
      <point x="660.9444444444445" y="-164.94444444444446" type="line"/>
      <point x="699.7222222222222" y="-164.94444444444446" type="line" smooth="yes"/>
      <point x="785.1111111111111" y="-164.94444444444446"/>
      <point x="835.5" y="-192.44444444444446"/>
      <point x="835.5" y="-255.44444444444443" type="curve" smooth="yes"/>
      <point x="835.5" y="-318.38888888888886"/>
      <point x="785.2222222222222" y="-345.72222222222223"/>
      <point x="701.6666666666666" y="-345.72222222222223" type="curve" smooth="yes"/>
      <point x="643.8333333333334" y="-345.72222222222223"/>
      <point x="587.7777777777778" y="-334.8333333333333"/>
      <point x="514.6666666666666" y="-303.55555555555554" type="curve"/>
      <point x="514.6666666666666" y="-364.8888888888889" type="line"/>
      <point x="570.8888888888889" y="-390.44444444444446"/>
      <point x="640.7222222222222" y="-403.33333333333337"/>
    </contour>
  </outline>
</glyph>
<glyph name="Edieresis" format="2">
  <advance width="1126.0"/>
  <unicode hex="00CB"/>
  <anchor x="637.2222222222222" y="1520.0" name="_top"/>
  <anchor x="639.1111111111111" y="0.0" name="bottom"/>
  <anchor x="974.3888888888889" y="0.0" name="ogonek"/>
  <anchor x="637.2222222222222" y="1520.0" name="top"/>
  <anchor x="40.833333333333336" y="1480.0" name="topleft"/>
  <outline>
    <contour>
      <point x="185.5" y="0.0" type="line"/>
      <point x="1054.9444444444446" y="0.0" type="line"/>
      <point x="1054.9444444444446" y="81.33333333333339" type="line"/>
      <point x="273.50000000000006" y="81.33333333333339" type="line"/>
      <point x="273.50000000000006" y="1398.6666666666665" type="line"/>
      <point x="1044.9444444444446" y="1398.6666666666665" type="line"/>
      <point x="1044.9444444444446" y="1480.0" type="line"/>
      <point x="185.5" y="1480.0" type="line"/>
    </contour>
    <contour>
      <point x="246.7777777777778" y="720.0" type="line"/>
      <point x="949.3888888888889" y="720.0" type="line"/>
      <point x="949.3888888888889" y="801.3333333333334" type="line"/>
      <point x="246.7777777777778" y="801.3333333333334" type="line"/>
    </contour>
    <contour>
      <point x="860.1666666666667" y="1683.3333333333333" type="curve" smooth="yes"/>
      <point x="902.2777777777778" y="1683.3333333333333"/>
      <point x="930.8333333333334" y="1709.6666666666667"/>
      <point x="930.8333333333334" y="1751.888888888889" type="curve" smooth="yes"/>
      <point x="930.8333333333334" y="1794.111111111111"/>
      <point x="902.2777777777778" y="1822.3333333333333"/>
      <point x="860.1666666666667" y="1822.3333333333333" type="curve" smooth="yes"/>
      <point x="818.0555555555555" y="1822.3333333333333"/>
      <point x="789.5" y="1794.111111111111"/>
      <point x="789.5" y="1751.888888888889" type="curve" smooth="yes"/>
      <point x="789.5" y="1709.6666666666667"/>
      <point x="818.0555555555555" y="1683.3333333333333"/>
    </contour>
    <contour>
      <point x="414.27777777777777" y="1683.3333333333333" type="curve" smooth="yes"/>
      <point x="456.3888888888889" y="1683.3333333333333"/>
      <point x="484.94444444444446" y="1709.6666666666667"/>
      <point x="484.94444444444446" y="1751.888888888889" type="curve" smooth="yes"/>
      <point x="484.94444444444446" y="1794.111111111111"/>
      <point x="456.3888888888889" y="1822.3333333333333"/>
      <point x="414.27777777777777" y="1822.3333333333333" type="curve" smooth="yes"/>
      <point x="372.16666666666663" y="1822.3333333333333"/>
      <point x="343.6111111111111" y="1794.111111111111"/>
      <point x="343.6111111111111" y="1751.888888888889" type="curve" smooth="yes"/>
      <point x="343.6111111111111" y="1709.6666666666667"/>
      <point x="372.16666666666663" y="1683.3333333333333"/>
    </contour>
  </outline>
</glyph>
<glyph name="Igrave" format="2">
  <advance width="459.33333333333337"/>
  <unicode hex="00CC"/>
  <anchor x="229.66666666666669" y="1520.0" name="_top"/>
  <anchor x="229.61111111111114" y="0.0" name="bottom"/>
  <anchor x="273.83333333333337" y="0.0" name="ogonek"/>
  <anchor x="229.66666666666669" y="1520.0" name="top"/>
  <outline>
    <contour>
      <point x="185.5" y="0.0" type="line"/>
      <point x="273.83333333333337" y="0.0" type="line"/>
      <point x="273.83333333333337" y="1480.0" type="line"/>
      <point x="185.5" y="1480.0" type="line"/>
    </contour>
    <contour>
      <point x="188.83333333333331" y="1614.3333333333333" type="line"/>
      <point x="270.50000000000006" y="1614.3333333333333" type="line"/>
      <point x="95.0555555555556" y="1888.7777777777778" type="line"/>
      <point x="-4.222222222222243" y="1888.7777777777778" type="line"/>
    </contour>
  </outline>
</glyph>
<glyph name="Iacute" format="2">
  <advance width="459.33333333333337"/>
  <unicode hex="00CD"/>
  <anchor x="229.66666666666669" y="1520.0" name="_top"/>
  <anchor x="229.61111111111114" y="0.0" name="bottom"/>
  <anchor x="273.83333333333337" y="0.0" name="ogonek"/>
  <anchor x="229.66666666666669" y="1520.0" name="top"/>
  <outline>
    <contour>
      <point x="185.5" y="0.0" type="line"/>
      <point x="273.83333333333337" y="0.0" type="line"/>
      <point x="273.83333333333337" y="1480.0" type="line"/>
      <point x="185.5" y="1480.0" type="line"/>
    </contour>
    <contour>
      <point x="188.7222222222222" y="1614.3333333333333" type="line"/>
      <point x="270.3888888888889" y="1614.3333333333333" type="line"/>
      <point x="463.4444444444445" y="1888.7777777777778" type="line"/>
      <point x="364.16666666666663" y="1888.7777777777778" type="line"/>
    </contour>
  </outline>
</glyph>
<glyph name="Icircumflex" format="2">
  <advance width="459.33333333333337"/>
  <unicode hex="00CE"/>
  <anchor x="229.66666666666669" y="1520.0" name="_top"/>
  <anchor x="229.61111111111114" y="0.0" name="bottom"/>
  <anchor x="273.83333333333337" y="0.0" name="ogonek"/>
  <anchor x="229.66666666666669" y="1520.0" name="top"/>
  <outline>
    <contour>
      <point x="185.5" y="0.0" type="line"/>
      <point x="273.83333333333337" y="0.0" type="line"/>
      <point x="273.83333333333337" y="1480.0" type="line"/>
      <point x="185.5" y="1480.0" type="line"/>
    </contour>
    <contour>
      <point x="-57.277777777777786" y="1614.3333333333333" type="line"/>
      <point x="36.44444444444448" y="1614.3333333333333" type="line"/>
      <point x="243.61111111111114" y="1855.2222222222222" type="line"/>
      <point x="215.72222222222223" y="1855.2222222222222" type="line"/>
      <point x="422.8888888888889" y="1614.3333333333333" type="line"/>
      <point x="516.6111111111112" y="1614.3333333333333" type="line"/>
      <point x="275.3888888888889" y="1888.7777777777778" type="line"/>
      <point x="183.94444444444443" y="1888.7777777777778" type="line"/>
    </contour>
  </outline>
</glyph>
<glyph name="Idieresis" format="2">
  <advance width="459.33333333333337"/>
  <unicode hex="00CF"/>
  <anchor x="229.66666666666669" y="1520.0" name="_top"/>
  <anchor x="229.61111111111114" y="0.0" name="bottom"/>
  <anchor x="273.83333333333337" y="0.0" name="ogonek"/>
  <anchor x="229.66666666666669" y="1520.0" name="top"/>
  <outline>
    <contour>
      <point x="185.5" y="0.0" type="line"/>
      <point x="273.83333333333337" y="0.0" type="line"/>
      <point x="273.83333333333337" y="1480.0" type="line"/>
      <point x="185.5" y="1480.0" type="line"/>
    </contour>
    <contour>
      <point x="452.61111111111114" y="1683.3333333333333" type="curve" smooth="yes"/>
      <point x="494.7222222222223" y="1683.3333333333333"/>
      <point x="523.2777777777778" y="1709.6666666666667"/>
      <point x="523.2777777777778" y="1751.888888888889" type="curve" smooth="yes"/>
      <point x="523.2777777777778" y="1794.111111111111"/>
      <point x="494.7222222222223" y="1822.3333333333333"/>
      <point x="452.61111111111114" y="1822.3333333333333" type="curve" smooth="yes"/>
      <point x="410.5" y="1822.3333333333333"/>
      <point x="381.94444444444446" y="1794.111111111111"/>
      <point x="381.94444444444446" y="1751.888888888889" type="curve" smooth="yes"/>
      <point x="381.94444444444446" y="1709.6666666666667"/>
      <point x="410.5" y="1683.3333333333333"/>
    </contour>
    <contour>
      <point x="6.722222222222232" y="1683.3333333333333" type="curve" smooth="yes"/>
      <point x="48.833333333333364" y="1683.3333333333333"/>
      <point x="77.38888888888893" y="1709.6666666666667"/>
      <point x="77.38888888888893" y="1751.888888888889" type="curve" smooth="yes"/>
      <point x="77.38888888888893" y="1794.111111111111"/>
      <point x="48.833333333333364" y="1822.3333333333333"/>
      <point x="6.722222222222232" y="1822.3333333333333" type="curve" smooth="yes"/>
      <point x="-35.3888888888889" y="1822.3333333333333"/>
      <point x="-63.944444444444464" y="1794.111111111111"/>
      <point x="-63.944444444444464" y="1751.888888888889" type="curve" smooth="yes"/>
      <point x="-63.944444444444464" y="1709.6666666666667"/>
      <point x="-35.3888888888889" y="1683.3333333333333"/>
    </contour>
  </outline>
</glyph>
<glyph name="Ntilde" format="2">
  <advance width="1436.1666666666667"/>
  <unicode hex="00D1"/>
  <anchor x="718.5555555555555" y="1520.0" name="_top"/>
  <anchor x="718.5555555555555" y="0.0" name="bottom"/>
  <anchor x="718.5555555555555" y="1520.0" name="top"/>
  <outline>
    <contour>
      <point x="185.5" y="0.0" type="line"/>
      <point x="270.4444444444445" y="0.0" type="line"/>
      <point x="270.4444444444445" y="1392.8888888888887" type="line"/>
      <point x="237.50000000000006" y="1392.8888888888887" type="line"/>
      <point x="1155.7777777777778" y="0.0" type="line"/>
      <point x="1250.6666666666667" y="0.0" type="line"/>
      <point x="1250.6666666666667" y="1480.0" type="line"/>
      <point x="1165.7222222222222" y="1480.0" type="line"/>
      <point x="1165.7222222222222" y="87.1111111111112" type="line"/>
      <point x="1198.6666666666667" y="87.1111111111112" type="line"/>
      <point x="280.3888888888889" y="1480.0" type="line"/>
      <point x="185.5" y="1480.0" type="line"/>
    </contour>
    <contour>
      <point x="864.7777777777778" y="1690.8333333333333" type="curve" smooth="yes"/>
      <point x="935.5" y="1690.8333333333333"/>
      <point x="987.3333333333334" y="1712.8333333333333"/>
      <point x="1023.7222222222223" y="1752.611111111111" type="curve"/>
      <point x="1023.7222222222223" y="1828.8333333333333" type="line"/>
      <point x="979.2777777777778" y="1780.888888888889"/>
      <point x="932.5" y="1757.888888888889"/>
      <point x="865.2222222222223" y="1757.888888888889" type="curve" smooth="yes"/>
      <point x="771.1666666666667" y="1757.888888888889"/>
      <point x="686.3888888888889" y="1834.0"/>
      <point x="572.3333333333334" y="1834.0" type="curve" smooth="yes"/>
      <point x="501.6111111111111" y="1834.0"/>
      <point x="449.77777777777777" y="1811.888888888889"/>
      <point x="413.38888888888886" y="1772.111111111111" type="curve"/>
      <point x="413.38888888888886" y="1695.888888888889" type="line"/>
      <point x="457.8333333333333" y="1743.8333333333333"/>
      <point x="504.6111111111111" y="1766.8333333333333"/>
      <point x="571.8888888888889" y="1766.8333333333333" type="curve" smooth="yes"/>
      <point x="665.9444444444445" y="1766.8333333333333"/>
      <point x="750.7222222222223" y="1690.8333333333333"/>
    </contour>
  </outline>
</glyph>
<glyph name="Otilde" format="2">
  <advance width="1383.3333333333335"/>
  <unicode hex="00D5"/>
  <anchor x="691.6666666666667" y="1520.0" name="_top"/>
  <anchor x="691.6666666666667" y="0.0" name="bottom"/>
  <anchor x="691.6666666666667" y="740.0" name="center"/>
  <anchor x="852.5" y="0.0" name="ogonek"/>
  <anchor x="691.6666666666667" y="1520.0" name="top"/>
  <anchor x="44.38888888888889" y="1480.0" name="topleft"/>
  <anchor x="853.3333333333334" y="1480.0" name="topright"/>
  <outline>
    <contour>
      <point x="691.6666666666667" y="-18.11111111111111" type="curve" smooth="yes"/>
      <point x="1034.388888888889" y="-18.11111111111111"/>
      <point x="1268.0555555555557" y="197.44444444444446"/>
      <point x="1268.0555555555557" y="740.0" type="curve" smooth="yes"/>
      <point x="1268.0555555555557" y="1282.5555555555557"/>
      <point x="1037.2777777777778" y="1498.111111111111"/>
      <point x="691.6666666666667" y="1498.111111111111" type="curve" smooth="yes"/>
      <point x="348.8888888888889" y="1498.111111111111"/>
      <point x="115.27777777777777" y="1282.6666666666667"/>
      <point x="115.27777777777777" y="740.0" type="curve" smooth="yes"/>
      <point x="115.27777777777777" y="197.33333333333334"/>
      <point x="346.1111111111111" y="-18.11111111111111"/>
    </contour>
    <contour>
      <point x="691.6666666666667" y="64.38888888888894" type="curve" smooth="yes"/>
      <point x="402.8888888888889" y="64.38888888888894"/>
      <point x="207.9444444444445" y="236.38888888888894"/>
      <point x="207.9444444444445" y="744.2222222222222" type="curve" smooth="yes"/>
      <point x="207.9444444444445" y="1243.611111111111"/>
      <point x="403.0555555555556" y="1415.611111111111"/>
      <point x="691.6666666666667" y="1415.611111111111" type="curve" smooth="yes"/>
      <point x="980.2777777777778" y="1415.611111111111"/>
      <point x="1175.388888888889" y="1243.4444444444443"/>
      <point x="1175.388888888889" y="735.7777777777778" type="curve" smooth="yes"/>
      <point x="1175.388888888889" y="236.5555555555556"/>
      <point x="980.4444444444445" y="64.38888888888894"/>
    </contour>
    <contour>
      <point x="837.8888888888889" y="1690.8333333333333" type="curve" smooth="yes"/>
      <point x="908.6111111111112" y="1690.8333333333333"/>
      <point x="960.4444444444445" y="1712.8333333333333"/>
      <point x="996.8333333333334" y="1752.611111111111" type="curve"/>
      <point x="996.8333333333334" y="1828.8333333333333" type="line"/>
      <point x="952.3888888888889" y="1780.888888888889"/>
      <point x="905.6111111111112" y="1757.888888888889"/>
      <point x="838.3333333333334" y="1757.888888888889" type="curve" smooth="yes"/>
      <point x="744.2777777777778" y="1757.888888888889"/>
      <point x="659.5" y="1834.0"/>
      <point x="545.4444444444445" y="1834.0" type="curve" smooth="yes"/>
      <point x="474.72222222222223" y="1834.0"/>
      <point x="422.8888888888889" y="1811.888888888889"/>
      <point x="386.5" y="1772.111111111111" type="curve"/>
      <point x="386.5" y="1695.888888888889" type="line"/>
      <point x="430.94444444444446" y="1743.8333333333333"/>
      <point x="477.72222222222223" y="1766.8333333333333"/>
      <point x="545.0" y="1766.8333333333333" type="curve" smooth="yes"/>
      <point x="639.0555555555555" y="1766.8333333333333"/>
      <point x="723.8333333333334" y="1690.8333333333333"/>
    </contour>
  </outline>
</glyph>
<glyph name="Odieresis" format="2">
  <advance width="1383.3333333333335"/>
  <unicode hex="00D6"/>
  <anchor x="691.6666666666667" y="1520.0" name="_top"/>
  <anchor x="691.6666666666667" y="0.0" name="bottom"/>
  <anchor x="691.6666666666667" y="740.0" name="center"/>
  <anchor x="852.5" y="0.0" name="ogonek"/>
  <anchor x="691.6666666666667" y="1520.0" name="top"/>
  <anchor x="44.38888888888889" y="1480.0" name="topleft"/>
  <anchor x="853.3333333333334" y="1480.0" name="topright"/>
  <outline>
    <contour>
      <point x="691.6666666666667" y="-18.11111111111111" type="curve" smooth="yes"/>
      <point x="1034.388888888889" y="-18.11111111111111"/>
      <point x="1268.0555555555557" y="197.44444444444446"/>
      <point x="1268.0555555555557" y="740.0" type="curve" smooth="yes"/>
      <point x="1268.0555555555557" y="1282.5555555555557"/>
      <point x="1037.2777777777778" y="1498.111111111111"/>
      <point x="691.6666666666667" y="1498.111111111111" type="curve" smooth="yes"/>
      <point x="348.8888888888889" y="1498.111111111111"/>
      <point x="115.27777777777777" y="1282.6666666666667"/>
      <point x="115.27777777777777" y="740.0" type="curve" smooth="yes"/>
      <point x="115.27777777777777" y="197.33333333333334"/>
      <point x="346.1111111111111" y="-18.11111111111111"/>
    </contour>
    <contour>
      <point x="691.6666666666667" y="64.38888888888894" type="curve" smooth="yes"/>
      <point x="402.8888888888889" y="64.38888888888894"/>
      <point x="207.9444444444445" y="236.38888888888894"/>
      <point x="207.9444444444445" y="744.2222222222222" type="curve" smooth="yes"/>
      <point x="207.9444444444445" y="1243.611111111111"/>
      <point x="403.0555555555556" y="1415.611111111111"/>
      <point x="691.6666666666667" y="1415.611111111111" type="curve" smooth="yes"/>
      <point x="980.2777777777778" y="1415.611111111111"/>
      <point x="1175.388888888889" y="1243.4444444444443"/>
      <point x="1175.388888888889" y="735.7777777777778" type="curve" smooth="yes"/>
      <point x="1175.388888888889" y="236.5555555555556"/>
      <point x="980.4444444444445" y="64.38888888888894"/>
    </contour>
    <contour>
      <point x="914.6111111111111" y="1683.3333333333333" type="curve" smooth="yes"/>
      <point x="956.7222222222223" y="1683.3333333333333"/>
      <point x="985.2777777777778" y="1709.6666666666667"/>
      <point x="985.2777777777778" y="1751.888888888889" type="curve" smooth="yes"/>
      <point x="985.2777777777778" y="1794.111111111111"/>
      <point x="956.7222222222223" y="1822.3333333333333"/>
      <point x="914.6111111111111" y="1822.3333333333333" type="curve" smooth="yes"/>
      <point x="872.5" y="1822.3333333333333"/>
      <point x="843.9444444444445" y="1794.111111111111"/>
      <point x="843.9444444444445" y="1751.888888888889" type="curve" smooth="yes"/>
      <point x="843.9444444444445" y="1709.6666666666667"/>
      <point x="872.5" y="1683.3333333333333"/>
    </contour>
    <contour>
      <point x="468.72222222222223" y="1683.3333333333333" type="curve" smooth="yes"/>
      <point x="510.83333333333337" y="1683.3333333333333"/>
      <point x="539.3888888888889" y="1709.6666666666667"/>
      <point x="539.3888888888889" y="1751.888888888889" type="curve" smooth="yes"/>
      <point x="539.3888888888889" y="1794.111111111111"/>
      <point x="510.83333333333337" y="1822.3333333333333"/>
      <point x="468.72222222222223" y="1822.3333333333333" type="curve" smooth="yes"/>
      <point x="426.6111111111111" y="1822.3333333333333"/>
      <point x="398.05555555555554" y="1794.111111111111"/>
      <point x="398.05555555555554" y="1751.888888888889" type="curve" smooth="yes"/>
      <point x="398.05555555555554" y="1709.6666666666667"/>
      <point x="426.6111111111111" y="1683.3333333333333"/>
    </contour>
  </outline>
</glyph>
<glyph name="multiply" format="2">
  <advance width="981.1111111111111"/>
  <unicode hex="00D7"/>
  <outline>
    <contour>
      <point x="186.22222222222226" y="401.55555555555554" type="line"/>
      <point x="490.55555555555554" y="705.8888888888888" type="line"/>
      <point x="794.8888888888889" y="401.55555555555554" type="line"/>
      <point x="849.0" y="455.6666666666667" type="line"/>
      <point x="544.6666666666667" y="760.0" type="line"/>
      <point x="849.0" y="1064.3333333333333" type="line"/>
      <point x="794.8888888888889" y="1118.4444444444446" type="line"/>
      <point x="490.55555555555554" y="814.1111111111112" type="line"/>
      <point x="186.22222222222226" y="1118.4444444444446" type="line"/>
      <point x="132.1111111111111" y="1064.3333333333333" type="line"/>
      <point x="436.4444444444444" y="760.0" type="line"/>
      <point x="132.1111111111111" y="455.6666666666667" type="line"/>
    </contour>
  </outline>
</glyph>
<glyph name="Udieresis" format="2">
  <advance width="1381.7222222222222"/>
  <unicode hex="00DC"/>
  <anchor x="692.0555555555555" y="1520.0" name="_top"/>
  <anchor x="692.0555555555555" y="0.0" name="bottom"/>
  <anchor x="833.7222222222223" y="1.8888888888888884" name="ogonek"/>
  <anchor x="692.0555555555555" y="1520.0" name="top"/>
  <anchor x="1120.0" y="1480.0" name="topright"/>
  <outline>
    <contour>
      <point x="692.0555555555555" y="-18.11111111111111" type="curve" smooth="yes"/>
      <point x="1045.388888888889" y="-18.11111111111111"/>
      <point x="1204.111111111111" y="152.88888888888889"/>
      <point x="1204.111111111111" y="535.6666666666667" type="curve" smooth="yes"/>
      <point x="1204.111111111111" y="1480.0" type="line"/>
      <point x="1118.111111111111" y="1480.0" type="line"/>
      <point x="1118.111111111111" y="523.9444444444445" type="line" smooth="yes"/>
      <point x="1118.111111111111" y="206.00000000000006"/>
      <point x="988.7777777777778" y="63.77777777777783"/>
      <point x="692.0555555555555" y="63.77777777777783" type="curve" smooth="yes"/>
      <point x="395.33333333333337" y="63.77777777777783"/>
      <point x="265.9444444444445" y="206.00000000000006"/>
      <point x="265.9444444444445" y="523.9444444444445" type="curve" smooth="yes"/>
      <point x="265.9444444444445" y="1480.0" type="line"/>
      <point x="177.6111111111111" y="1480.0" type="line"/>
      <point x="177.6111111111111" y="535.6666666666667" type="line" smooth="yes"/>
      <point x="177.6111111111111" y="152.88888888888889"/>
      <point x="338.3333333333333" y="-18.11111111111111"/>
    </contour>
    <contour>
      <point x="915.0" y="1683.3333333333333" type="curve" smooth="yes"/>
      <point x="957.1111111111111" y="1683.3333333333333"/>
      <point x="985.6666666666667" y="1709.6666666666667"/>
      <point x="985.6666666666667" y="1751.888888888889" type="curve" smooth="yes"/>
      <point x="985.6666666666667" y="1794.111111111111"/>
      <point x="957.1111111111111" y="1822.3333333333333"/>
      <point x="915.0" y="1822.3333333333333" type="curve" smooth="yes"/>
      <point x="872.8888888888889" y="1822.3333333333333"/>
      <point x="844.3333333333334" y="1794.111111111111"/>
      <point x="844.3333333333334" y="1751.888888888889" type="curve" smooth="yes"/>
      <point x="844.3333333333334" y="1709.6666666666667"/>
      <point x="872.8888888888889" y="1683.3333333333333"/>
    </contour>
    <contour>
      <point x="469.1111111111111" y="1683.3333333333333" type="curve" smooth="yes"/>
      <point x="511.22222222222223" y="1683.3333333333333"/>
      <point x="539.7777777777778" y="1709.6666666666667"/>
      <point x="539.7777777777778" y="1751.888888888889" type="curve" smooth="yes"/>
      <point x="539.7777777777778" y="1794.111111111111"/>
      <point x="511.22222222222223" y="1822.3333333333333"/>
      <point x="469.1111111111111" y="1822.3333333333333" type="curve" smooth="yes"/>
      <point x="427.0" y="1822.3333333333333"/>
      <point x="398.4444444444444" y="1794.111111111111"/>
      <point x="398.4444444444444" y="1751.888888888889" type="curve" smooth="yes"/>
      <point x="398.4444444444444" y="1709.6666666666667"/>
      <point x="427.0" y="1683.3333333333333"/>
    </contour>
  </outline>
</glyph>
<glyph name="Thorn" format="2">
  <advance width="1204.5"/>
  <unicode hex="00DE"/>
  <outline>
    <contour>
      <point x="185.5" y="0.0" type="line"/>
      <point x="273.83333333333337" y="0.0" type="line"/>
      <point x="273.83333333333337" y="278.8333333333333" type="line"/>
      <point x="350.44444444444446" y="271.27777777777777"/>
      <point x="414.7777777777778" y="268.3333333333333"/>
      <point x="491.6666666666667" y="268.3333333333333" type="curve" smooth="yes"/>
      <point x="913.7777777777778" y="268.3333333333333"/>
      <point x="1097.5555555555557" y="442.05555555555554"/>
      <point x="1097.5555555555557" y="760.9444444444445" type="curve" smooth="yes"/>
      <point x="1097.5555555555557" y="1099.6666666666667"/>
      <point x="902.3333333333334" y="1251.7222222222222"/>
      <point x="534.4444444444445" y="1251.7222222222222" type="curve" smooth="yes"/>
      <point x="427.5555555555556" y="1251.7222222222222"/>
      <point x="341.0555555555556" y="1242.1666666666667"/>
      <point x="273.83333333333337" y="1230.8333333333333" type="curve"/>
      <point x="273.83333333333337" y="1480.9444444444443" type="line"/>
      <point x="185.5" y="1480.9444444444443" type="line"/>
    </contour>
    <contour>
      <point x="494.5" y="348.44444444444446" type="curve" smooth="yes"/>
      <point x="413.6666666666667" y="348.44444444444446"/>
      <point x="344.8888888888889" y="352.33333333333337"/>
      <point x="273.83333333333337" y="362.00000000000006" type="curve"/>
      <point x="273.83333333333337" y="1150.388888888889" type="line"/>
      <point x="354.00000000000006" y="1163.9444444444443"/>
      <point x="437.7222222222223" y="1171.611111111111"/>
      <point x="536.3888888888889" y="1171.611111111111" type="curve" smooth="yes"/>
      <point x="851.8333333333334" y="1171.611111111111"/>
      <point x="1006.2777777777777" y="1046.8333333333333"/>
      <point x="1006.2777777777777" y="758.0" type="curve" smooth="yes"/>
      <point x="1006.2777777777777" y="484.0"/>
      <point x="855.6111111111111" y="348.44444444444446"/>
    </contour>
  </outline>
</glyph>
